<?xml version="1.0" encoding="UTF-8"?>
<svg id="Layer_1" xmlns="http://www.w3.org/2000/svg" version="1.1" viewBox="0 0 1000 458.06">
  <!-- Generator: Adobe Illustrator 30.3.0, SVG Export Plug-In . SVG Version: 2.1.3 Build 182)  -->
  <defs>
    <style>
      .st0 {
        fill: #fff;
      }
    </style>
  </defs>
  <path class="st0" d="M230.06,279.8h-1.35c-9.47,0-16.72,3.93-23.85,9.47-1.11-6.39-1.48-12.66-1.48-18.19,0-6.27.49-11.55.74-15,2.7,1.72,3.44,5.16,3.44,8.24,0,2.58-.61,4.79-.86,5.78,2.83-3.44,3.69-6.88,3.69-9.96,0-3.44-1.11-6.27-1.72-7.38,4.43,3.56,5.16,8.11,5.16,11.55,0,.74,0,1.6-.12,2.09.86-1.72,1.6-3.93,1.6-6.39,0-3.56-1.48-7.74-5.41-11.31,6.15,1.48,8.6,7.13,8.6,11.55,0,2.95,0,3.07.12.25.49-1.48.61-2.83.61-3.93,0-1.6-.25-2.83-.74-3.93-1.72-4.67-6.51-6.64-8.85-7.13.61-.12,1.11-.12,1.6-.12,3.56,0,5.78,1.11,7.13,2.46.98.86,1.6,1.72,1.84,2.09-.25-1.72-.86-3.2-1.84-4.43-1.84-2.34-4.79-3.44-7.74-3.44-1.11,0-2.34.25-3.32.61,1.48-2.09,3.81-2.83,6.02-2.83.98,0,1.97.25,2.58.61-1.6-1.84-3.81-2.83-5.78-2.83-2.09,0-4.43,1.11-6.02,3.44-.25-.61-.74-1.11-.86-1.84-.61-1.11-.86-2.46-1.11-3.69,0-.12-.12-.25-.25-.25s-.25.12-.25.25c-.25,1.35-.74,2.58-1.11,3.69-.25.74-.74,1.35-.98,1.84-1.6-2.34-3.69-3.44-5.78-3.44s-4.3.98-5.78,2.95c.74-.25,1.6-.61,2.7-.61,2.09,0,4.43.86,5.65,2.95-.98-.49-2.09-.74-3.44-.74-2.7,0-5.65,1.11-7.62,3.32-.98,1.11-1.6,2.58-1.72,4.43.25-.49.74-1.35,1.72-2.09,1.35-1.11,3.44-2.46,7.01-2.46.61,0,1.11,0,1.84.12-2.34.25-7.13,2.34-8.85,7.13-.49,1.11-.74,2.46-.74,3.81,0,1.11.25,2.58.74,4.18v-.25c.12-4.43,2.58-9.96,8.73-11.43-3.93,3.56-5.53,7.62-5.53,11.31,0,2.58.74,4.67,1.6,6.51-.12-.74-.12-1.6-.12-2.46,0-3.32.74-7.74,5.16-11.06-.74,1.11-1.84,3.81-1.84,7.25,0,2.95.86,6.51,3.69,9.96-.49-1.11-.98-3.44-.98-5.78,0-3.2.74-6.51,3.56-8.24.25,3.44.74,8.6.74,14.63,0,5.53-.25,11.8-1.48,18.32-7.13-5.53-14.51-9.47-23.85-9.47h-1.35c-4.79.25-9.59,1.6-13.03,3.56l-.12.12s0,.12.12.12h0c3.32-.98,6.64-1.6,10.08-1.6.98,0,1.97,0,2.83.12,4.18.25,7.99,1.6,11.55,3.2,4.92,2.34,9.59,5.53,13.64,8.97-2.58,2.09-11.31,10.45-14.14,11.92-.61-.74-1.6-1.35-2.58-1.35-.25,0-.49,0-.74.12-1.11.25-2.09,1.11-2.46,2.46-.12.25-.12.61-.12.74,0,.74.25,1.6.74,1.97.98.98,1.97,1.48,3.2,1.48.74,0,1.6-.25,2.46-.61,3.93-1.6,8.97-7.01,15.24-12.66.61-.49,1.11-.98,1.6-1.48.61.61,1.11.98,1.6,1.48,6.27,5.65,11.31,10.82,15.24,12.66.86.25,1.6.61,2.46.61,1.11,0,2.09-.49,3.2-1.48.49-.49.74-1.11.74-1.97,0-.25,0-.61-.12-.74-.25-1.11-1.11-2.09-2.46-2.46-.25,0-.49-.12-.74-.12-1.11,0-1.97.61-2.58,1.35-2.83-1.48-11.68-9.83-14.14-11.92,4.18-3.44,8.6-6.64,13.64-8.97,3.56-1.6,7.38-2.7,11.55-3.2.98-.12,1.97-.12,2.83-.12,3.44,0,6.64.61,10.08,1.6h0l.12-.12s0-.12-.12-.12c-3.44-2.09-8.11-3.44-12.91-3.69h-.25Z"/>
  <polygon class="st0" points="13.22 179.62 14.82 180.97 105.17 105.86 92.01 100.21 13.22 179.62"/>
  <polygon class="st0" points="111.19 100.7 105.17 105.86 191.21 144.46 221.33 140.77 111.19 100.7"/>
  <polygon class="st0" points="96.69 95.54 92.01 100.21 105.17 105.86 111.19 100.7 96.69 95.54"/>
  <polygon class="st0" points="120.53 153.06 122.75 161.67 144.38 160.81 134.42 151.34 120.53 153.06"/>
  <polygon class="st0" points="220.96 157.86 191.21 144.46 147.7 149.75 159.13 160.32 220.96 157.86"/>
  <polygon class="st0" points="112.17 162.16 110.7 154.17 56.86 160.69 58.82 164.37 112.17 162.16"/>
  <polygon class="st0" points="221.33 140.77 191.21 144.46 220.96 157.86 221.33 140.77"/>
  <polygon class="st0" points="58.82 164.37 52.06 164.5 153.85 362.53 142.54 308.07 58.82 164.37"/>
  <polygon class="st0" points="56.86 160.69 52.06 164.5 58.82 164.37 56.86 160.69"/>
  <polygon class="st0" points="115.49 133.03 103.81 121.84 110.7 154.17 120.53 153.06 115.49 133.03"/>
  <polygon class="st0" points="142.54 308.07 171.3 357.49 122.75 161.67 112.17 162.16 142.54 308.07"/>
  <polygon class="st0" points="110.7 154.17 112.17 162.16 122.75 161.67 120.53 153.06 110.7 154.17"/>
  <polygon class="st0" points="153.85 362.53 171.3 357.49 142.54 308.07 153.85 362.53"/>
  <polygon class="st0" points="159.13 160.32 144.38 160.81 279.47 290.99 292.87 284.22 159.13 160.32"/>
  <polygon class="st0" points="134.42 151.34 147.7 149.75 111.19 115.94 115.49 133.03 134.42 151.34"/>
  <polygon class="st0" points="294.22 305.49 310.57 300.33 299.02 289.76 285.74 297.13 294.22 305.49"/>
  <polygon class="st0" points="147.7 149.75 134.42 151.34 144.38 160.81 159.13 160.32 147.7 149.75"/>
  <polygon class="st0" points="111.19 115.94 103.81 121.84 115.49 133.03 111.19 115.94"/>
  <polygon class="st0" points="240.02 322.7 185.93 353.06 308.12 318.77 294.22 305.49 240.02 322.7"/>
  <polygon class="st0" points="308.12 318.77 310.57 300.33 294.22 305.49 308.12 318.77"/>
  <polygon class="st0" points="285.74 297.13 279.47 290.99 179.41 341.88 240.02 322.7 285.74 297.13"/>
  <polygon class="st0" points="292.87 284.22 299.02 289.76 308.36 284.47 304.55 278.2 292.87 284.22"/>
  <polygon class="st0" points="348.8 261.85 352.74 253.74 315.24 272.79 319.06 278.45 348.8 261.85"/>
  <polygon class="st0" points="279.47 290.99 285.74 297.13 299.02 289.76 292.87 284.22 279.47 290.99"/>
  <polygon class="st0" points="179.41 341.88 185.93 353.06 240.02 322.7 179.41 341.88"/>
  <polygon class="st0" points="348.8 261.85 332.21 296.64 344.62 314.22 356.79 257.3 348.8 261.85"/>
  <polygon class="st0" points="356.79 257.3 352.74 253.74 348.8 261.85 356.79 257.3"/>
  <polygon class="st0" points="319.06 278.45 308.36 284.47 325.08 311.76 332.21 296.64 319.06 278.45"/>
  <polygon class="st0" points="238.91 165.6 236.57 167.08 304.55 278.2 315.24 272.79 238.91 165.6"/>
  <polygon class="st0" points="315.24 272.79 304.55 278.2 308.36 284.47 319.06 278.45 315.24 272.79"/>
  <polygon class="st0" points="325.08 311.76 344.62 314.22 332.21 296.64 325.08 311.76"/>
  <path class="st0" d="M418.99,292.95v-26.43h2.95v26.43h-2.95ZM458.7,292.95h2.95v-26.43h-2.95v26.43ZM817.39,292.95h2.95v-26.43h-2.95v26.43ZM901.72,266.52h-2.95v26.43h2.95v-26.43ZM476.28,280.66v-3.44c-2.83-.86-4.79-1.72-4.79-3.93s2.09-3.93,4.79-4.3v-2.95c-4.79.25-8.11,3.2-8.11,7.13,0,5.04,4.3,6.39,8.11,7.5h0ZM478,269.1c2.34.25,4.43,1.11,5.65,2.95l.25.49,2.09-2.34-.25-.25c-1.84-2.09-4.67-3.44-7.87-3.69l.12,2.83h0ZM476.28,290.49c-3.44-.25-5.65-2.34-6.64-3.44l-.25-.49-1.97,2.34.25.25c2.09,2.58,5.29,3.93,8.85,4.18v-2.83h-.25ZM478,277.83v3.44c2.95.98,5.29,1.97,5.29,4.67,0,2.09-1.48,4.43-5.29,4.55v2.95c6.27-.25,8.6-4.18,8.6-7.62.12-5.41-4.55-6.88-8.6-7.99ZM518.56,266.52h-2.95v26.43h2.95v-26.43ZM520.28,269.35h4.79c3.2,0,5.29,2.09,5.29,4.92s-2.09,4.92-5.29,4.92h-4.79v2.7h6.51c4.18-.61,6.64-3.56,6.64-7.87,0-4.67-3.32-7.99-8.11-7.99h-5.16c.12.25.12,3.32.12,3.32ZM528.27,284.1h-3.69l5.78,8.97h3.93l-6.02-8.97h0ZM539.34,266.52h-3.69l10.57,15.24v11.31h3.2v-11.8l-10.08-14.75ZM550.4,279.92l9.22-13.28h-3.69l-7.25,10.69,1.72,2.58h0ZM401.29,288.53l8.97-22h-3.2l-7.38,18.19,1.6,3.81ZM390.47,266.52h-3.2l10.82,26.43h3.2l-10.82-26.43ZM409.16,274.14v18.81h3.2v-26.43h0l-3.2,7.62ZM385.31,266.52h0v26.43h2.95v-18.93l-2.95-7.5h0ZM710.69,288.53l6.64-16.35,2.34-5.65h-3.2l-7.38,18.19,1.6,3.81ZM718.56,274.14v18.81h3.2v-26.43h0l-3.2,7.62ZM699.75,266.52h-3.2l10.82,26.06.12.25h3.2l-10.94-26.31ZM694.71,266.52h0v26.43h2.95v-18.93l-2.95-7.5h0ZM732.33,266.52h-3.2l.25.49,10.57,25.69.12.25h3.2l-10.94-26.43h0ZM743.27,288.53l6.64-16.35,2.34-5.65h-3.2l-7.38,18.19,1.6,3.81ZM751.01,274.14v18.81h3.2v-26.43h0l-3.2,7.62ZM727.29,266.52h0v26.43h2.95v-18.93l-2.95-7.5h0ZM497.17,266.52h-6.64v2.95h6.64v-2.95ZM503.81,266.52v2.95h6.51v-2.95h-6.51ZM498.89,292.95h2.95v-26.43h-2.95v26.43ZM585.92,290.49c-5.16-.61-8.6-4.67-8.6-10.69s3.44-10.08,8.6-10.69v-2.83c-7.01.61-11.8,6.02-11.8,13.52s4.79,12.91,11.8,13.52v-2.83h0ZM587.77,266.28v2.95c5.29.25,8.97,4.55,8.97,10.69s-3.56,10.45-8.97,10.82v2.83c7.13-.25,12.29-5.78,12.29-13.52-.12-7.99-5.16-13.52-12.29-13.77h0ZM610.02,266.52v2.95h12.29v-2.95h-12.29ZM608.17,266.52h-2.95v26.43h2.95v-26.43ZM610.02,280.91h11.92v-2.95h-11.92v2.95ZM658.57,286.68l-.25.25c-1.6,2.09-3.93,3.44-6.64,3.44v2.95c3.69-.12,6.64-1.6,9.22-4.67l.25-.49s-2.58-1.48-2.58-1.48ZM651.81,268.98c2.58.12,5.29,1.48,6.64,3.44l.25.25,2.58-1.6-.25-.49c-2.34-2.95-5.41-4.43-9.1-4.67v2.95c0,.12-.12.12-.12.12ZM649.84,290.49c-5.29-.74-8.85-4.92-8.85-10.69s3.56-9.96,8.85-10.69v-2.95c-7.13.74-12.05,6.27-12.05,13.52s4.79,12.91,12.05,13.52c0,0,0-2.7,0-2.7ZM676.77,290.49c-5.16-.61-8.6-4.67-8.6-10.69s3.44-10.08,8.6-10.69v-2.83c-7.01.61-11.8,6.02-11.8,13.52s4.79,12.91,11.8,13.52v-2.83h0ZM678.73,266.28v2.95c5.29.25,8.97,4.55,8.97,10.69s-3.56,10.45-8.97,10.82v2.83c7.13-.25,12.29-5.78,12.29-13.52-.25-7.99-5.16-13.52-12.29-13.77h0ZM919.42,290.49c-5.16-.61-8.6-4.67-8.6-10.69s3.44-10.08,8.6-10.69v-2.83c-7.01.61-11.8,6.02-11.8,13.52s4.79,12.91,11.8,13.52v-2.83h0ZM921.14,266.28v2.95c5.29.25,8.97,4.55,8.97,10.69s-3.56,10.45-8.97,10.82v2.83c7.13-.25,12.29-5.78,12.29-13.52s-4.92-13.52-12.29-13.77h0ZM770.93,290.12c-4.18-.25-6.39-2.95-6.39-7.62v-16.1h-3.2v16.23c0,6.39,3.44,10.45,9.59,10.69v-3.2h0ZM779.04,266.52v16.1c0,4.55-2.34,7.25-6.27,7.62v2.95c6.02-.25,9.47-4.3,9.47-10.69v-16.23l-3.2.25h0ZM838.53,290.49c-5.29-.74-8.85-4.92-8.85-10.69s3.56-9.96,8.85-10.69v-2.95c-7.13.74-12.05,6.27-12.05,13.52s4.79,12.91,12.05,13.52c0,0,0-2.7,0-2.7ZM840.25,268.98c2.58.12,5.29,1.48,6.64,3.44l.25.25,2.58-1.6-.25-.49c-2.34-2.95-5.41-4.43-9.1-4.67v2.95c0,.12-.12.12-.12.12ZM847.26,286.68l-.25.25c-1.6,2.09-3.93,3.44-6.64,3.44v2.95c3.69-.12,6.64-1.6,9.22-4.67l.25-.49s-2.58-1.48-2.58-1.48ZM433.01,266.52h-3.81l18.68,26.43h3.93l-18.81-26.43ZM451.2,289.02v-22.5h-2.95v18.19l2.95,4.3ZM429.69,270.46v22.5h2.95v-18.19l-2.95-4.3ZM880.2,266.65h-6.64v2.95h6.64v-2.95ZM885.24,266.65h-3.2v26.43h2.95l.25-26.43h0ZM886.97,266.65v2.95h6.51v-2.95h-6.51ZM810.38,289.14v-22.62h-2.95v18.32l2.95,4.3ZM792.07,266.52h-3.69l18.68,26.43h3.93l-18.93-26.43h0ZM788.75,270.46v22.5h2.95v-18.19l-2.95-4.3ZM942.4,266.52h-3.69l18.68,26.43h3.93l-18.93-26.43h0ZM960.72,289.14v-22.62h-2.95v18.19l2.95,4.43ZM939.21,270.46v22.5h2.95v-18.19l-2.95-4.3ZM867.3,283h-6.27l-1.11,2.95h8.73l-1.35-2.95ZM866.68,268.49l-1.6,4.18,8.11,20.16h3.44l-9.96-24.34ZM865.7,266.52h-3.32l-10.57,25.81-.25.74h3.44l10.69-26.55h0Z"/>
  <path class="st0" d="M974.73,280.66v-3.44c-2.83-.86-4.79-1.72-4.79-3.93s2.09-3.93,4.79-4.3v-2.95c-4.79.25-8.11,3.2-8.11,7.13,0,5.16,4.18,6.39,8.11,7.5h0Z"/>
  <path class="st0" d="M976.33,269.1c2.34.25,4.43,1.11,5.65,2.95l.25.49,2.09-2.34-.12-.25c-1.84-2.09-4.67-3.44-7.87-3.69v2.83h0Z"/>
  <path class="st0" d="M974.73,290.49c-3.44-.25-5.65-2.34-6.64-3.44l-.25-.49-1.97,2.34.25.25c2.09,2.58,5.29,3.93,8.85,4.18v-2.83h-.25Z"/>
  <path class="st0" d="M976.33,277.83v3.44c2.95.98,5.29,1.97,5.29,4.67,0,2.09-1.48,4.43-5.29,4.55v2.95c6.27-.25,8.6-4.18,8.6-7.62.12-5.41-4.55-6.88-8.6-7.99Z"/>
  <rect class="st0" x="475.54" y="309.67" width="2.95" height="26.43"/>
  <rect class="st0" x="661.28" y="309.67" width="2.95" height="26.43"/>
  <polygon class="st0" points="966.25 309.67 962.56 309.67 973.14 324.79 973.14 336.1 976.09 336.1 976.09 324.3 966.25 309.67"/>
  <polygon class="st0" points="977.44 322.95 986.78 309.67 983.09 309.67 975.72 320.36 977.44 322.95"/>
  <polygon class="st0" points="590.84 309.67 587.77 309.67 587.89 310.16 598.46 335.85 598.59 336.1 601.78 336.1 590.84 309.67"/>
  <polygon class="st0" points="601.9 331.67 608.54 315.45 610.88 309.67 607.68 309.67 600.31 327.99 601.9 331.67"/>
  <polygon class="st0" points="585.92 309.67 585.92 309.67 585.92 336.1 588.87 336.1 588.87 317.17 585.92 309.67"/>
  <polygon class="st0" points="609.65 317.41 609.65 336.1 612.72 336.1 612.72 309.67 612.72 309.67 609.65 317.41"/>
  <rect class="st0" x="645.79" y="309.67" width="2.95" height="26.43"/>
  <rect class="st0" x="650.46" y="309.67" width="6.51" height="2.95"/>
  <rect class="st0" x="637.31" y="309.67" width="6.64" height="2.95"/>
  <path class="st0" d="M544.5,333.52c-5.16-.61-8.6-4.67-8.6-10.69s3.44-10.08,8.6-10.69v-2.83c-7.01.61-11.8,6.02-11.8,13.52s4.79,12.91,11.8,13.52v-2.83h0Z"/>
  <path class="st0" d="M546.34,309.3v2.95c5.29.25,8.97,4.55,8.97,10.69s-3.56,10.45-8.97,10.82v2.83c7.13-.25,12.29-5.78,12.29-13.52-.25-7.99-5.16-13.52-12.29-13.77h0Z"/>
  <path class="st0" d="M681.07,333.52c-5.16-.61-8.6-4.67-8.6-10.69s3.44-10.08,8.6-10.69v-2.83c-7.01.61-11.8,6.02-11.8,13.52s4.79,12.91,11.8,13.52v-2.83h0Z"/>
  <path class="st0" d="M682.91,309.3v2.95c5.29.25,8.97,4.55,8.97,10.69s-3.56,10.45-8.97,10.82v2.83c7.13-.25,12.29-5.78,12.29-13.52s-5.04-13.52-12.29-13.77h0Z"/>
  <rect class="st0" x="764.04" y="321.1" width="11.92" height="2.95"/>
  <rect class="st0" x="764.04" y="333.15" width="12.29" height="2.95"/>
  <polygon class="st0" points="398.59 311.76 396.87 315.94 404.86 336.1 408.42 336.1 398.59 311.76"/>
  <polygon class="st0" points="399.08 326.26 392.69 326.26 391.46 329.34 400.31 329.34 399.08 326.26"/>
  <polygon class="st0" points="397.48 309.67 394.16 309.67 383.59 335.48 383.47 336.1 386.91 336.1 397.48 309.67"/>
  <polygon class="st0" points="432.88 332.16 432.88 309.67 429.93 309.67 429.93 327.99 432.88 332.16"/>
  <polygon class="st0" points="414.57 309.67 410.88 309.67 429.44 336.1 433.5 336.1 414.57 309.67"/>
  <polygon class="st0" points="411.37 313.6 411.37 336.1 414.57 336.1 414.57 317.78 411.37 313.6"/>
  <polygon class="st0" points="699.87 313.73 699.87 336.1 702.95 336.1 702.95 318.03 699.87 313.73"/>
  <polygon class="st0" points="721.51 332.41 721.51 309.67 718.44 309.67 718.44 327.99 721.51 332.41"/>
  <polygon class="st0" points="717.94 336.1 722 336.1 702.95 309.67 699.38 309.67 717.82 335.98 717.94 336.1"/>
  <polygon class="st0" points="856.6 332.16 856.6 309.67 853.28 309.67 853.28 327.99 856.6 332.16"/>
  <polygon class="st0" points="838.04 309.67 834.35 309.67 852.92 336.1 856.97 336.1 838.04 309.67"/>
  <polygon class="st0" points="834.97 313.73 834.97 336.1 837.92 336.1 837.92 318.03 834.97 313.73"/>
  <polygon class="st0" points="506.02 332.16 506.02 309.67 502.95 309.67 502.95 327.99 506.02 332.16"/>
  <polygon class="st0" points="484.51 313.73 484.51 336.1 487.46 336.1 487.46 318.03 484.51 313.73"/>
  <polygon class="st0" points="502.58 336.1 506.64 336.1 487.71 309.67 483.77 309.67 502.46 335.98 502.58 336.1"/>
  <rect class="st0" x="438.91" y="309.67" width="2.95" height="26.43"/>
  <path class="st0" d="M447.63,309.67h-3.69v2.95h3.69c6.15,0,10.08,3.93,10.08,10.08s-3.93,10.57-10.08,10.57h-3.69v2.95h3.69c7.99,0,13.4-5.41,13.4-13.52-.12-7.74-5.41-13.03-13.4-13.03Z"/>
  <rect class="st0" x="511.92" y="309.67" width="2.95" height="26.43"/>
  <rect class="st0" x="516.84" y="309.67" width="12.29" height="2.95"/>
  <rect class="st0" x="516.84" y="321.1" width="11.92" height="2.95"/>
  <path class="st0" d="M567.49,312.62h4.79c3.2,0,5.29,2.09,5.29,4.92s-2.09,4.92-5.29,4.92h-4.79v2.7h6.51c4.18-.61,6.64-3.56,6.64-7.87,0-4.67-3.32-7.99-8.11-7.99h-5.16c.12.12.12,3.32.12,3.32Z"/>
  <polygon class="st0" points="575.35 327.13 571.66 327.13 577.69 336.1 581.5 336.1 575.35 327.13"/>
  <rect class="st0" x="562.69" y="309.67" width="2.95" height="26.43"/>
  <polygon class="st0" points="631.9 326.26 625.63 326.26 624.28 329.34 633 329.34 631.9 326.26"/>
  <polygon class="st0" points="631.41 311.76 629.81 315.82 637.8 336.1 641.12 336.1 631.41 311.76"/>
  <polygon class="st0" points="630.18 309.67 627.1 309.67 616.53 335.48 615.92 336.1 619.61 336.1 630.18 309.67"/>
  <polygon class="st0" points="824.03 323.93 824.03 321.1 810.51 321.1 810.51 309.67 807.56 309.67 807.56 323.93 824.03 323.93"/>
  <rect class="st0" x="807.56" y="325.77" width="2.95" height="10.45"/>
  <path class="st0" d="M951.13,312.25c2.7.12,5.29,1.48,6.64,3.44l.25.25,2.58-1.6-.25-.49c-2.34-2.95-5.53-4.55-9.22-4.67v3.07h0Z"/>
  <polygon class="st0" points="949.29 324.91 960.84 324.91 960.84 324.91 960.84 322.33 949.29 322.33 949.29 324.91"/>
  <path class="st0" d="M957.89,326.76v3.93c-1.48,1.6-3.93,2.7-6.64,2.83v2.95c3.93-.12,7.13-1.6,9.59-4.3l.12-.12v-5.29h-3.07Z"/>
  <path class="st0" d="M949.29,333.52c-5.29-.74-8.73-4.92-8.73-10.69s3.56-9.96,8.73-10.69v-2.95c-7.13.74-11.92,6.27-11.92,13.52s4.79,12.78,11.92,13.52c0,0,0-2.7,0-2.7Z"/>
  <rect class="st0" x="896.68" y="333.15" width="10.57" height="2.95"/>
  <rect class="st0" x="743.64" y="309.67" width="2.95" height="26.43"/>
  <rect class="st0" x="748.43" y="309.67" width="6.51" height="2.95"/>
  <rect class="st0" x="735.4" y="309.67" width="6.64" height="2.95"/>
  <rect class="st0" x="759.25" y="309.67" width="2.95" height="26.43"/>
  <rect class="st0" x="764.04" y="321.1" width="11.92" height="2.95"/>
  <rect class="st0" x="764.04" y="309.67" width="11.92" height="2.95"/>
  <rect class="st0" x="825.87" y="309.67" width="2.95" height="26.43"/>
  <rect class="st0" x="891.64" y="309.67" width="2.95" height="26.43"/>
  <path class="st0" d="M919.42,333.52c-5.16-.61-8.6-4.67-8.6-10.69s3.44-10.08,8.6-10.69v-2.83c-7.01.61-11.8,6.02-11.8,13.52s4.79,12.91,11.8,13.52v-2.83h0Z"/>
  <path class="st0" d="M921.14,309.3v2.95c5.29.25,8.97,4.55,8.97,10.69s-3.56,10.45-8.97,10.82v2.83c7.13-.25,12.29-5.78,12.29-13.52s-5.04-13.52-12.29-13.77h0Z"/>
  <path class="st0" d="M873.08,333.52c-5.16-.61-8.6-4.67-8.6-10.69s3.44-10.08,8.6-10.69v-2.83c-7.01.61-11.8,6.02-11.8,13.52s4.79,12.91,11.8,13.52v-2.83h0Z"/>
  <path class="st0" d="M874.92,309.3v2.95c5.29.25,8.97,4.55,8.97,10.69s-3.56,10.45-8.97,10.82v2.83c7.13-.25,12.29-5.78,12.29-13.52-.12-7.99-5.16-13.52-12.29-13.77h0Z"/>
  <path class="st0" d="M792.44,333.52c-5.29-.74-8.85-4.92-8.85-10.69s3.56-9.96,8.85-10.69v-2.95c-7.13.74-12.05,6.27-12.05,13.52s4.79,12.91,12.05,13.52c0,0,0-2.7,0-2.7Z"/>
  <path class="st0" d="M794.16,312.25c2.58.12,5.29,1.48,6.64,3.44l.25.25,2.58-1.6-.25-.49c-2.34-2.95-5.41-4.43-9.1-4.67v2.95c0,.12-.12.12-.12.12Z"/>
  <path class="st0" d="M801.04,329.83l-.25.25c-1.6,2.09-3.93,3.44-6.64,3.44v2.95c3.69-.12,6.64-1.6,9.22-4.67l.25-.49-2.58-1.48Z"/>
  <path class="st0" d="M701.96,179.49c.86,1.11,1.11,2.46,1.11,4.43v6.27h2.95v-6.64c0-2.46-.74-4.55-1.97-6.02-1.72-2.09-3.69-2.83-6.51-2.83h-13.52v2.95h13.89c1.72,0,3.2.86,4.06,1.84h0ZM804.85,171.87h-2.95v18.56h2.95v-18.56ZM871.85,215.02h-2.95v18.32h2.95v-18.32ZM800.92,165.36h-3.2v4.43h3.2v-4.43ZM848.74,165.23h-2.95v29.99h2.95v-29.99ZM822.68,195.23c3.93,0,7.13-.86,9.47-2.7,2.46-1.72,3.2-4.92,3.2-7.13v-20.04h-2.95v19.67c0,2.58-.74,4.3-2.34,5.41-1.6,1.11-3.69,1.72-6.15,1.72h-11.92l.25,2.95,10.45.12h0ZM822.8,169.54h-2.95v20.65h2.95v-20.65ZM434.36,169.54h-2.95v20.65h2.95v-20.65ZM657.34,220.92l.25-.49-.25-.25c-.61-.49-1.11-.86-1.72-1.35l-.25-.25-6.15,14.87h3.32l4.79-12.54h0ZM682.54,171.75h-2.95v18.56h2.95v-18.56ZM634.36,218.83c-.74.49-1.11.98-1.72,1.48l-.25.25,5.16,12.91h3.44l-6.15-14.87-.49.25h0ZM616.66,233.46v-24.83h-2.95v24.58h2.95v.25h0ZM652.3,220.55l1.11-2.83c-2.95-1.6-5.78-2.58-8.6-2.58s-5.65.98-8.6,2.58l1.11,2.83c2.46-1.6,4.79-2.46,7.38-2.46,2.7.12,5.53,1.11,7.62,2.46h0ZM777.81,213.05v-4.43h-3.2v4.43h3.2ZM460.54,165.23h-2.95v24.95h2.95v-24.95ZM804.85,192.03h-347.38v2.95h347.38v-2.95h0ZM808.42,165.36h-3.2v4.43h3.2v-4.43ZM929.37,233.46h2.95v-18.32h-2.95v18.32ZM932.32,208.5h-3.2v4.43h3.2v-4.43ZM953.22,213.05v-4.43h-3.2v4.43h3.2ZM937.86,165.23h-2.95v29.99h2.95v-29.99ZM949.66,202.6c5.29,0,6.02-4.18,6.02-7.87v-22.99h-2.95v22.99c0,2.83-.49,4.67-2.7,4.67-.49,0-.86-.12-1.35-.25l-.61-.25-1.11,2.83.61.25c.49.49,1.35.61,2.09.61ZM979.65,195.23h0l.12-2.95h-1.11c-7.62,0-10.08-4.67-10.08-8.6,0-5.29,5.29-8.6,10.08-8.6h1.11v-2.95h-.12c-8.73,0-14.38,4.55-14.38,11.68s5.29,11.43,14.38,11.43ZM955.68,165.48h-3.2v4.43h3.2v-4.43ZM900,195.23h0l.12-2.95h-1.35c-5.78,0-9.96-3.44-9.96-8.6s5.16-8.6,9.96-8.6h1.35v-2.95h-.12c-8.48,0-14.14,4.79-14.14,11.68.12,5.41,3.81,11.43,14.14,11.43ZM916.59,202.6c5.29,0,6.02-4.18,6.02-7.87v-22.99h-2.95v22.99c0,2.83-.49,4.67-2.7,4.67-.49,0-.86-.12-1.35-.25l-.61-.25-1.11,2.83.61.25c.49.49,1.35.61,2.09.61ZM905.04,195.23v-23.36h-2.95v23.36h2.95ZM895.82,233.46v-18.32h-2.95v18.32h2.95ZM897.54,165.48h-3.2v4.43h3.2v-4.43ZM905.04,165.48h-3.07v4.43h3.2v-4.43h-.12ZM921.75,213.17h3.2v-4.43h-3.2v4.43ZM918.93,233.58c-1.6-1.6-3.2-3.69-3.2-6.64,0-5.53,4.92-8.6,9.83-8.6h2.09v-2.95h-.98c-8.6,0-14.14,4.43-14.14,11.68,0,2.58.74,4.79,2.09,6.64l4.3-.12h0ZM895.82,208.63h-3.2v4.43h3.2v-4.43ZM766.38,226.7c0,5.65,3.69,11.68,14.14,11.68h.12v-2.95h-1.11c-5.78,0-9.96-3.44-9.96-8.6s5.16-8.6,9.96-8.6h1.11v-2.95h-.12c-8.24-.25-14.14,4.67-14.14,11.43ZM864.59,245.99h3.2v-4.43h-3.2v4.43ZM724.83,238.37h2.95v-29.62h-2.95v29.62ZM782.36,213.17h3.2v-4.43h-3.2v4.43ZM782.36,238.37h2.95v-23.23h-2.95v23.23ZM693.48,235.42c.12-.25.25-.61.25-.86,0-.12.12-.25.12-.25l.12-.25c.12-.25.25-.49.25-.74.25-1.11.61-2.46.61-3.69,0-2.46-.74-4.67-1.72-6.64-1.11-1.97-2.95-3.56-5.16-4.55-1.48-.74-2.95-.98-4.55-1.11v2.95c4.79.61,8.48,4.3,8.48,9.47s-3.44,8.73-8.48,9.22v2.95c1.72-.12,3.44-.61,4.79-1.35h.12s.12-.12.25-.12l.25-.12c.25-.12.49-.25.74-.49l.25-.12c.25-.25.61-.25.74-.61.25-.12.25-.25.61-.49l.12-.12.25-.25c.74-.74,1.35-1.6,1.84-2.46l.12-.37h0ZM711.31,233.58h2.95v-24.83h-2.95v24.83ZM695.2,235.55c-.49.74-.74,1.6-1.35,2.09l-.49.74h20.9v-2.95h-19.05v.12h0ZM981.49,238.13v.25s-.12.25-.12.49c-.25,2.58-2.09,4.18-5.53,4.18-2.09,0-3.81-.86-5.65-1.84l-.61-.25-1.48,2.7.61.25c2.09,1.11,4.18,2.09,7.01,2.09,5.41,0,8.97-2.95,8.97-7.74v-22.99h-3.2v22.86h0ZM979.65,238.37h0l.12-2.95h-1.11c-7.62,0-10.08-4.55-10.08-8.6,0-5.29,5.29-8.6,10.08-8.6h1.11v-2.95h-.12c-8.73,0-14.38,4.55-14.38,11.68s5.29,11.43,14.38,11.43ZM872.21,245.99h3.2v-4.43h-3.2v4.43ZM981.49,171.87v23.48h-.12c-.25,2.58-2.09,4.18-5.53,4.18-2.09,0-3.81-.86-5.65-1.84l-.61-.25-1.48,2.7.61.25c2.09,1.11,4.18,2.09,7.01,2.09,5.41,0,8.97-2.95,8.97-7.87v-22.99l-3.2.25h0ZM787.15,238.37h170v-2.95h-170v2.95ZM957.65,213.17h3.2v-4.43h-3.2v4.43ZM954.21,233.58h2.95v-18.32h-2.95v18.32ZM403.75,208.63v4.43h3.2v-4.43h-3.2ZM390.6,190.43c-1.6-1.11-2.34-2.83-2.34-5.41v-8.97h-2.95v9.47c0,2.09.86,5.41,3.2,7.13,2.58,1.97,4.92,2.7,9.47,2.7h20.65v-2.95h-22c-2.34-.25-4.43-.86-6.02-1.97h0ZM406.82,165.48h-3.2v4.43h3.2v-4.43ZM415.43,233.58h2.95v-18.32h-2.95v18.32ZM415.55,190.43h2.95v-18.56h-2.95v18.56ZM399.32,165.48h-3.32v4.43h3.2v-4.43h.12ZM399.32,208.63h-3.32v4.43h3.2v-4.43h.12ZM443.58,192.52c2.46-1.72,3.2-4.92,3.2-7.13v-20.04h-2.95v19.67c0,2.58-.74,4.3-2.34,5.41-1.35.98-3.32,1.6-5.41,1.72h-12.66l.25,2.95h10.45c4.06.12,7.13-.74,9.47-2.58h0ZM390.6,233.58c-1.6-1.11-2.34-2.83-2.34-5.41v-8.97h-2.95v9.47c0,2.09.86,5.29,3.2,7.13,2.58,1.97,4.92,2.7,9.47,2.7h20.53v-2.95h-21.76c-2.46-.12-4.55-.74-6.15-1.97h0ZM557.41,238.37h0l.12-2.95h-1.35c-7.62,0-10.08-4.55-10.08-8.6,0-5.29,5.29-8.6,10.08-8.6h1.35v-2.95h-.12c-8.73,0-14.38,4.55-14.38,11.68s5.41,11.43,14.38,11.43ZM559.37,238.13v.49c-.25,2.7-2.34,4.3-5.65,4.3-2.09,0-3.81-.86-5.65-1.84l-.61-.25-1.48,2.7.61.25c2.09,1.11,4.18,2.09,7.01,2.09,4.43,0,8.97-.74,8.97-6.02v-24.58h-2.95l-.25,22.86h0ZM429.93,233.46v-24.83h-2.95v24.58h2.95v.25h0ZM671.73,223.87h0c-.86,1.84-1.35,3.81-1.35,5.78,0,6.64,4.92,11.92,11.43,12.29v-3.2c-4.67-.25-8.48-4.43-8.48-9.22s3.56-8.97,8.48-9.47v-2.95c-.86,0-1.84.12-2.58.49-3.32.86-6.02,3.07-7.5,6.27ZM669.88,235.55l-.12-.25h-105.59v2.95h107.56l-.61-.74c-.25-.49-.61-1.11-1.23-1.97h0ZM513.52,235.55l-.12-.25h-86.66v2.95h88.63l-.49-.74c-.37-.49-.74-1.35-1.35-1.97h0ZM531.71,218.21c-1.48-.74-2.95-.98-4.55-1.11v2.95c4.79.61,8.48,4.3,8.48,9.47s-3.44,8.73-8.48,9.22v2.95c1.72-.12,3.44-.61,4.79-1.35h.12s.12-.12.25-.12l.12-.12c.25-.12.61-.25.74-.49,0,0,.12-.12.25-.12.25-.25.61-.25.74-.61.25-.12.25-.25.74-.61l.25-.25c.74-.74,1.35-1.6,1.84-2.46l.25-.74h0c.12-.25.25-.61.25-.86,0-.12.12-.25.12-.25l.12-.12c.12-.25.25-.49.25-.74.25-1.11.61-2.46.61-3.69,0-2.46-.74-4.67-1.72-6.64-1.23-1.6-2.95-3.2-5.16-4.3h0ZM515.37,223.87h0c-.86,1.84-1.35,3.81-1.35,5.78,0,6.64,4.92,11.92,11.43,12.29v-3.2c-4.67-.25-8.48-4.43-8.48-9.22s3.56-8.97,8.48-9.47v-2.95c-.86,0-1.84.12-2.58.49-3.2.86-6.02,3.07-7.5,6.27Z"/>
</svg>