<?xml version="1.0" encoding="UTF-8"?>
<svg id="Layer_1" xmlns="http://www.w3.org/2000/svg" version="1.1" viewBox="0 0 1000 392.9">
  <!-- Generator: Adobe Illustrator 30.3.0, SVG Export Plug-In . SVG Version: 2.1.3 Build 182)  -->
  <defs>
    <style>
      .st0 {
        fill: #fff;
      }
    </style>
  </defs>
  <path class="st0" d="M975.05,213.38c-.37.37-.87.74-1.49.74-4.71,0-9.3.12-14.02.62-5.71.5-11.41,1.36-16.99,2.48-13.77,2.73-27.04,7.32-39.81,13.27-1.86.87-3.6,1.74-5.46,2.6-.25.12-.5.12-.5.37s.12.37.37.5c6.7,4.71,12.9,10.05,19.23,15.26,2.36,1.98,4.84,3.85,7.19,5.83.62.62,1.24.74,2.11.37,4.47-1.49,9.18,1.12,9.92,5.83.5,2.98-.37,5.46-2.73,7.32-2.23,1.86-4.84,2.11-7.69,1.12-.74-.37-1.49-.74-2.11-1.36-6.2-4.96-12.4-9.8-18.48-14.76-5.95-4.84-12.16-9.05-18.73-13.02-.74-.5-1.24-.25-1.86.12-7.57,4.71-14.76,9.8-21.58,15.38-5.09,4.22-10.29,8.31-15.5,12.4-1.86,1.49-3.97,1.98-6.33,1.74-1.74-.5-3.35-1.36-4.59-2.85-2.11-2.6-2.23-6.2-.37-9.05,1.86-2.73,5.33-3.97,8.43-2.98,1.12.37,1.86.12,2.73-.5,4.84-4.09,9.8-8.06,14.64-12.03,3.47-2.85,6.95-5.58,10.67-8.19.37-.25.87-.5,1.12-.87-.25-.37-.62-.5-.99-.62-13.89-7.07-28.53-12.28-43.91-15.5-5.83-1.24-11.78-2.11-17.74-2.73-4.71-.5-9.43-.62-14.26-.62-.74,0-1.24-.37-1.36-.99-.12-.74.25-1.12.87-1.36,2.6-.87,5.21-1.61,7.94-2.23,7.81-1.74,15.63-2.36,23.69-1.98,12.16.62,23.94,3.22,35.35,7.69,7.32,2.85,14.26,6.2,20.96,10.17.87.5,1.36.37,2.11,0,10.67-6.33,21.95-11.29,33.99-14.39,10.05-2.6,20.22-3.85,30.64-3.47,7.69.37,15.26,1.61,22.57,3.97.62.25,1.36.37,1.74.99.25.25.25.5.25.74h0Z"/>
  <path class="st0" d="M856.84,87.24h5.33c3.85.37,7.57,1.61,11.16,2.98s7.07,2.6,10.54,3.97c.87.37,1.61.25,2.48,0,4.09-1.61,8.06-3.1,12.16-4.59,3.1-1.12,6.33-1.98,9.55-2.36h5.33c15.01,1.61,27.66,9.92,33.24,19.6-9.55-2.36-19.1-3.1-28.9-1.98.37.62.87.87,1.36,1.12,6.82,4.84,12.16,10.91,15.88,18.48,2.48,4.96,3.97,10.17,4.22,15.75,0,.62.25,1.36-.12,2.23-4.47-4.84-9.43-9.05-14.88-12.53s-11.16-6.33-17.49-8.56c.87,1.49,1.49,2.73,2.23,3.97,4.34,8.06,6.45,16.62,6.2,25.8-.25,6.7-1.74,13.02-5.09,18.85-.25.37-.37.74-.62,1.12,0,.12-.12.12-.37.25-2.11-15.38-8.31-28.65-19.35-39.69-.5.12-.25.5-.25.74.12,5.83.37,11.66.5,17.49.12,2.6.12,5.21.12,7.81.12,5.83.37,11.54.5,17.36.12,4.71.12,9.43.37,14.14.12,4.34,0,8.68.99,12.9.62,2.98,1.61,5.71,2.73,8.43.33.66.17,1.2-.5,1.61-2.73,1.61-5.58,3.22-8.31,4.84-.62.37-1.12.37-1.74,0-2.73-1.61-5.58-3.22-8.31-4.84-.87-.5-.99-.62-.5-1.49,2.11-4.59,3.35-9.3,3.85-14.39.12-1.36.12-2.73.12-4.09v-8.06c0-16.87,0-33.61.12-50.48v-1.74c-5.33,3.97-17.12,19.35-19.47,39.19-.5,0-.5-.37-.62-.62-2.98-5.09-4.71-10.54-5.21-16.37-.99-10.79,1.61-20.84,6.82-30.26.37-.74.87-1.49,1.24-2.23-4.84.87-20.71,8.19-32.12,20.84-.12-1.61,0-2.98.12-4.34,1.12-9.8,5.46-18.11,12.03-25.3,2.6-2.85,5.58-5.33,8.68-7.44.25-.12.37-.37.87-.62-4.96-.5-9.55-.62-14.26-.25s-9.18,1.12-13.89,2.36c.12-.74.62-1.12.87-1.61,3.1-4.47,6.95-8.06,11.54-10.91,6.33-3.97,13.27-6.33,20.84-7.07h0Z"/>
  <g>
    <path class="st0" d="M40.21,147.52s13.02,12.4,10.79,16.62c-.5.87-3.1.87-5.95.87h-11.78c-2.11,0-6.82-.62-6.82-6.08.62-7.57,13.77-11.41,13.77-11.41ZM37.11,140.57c0,1.61-1.36,3.1-3.1,3.1s-2.98-1.36-2.98-3.1,1.36-3.1,2.98-3.1c1.74,0,3.1,1.36,3.1,3.1ZM38.22,157.69c0-1.49-1.12-2.6-2.6-2.6s-2.6,1.12-2.6,2.6,1.12,2.6,2.6,2.6,2.6-1.12,2.6-2.6ZM44.92,140.57c0,1.61-1.36,3.1-3.1,3.1s-3.1-1.36-3.1-3.1,1.36-3.1,3.1-3.1,3.1,1.36,3.1,3.1Z"/>
    <path class="st0" d="M63.65,151.86l6.08-2.48v16.12c-.12,4.84-2.85,8.31-7.07,8.31h-9.43l3.1-5.71h5.71c2.23,0,2.23-2.73,2.23-2.73,0-.87-.5-13.52-.62-13.52Z"/>
    <path class="st0" d="M87.09,148.14s11.91,11.29,11.91,16.12v.5c-1.12,5.33-4.47,8.93-9.18,8.93h-17.49l3.1-5.71h15.75c1.49,0,2.11-1.74,2.11-2.6,0-.12,0-.37-.12-.37h-11.78c-2.11,0-6.82-.62-6.82-6.08.5-7.57,12.53-10.79,12.53-10.79h0ZM86.22,157.69c0-1.49-1.12-2.6-2.6-2.6s-2.6,1.12-2.6,2.6,1.12,2.6,2.6,2.6,2.6-1.12,2.6-2.6Z"/>
    <path class="st0" d="M115.99,159.3v5.71h-16.74v-5.71h8.31l-.37-6.7,5.95-3.35v10.17h2.85v-.12ZM108.18,143.3c0,1.61-1.36,3.1-3.1,3.1s-2.98-1.36-2.98-3.1,1.36-3.1,2.98-3.1c1.74.12,3.1,1.49,3.1,3.1Z"/>
    <path class="st0" d="M144.27,165h-7.32c-2.11.99-5.33,1.24-8.43,1.24-3.35,0-6.7-.5-8.68-1.24h-5.83v-5.71h4.34c.62-2.73,2.73-10.42,10.54-10.54,4.71,0,9.05,5.21,10.29,10.42h5.09v5.83h0ZM130.13,157.81c0-1.49-1.12-2.6-2.6-2.6s-2.6,1.12-2.6,2.6,1.12,2.73,2.6,2.73,2.6-1.24,2.6-2.73Z"/>
    <path class="st0" d="M151.84,131.02v33.99h-13.27v-5.71h7.69l-.25-25.67,5.83-2.6h0Z"/>
    <path class="st0" d="M157.17,156.94l-.5-23.44,5.95-2.48v25.92c0,3.35,1.74,4.84,2.73,5.58-.5.5-2.11,2.73-3.1,3.72-5.21-.87-5.09-7.19-5.09-9.3Z"/>
    <path class="st0" d="M200.09,159.3v5.71h-20.34c-2.23-.74-3.97-3.47-3.97-6.95,0-5.58,3.85-8.81,10.05-8.81,1.36,0,3.1.25,4.96.62l-.12-3.22,5.83-3.35v16.12h3.6v-.12h0ZM179.99,138.96c0-1.74,1.36-3.1,3.1-3.1,1.61,0,3.1,1.36,3.1,3.1s-1.36,2.98-3.1,2.98-3.1-1.36-3.1-2.98ZM191.03,157.07c0-1.49-1.24-2.73-2.73-2.73s-2.73,1.24-2.73,2.73,1.24,2.73,2.73,2.73,2.73-1.12,2.73-2.73ZM187.81,138.96c0-1.74,1.36-3.1,3.1-3.1s3.1,1.36,3.1,3.1-1.36,2.98-3.1,2.98-3.1-1.36-3.1-2.98Z"/>
    <path class="st0" d="M214.97,159.3v5.71h-16.74v-5.71h8.31l-.37-6.7,5.95-3.35v10.17h2.85v-.12ZM207.16,143.3c0,1.61-1.36,3.1-3.1,3.1s-2.98-1.36-2.98-3.1,1.36-3.1,2.98-3.1c1.86.12,3.1,1.49,3.1,3.1Z"/>
    <path class="st0" d="M231.47,165h-18.85v-5.71h13.27l-.37-6.7,5.95-3.35v15.75ZM221.67,171.58c0,1.74-1.36,3.1-3.1,3.1s-2.98-1.36-2.98-3.1c0-1.61,1.36-3.1,2.98-3.1,1.74.12,3.1,1.49,3.1,3.1ZM229.48,171.58c0,1.74-1.36,3.1-3.1,3.1s-3.1-1.36-3.1-3.1c0-1.61,1.36-3.1,3.1-3.1,1.74.12,3.1,1.49,3.1,3.1Z"/>
    <path class="st0" d="M271.53,159.3h3.85v5.71h-40.68l3.22-5.71h27.41c-.25-.62-.99-3.47-3.6-3.47h-21.95l3.1-5.71h19.35c2.73,0,5.58,1.24,7.32,5.09.74,1.49,1.36,2.85,1.98,4.09h0Z"/>
    <path class="st0" d="M302.54,165h-7.32c-2.11.99-5.33,1.24-8.43,1.24-3.35,0-6.7-.5-8.68-1.24h-5.83v-5.71h4.34c.62-2.73,2.73-10.42,10.54-10.54,4.71,0,9.05,5.21,10.29,10.42h5.09v5.83h0ZM288.4,157.81c0-1.49-1.12-2.6-2.6-2.6s-2.6,1.12-2.6,2.6,1.12,2.73,2.6,2.73,2.6-1.24,2.6-2.73Z"/>
    <path class="st0" d="M310.23,131.02v33.99h-13.27v-5.71h7.69l-.25-25.67,5.83-2.6h0Z"/>
    <path class="st0" d="M315.44,156.94l-.5-23.44,5.95-2.48v25.92c0,3.35,1.74,4.84,2.73,5.58-.5.5-2.11,2.73-3.1,3.72-5.21-.87-5.09-7.19-5.09-9.3Z"/>
    <path class="st0" d="M358.35,159.3v5.71h-20.34c-2.23-.74-3.97-3.47-3.97-6.95,0-5.58,3.85-8.81,10.05-8.81,1.36,0,3.1.25,4.96.62l-.12-3.22,5.83-3.35v16.12h3.6v-.12h0ZM338.26,138.96c0-1.74,1.36-3.1,3.1-3.1s3.1,1.36,3.1,3.1-1.36,2.98-3.1,2.98-3.1-1.36-3.1-2.98ZM349.42,157.07c0-1.49-1.24-2.73-2.73-2.73s-2.73,1.24-2.73,2.73,1.24,2.73,2.73,2.73,2.73-1.12,2.73-2.73ZM346.07,138.96c0-1.74,1.36-3.1,3.1-3.1s3.1,1.36,3.1,3.1-1.36,2.98-3.1,2.98-3.1-1.36-3.1-2.98Z"/>
    <path class="st0" d="M389.49,159.3v5.71h-36.84v-5.71h23.94c.87,0,1.61-1.12,1.61-1.86,0-.5-.37-.99-1.12-.99h-11.04c-1.61,0-6.08-1.12-6.08-5.58,0-4.09,3.35-8.06,6.95-9.8,2.23-1.12,6.2-1.36,6.2-1.36,0,0,10.79,8.43,10.79,17.61,0,.62-.12,1.36-.37,1.86h5.95v.12ZM368.15,133.62c0,1.61-1.36,2.98-3.1,2.98s-2.98-1.36-2.98-2.98c0-1.74,1.36-3.1,2.98-3.1,1.74,0,3.1,1.36,3.1,3.1ZM371.13,148.63c0-1.49-1.12-2.73-2.73-2.73-1.49,0-2.6,1.24-2.6,2.73s1.12,2.6,2.6,2.6c1.61.12,2.73-1.12,2.73-2.6ZM375.97,133.62c0,1.61-1.36,2.98-3.1,2.98s-3.1-1.36-3.1-2.98c0-1.74,1.36-3.1,3.1-3.1s3.1,1.36,3.1,3.1Z"/>
    <path class="st0" d="M438.73,165h-54.08v-5.71h6.33v-25.67l5.95-2.6v18.98h30.14l6.45,9.3h5.21v5.71ZM426.32,159.3l-2.6-3.6h-26.92v3.6h29.52Z"/>
    <path class="st0" d="M451.75,159.3v5.71h-16.74v-5.71h8.43l-.37-6.7,5.95-3.35v10.17h2.73v-.12ZM443.94,143.3c0,1.61-1.36,3.1-3.1,3.1-1.61,0-2.98-1.36-2.98-3.1s1.36-3.1,2.98-3.1c1.74.12,3.1,1.49,3.1,3.1Z"/>
    <path class="st0" d="M475.44,161.78c0,3.22-5.33,4.47-11.16,4.47-3.35,0-6.7-.5-8.56-1.24h-6.33v-5.71h4.84c.62-2.73,2.73-10.42,10.67-10.54,3.97,0,7.81,3.85,9.67,8.31.5,1.36.87,3.35.87,4.71ZM466.14,157.81c0-1.49-1.12-2.6-2.6-2.6s-2.73,1.12-2.73,2.6,1.24,2.73,2.73,2.73,2.6-1.24,2.6-2.73Z"/>
    <path class="st0" d="M508.19,159.3v5.71h-5.46v.37c-.12,4.84-2.85,8.31-7.07,8.31h-9.43l3.1-5.71h5.71c2.23,0,2.23-2.73,2.23-2.73,0-.99-.5-13.4-.62-13.4l5.95-2.6v10.05h5.58Z"/>
    <path class="st0" d="M521.71,165h-18.85v-5.71h13.27l-.37-6.7,5.95-3.35v15.75ZM511.91,171.58c0,1.74-1.36,3.1-3.1,3.1-1.61,0-2.98-1.36-2.98-3.1,0-1.61,1.36-3.1,2.98-3.1,1.86.12,3.1,1.49,3.1,3.1ZM519.85,171.58c0,1.74-1.36,3.1-3.1,3.1s-3.1-1.36-3.1-3.1c0-1.61,1.36-3.1,3.1-3.1,1.74.12,3.1,1.49,3.1,3.1Z"/>
    <path class="st0" d="M539.81,148.14s11.91,11.29,11.91,16.12v.5c-1.12,5.33-4.47,8.93-9.18,8.93h-17.49l3.1-5.71h15.75c1.49,0,2.11-1.74,2.11-2.6,0-.12,0-.37-.12-.37h-11.78c-2.11,0-6.82-.62-6.82-6.08.62-7.57,12.53-10.79,12.53-10.79h0ZM539.07,157.69c0-1.49-1.12-2.6-2.6-2.6s-2.6,1.12-2.6,2.6,1.12,2.6,2.6,2.6,2.6-1.12,2.6-2.6Z"/>
    <path class="st0" d="M605.68,165h-54.08v-5.71h6.33v-25.67l5.95-2.6v18.98h30.14l6.45,9.3h5.21v5.71ZM593.27,159.3l-2.6-3.6h-26.92v3.6h29.52Z"/>
    <path class="st0" d="M619.69,165h-18.85v-5.71h13.27l-.37-6.7,5.95-3.35v15.75ZM611.88,143.3c0,1.61-1.36,3.1-3.1,3.1s-2.98-1.36-2.98-3.1,1.36-3.1,2.98-3.1c1.74.12,3.1,1.49,3.1,3.1ZM619.69,143.3c0,1.61-1.36,3.1-3.1,3.1s-3.1-1.36-3.1-3.1,1.36-3.1,3.1-3.1c1.74.12,3.1,1.49,3.1,3.1Z"/>
    <path class="st0" d="M656.28,159.3v5.71h-20.34c-2.23-.74-3.97-3.47-3.97-6.95,0-5.58,3.85-8.81,10.05-8.81,1.36,0,3.1.25,4.96.62l-.12-3.22,5.83-3.35v16.12h3.6v-.12h0ZM636.06,138.96c0-1.74,1.36-3.1,3.1-3.1s3.1,1.36,3.1,3.1-1.36,2.98-3.1,2.98-3.1-1.36-3.1-2.98ZM647.23,157.07c0-1.49-1.24-2.73-2.73-2.73s-2.73,1.24-2.73,2.73,1.24,2.73,2.73,2.73,2.73-1.12,2.73-2.73ZM643.88,138.96c0-1.74,1.36-3.1,3.1-3.1s3.1,1.36,3.1,3.1-1.36,2.98-3.1,2.98-3.1-1.36-3.1-2.98Z"/>
    <path class="st0" d="M669.93,159.3h4.47v5.71h-20.59v-5.71h10.79l-.37-4.96,5.71-3.35v8.31ZM669.31,149.25h-11.29v-2.85h2.73c-.12-.37-.37-1.24-.37-1.74,0-2.98,2.73-4.59,4.34-4.59,1.36,0,2.6.37,2.98.62l-.99,1.24h-.25c-1.24,0-2.23.99-2.23,2.23,0,1.12.74,2.23,2.23,2.23h2.73l.12,2.85h0Z"/>
    <path class="st0" d="M692.25,159.3v5.71h-21.58v-5.71h13.27l-.37-6.7,5.95-3.35v10.17h2.73v-.12ZM679.72,171.58c0,1.74-1.36,3.1-3.1,3.1-1.61,0-3.1-1.36-3.1-3.1,0-1.61,1.36-3.1,3.1-3.1,1.74.12,3.1,1.49,3.1,3.1ZM687.54,171.58c0,1.74-1.36,3.1-3.1,3.1s-3.1-1.36-3.1-3.1c0-1.61,1.36-3.1,3.1-3.1s3.1,1.49,3.1,3.1Z"/>
    <path class="st0" d="M722.76,160.54c1.61,3.6-1.36,4.47-1.36,4.47h-33.12v-5.71h7.07c-1.49-.62-.37-4.47,0-5.33.99-2.36,3.1-4.47,5.71-7.81l-1.12-1.24,4.47-4.22c0,.12,18.11,19.23,18.36,19.85h0ZM704.41,154.34c0-1.24-1.12-2.36-2.48-2.36-1.24,0-2.36,1.12-2.36,2.36,0,1.36,1.12,2.48,2.36,2.48,1.36,0,2.48-1.12,2.48-2.48ZM712.47,157.07c0-1.36-1.12-2.36-2.36-2.36-1.36,0-2.36,1.12-2.36,2.36s1.12,2.48,2.36,2.48,2.36-1.12,2.36-2.48Z"/>
  </g>
  <g>
    <path class="st0" d="M24.95,220.08l11.91-25.92h1.74l11.78,25.92h-5.46l-1.98-4.22h-10.54l-1.98,4.22h-5.46ZM34.13,211.89h7.07l-3.47-8.31-3.6,8.31Z"/>
    <path class="st0" d="M58.07,220.08h-4.59v-25.67l4.22-.5h.37v26.17h0Z"/>
    <path class="st0" d="M72.71,220.08v-25.67l1.36-.37,11.04,13.64,11.04-13.64,1.36.37v25.67h-4.84v-14.39l-7.32,9.18h-.5l-7.32-9.05v14.14h-4.84v.12h0Z"/>
    <path class="st0" d="M117.23,220.08h-2.98l-1.12-1.86c-1.24,1.49-3.1,2.36-5.83,2.36-3.6,0-5.95-2.36-5.95-5.33,0-3.22,2.6-5.46,6.2-5.46,2.23,0,4.34.87,5.09,1.49v-.5c0-2.6-1.98-3.85-4.22-3.85-2.11,0-2.98.5-3.97.74l-.99-3.47c1.12-.37,3.22-.99,5.58-.99,4.96.12,8.06,3.1,8.06,7.69l.12,9.18h0ZM112.77,214.37c-.62-.62-2.11-1.49-3.97-1.49-1.49,0-2.73.99-2.73,2.23s1.36,2.11,2.73,2.11c1.74,0,3.6-1.12,3.97-2.36v-.5h0Z"/>
    <path class="st0" d="M120.21,211.89c0-5.33,3.47-8.68,7.69-8.68,1.98,0,4.47,1.12,5.21,2.85v-11.66l4.22-.5h.5v26.17h-2.85l-1.24-2.36c-.87,1.61-3.35,2.85-5.83,2.85-4.22,0-7.69-3.22-7.69-8.68h0ZM133.11,211.89c0-3.22-2.11-4.84-4.09-4.84s-4.09,1.61-4.09,4.84,1.98,4.96,4.09,4.96c1.98,0,4.09-1.86,4.09-4.96Z"/>
    <path class="st0" d="M145.14,195.02c1.74,0,3.1,1.36,3.1,3.1s-1.49,2.98-3.1,2.98-3.1-1.36-3.1-2.98c0-1.74,1.49-3.1,3.1-3.1ZM142.91,203.83h4.59v16.37h-4.59v-16.37Z"/>
    <path class="st0" d="M156.55,205.69c.99-1.36,3.1-2.36,5.46-2.36,3.6,0,6.82,2.48,6.82,6.45v10.42h-4.71v-9.67c0-1.98-1.49-3.35-3.35-3.35-1.61,0-3.47,1.24-3.47,3.35v9.67h-4.59v-16.37h2.85l.99,1.86Z"/>
    <path class="st0" d="M187.68,220.08h-2.85l-1.12-1.86c-1.24,1.49-3.1,2.36-5.83,2.36-3.6,0-5.95-2.36-5.95-5.33,0-3.22,2.6-5.46,6.2-5.46,2.23,0,4.34.87,5.09,1.49v-.5c0-2.6-1.98-3.85-4.22-3.85-2.11,0-2.98.5-3.97.74l-.99-3.47c1.12-.37,3.22-.99,5.58-.99,4.96.12,8.06,3.1,8.06,7.69v9.18h0ZM183.22,214.37c-.62-.62-2.11-1.49-3.97-1.49-1.49,0-2.73.99-2.73,2.23s1.36,2.11,2.73,2.11c1.74,0,3.6-1.12,3.97-2.36v-.5h0Z"/>
    <path class="st0" d="M196.37,205.44c.99-1.24,2.98-2.23,5.21-2.23,3.35,0,6.45,2.36,6.45,6.45v10.29h-4.71v-9.67c0-1.98-1.49-3.35-3.35-3.35-1.49,0-3.47,1.12-3.47,3.1v9.92h-4.59v-25.67l4.22-.5h.37v11.66h-.12Z"/>
    <path class="st0" d="M235.19,209.9l6.57,10.29h-5.95l-5.46-8.81c-1.12.12-2.23.12-3.47,0v8.81h-4.96v-25.43c12.16-2.11,17.74,1.61,17.74,7.94,0,3.22-2.11,5.95-4.47,7.19ZM226.88,207.05c5.33.5,7.69-1.49,7.69-4.47,0-2.73-2.48-4.59-7.69-3.85v8.31h0Z"/>
    <path class="st0" d="M247.59,213.01c.12,2.11,2.11,3.85,5.21,3.85,1.74,0,3.47-.62,4.59-1.24l1.61,3.1c-1.86,1.36-4.59,1.86-6.82,1.86-5.71,0-9.43-3.97-9.43-8.68,0-5.21,4.09-8.68,8.43-8.68,4.09,0,8.19,2.98,8.19,8.81v.87h-11.78v.12h0ZM254.79,210.15c-.12-2.11-1.86-3.22-3.35-3.22-1.74,0-3.35,1.49-3.47,3.22h6.82Z"/>
    <path class="st0" d="M274.88,217.22c-.74,1.74-2.98,2.73-5.09,2.73-4.34,0-7.69-3.22-7.69-8.31s3.22-8.43,7.44-8.43c2.48,0,4.59,1.24,5.83,2.98l1.24-2.48h2.85v15.01c0,5.83-3.72,8.81-9.55,8.81-2.11,0-4.34-.5-5.33-.99l.87-3.72c1.24.5,2.73.74,4.34.74,3.6,0,5.09-1.98,5.09-4.59v-1.74h0ZM274.76,211.64c0-2.85-1.98-4.59-3.97-4.59-2.11,0-3.97,1.61-3.97,4.59s1.86,4.59,3.97,4.59,3.97-1.61,3.97-4.59Z"/>
    <path class="st0" d="M286.66,195.02c1.74,0,3.1,1.36,3.1,3.1s-1.49,2.98-3.1,2.98-3.1-1.36-3.1-2.98c0-1.74,1.49-3.1,3.1-3.1ZM284.43,203.83h4.59v16.37h-4.59v-16.37Z"/>
    <path class="st0" d="M292.74,211.89c0-5.09,3.85-8.68,8.93-8.68s8.81,3.6,8.81,8.68-3.85,8.68-8.93,8.68-8.81-3.6-8.81-8.68ZM305.76,211.89c0-3.35-2.11-4.96-4.22-4.96s-4.09,1.61-4.09,4.96,2.11,4.96,4.22,4.96,4.09-1.74,4.09-4.96Z"/>
    <path class="st0" d="M318.04,205.69c.99-1.36,3.1-2.36,5.46-2.36,3.6,0,6.82,2.48,6.82,6.45v10.42h-4.71v-9.67c0-1.98-1.49-3.35-3.35-3.35-1.61,0-3.47,1.24-3.47,3.35v9.67h-4.84v-16.37h2.85l1.24,1.86Z"/>
    <path class="st0" d="M344.34,194.52c17.12-2.73,21.46,6.33,21.46,12.65s-4.47,15.13-21.46,12.9v-25.55h0ZM349.3,215.73c5.09.5,11.16-1.74,11.16-8.43,0-5.71-4.34-9.3-11.16-8.43v16.87Z"/>
    <path class="st0" d="M373.11,213.01c.12,2.11,2.11,3.85,5.21,3.85,1.74,0,3.47-.62,4.59-1.24l1.61,3.1c-1.86,1.36-4.59,1.86-6.82,1.86-5.71,0-9.43-3.97-9.43-8.68,0-5.21,4.09-8.68,8.43-8.68,4.09,0,8.19,2.98,8.19,8.81v.87h-11.78v.12h0ZM380.31,210.15c-.12-2.11-1.86-3.22-3.35-3.22-1.74,0-3.35,1.49-3.47,3.22h6.82Z"/>
    <path class="st0" d="M404.99,203.83l-8.68,16.62h-1.74l-8.68-16.62h4.96l4.59,8.93,4.71-8.93h4.84Z"/>
    <path class="st0" d="M410.45,213.01c.12,2.11,2.11,3.85,5.21,3.85,1.74,0,3.47-.62,4.59-1.24l1.61,3.1c-1.86,1.36-4.59,1.86-6.82,1.86-5.71,0-9.43-3.97-9.43-8.68,0-5.21,4.09-8.68,8.43-8.68,4.09,0,8.19,2.98,8.19,8.81v.87h-11.78v.12h0ZM417.64,210.15c-.12-2.11-1.86-3.22-3.35-3.22-1.74,0-3.35,1.49-3.47,3.22h6.82Z"/>
    <path class="st0" d="M430.91,220.08h-4.59v-25.67l4.22-.5h.37v26.17h0Z"/>
    <path class="st0" d="M434.76,211.89c0-5.09,3.85-8.68,8.93-8.68s8.81,3.6,8.81,8.68-3.85,8.68-8.93,8.68-8.81-3.6-8.81-8.68ZM447.78,211.89c0-3.35-2.11-4.96-4.22-4.96s-4.09,1.61-4.09,4.96,2.11,4.96,4.22,4.96,4.09-1.74,4.09-4.96Z"/>
    <path class="st0" d="M460.68,218.22v8.81l-4.22.5h-.37v-23.69h2.85l1.24,2.48c1.12-1.86,3.72-2.98,5.95-2.98,4.22,0,7.57,3.35,7.57,8.68s-3.6,8.68-7.81,8.68c-2.23-.12-4.47-1.12-5.21-2.48ZM468.87,211.89c0-3.22-1.98-4.84-3.97-4.84-2.11,0-4.09,1.61-4.09,4.84s2.11,4.84,4.09,4.84c1.86.12,3.97-1.49,3.97-4.84Z"/>
    <path class="st0" d="M481.15,205.32c.62-.99,2.73-1.98,4.47-1.98,2.36,0,4.34.99,5.46,2.73,1.12-1.86,3.35-2.73,5.09-2.73,3.72,0,5.95,2.48,5.95,6.08v10.79h-4.59v-10.05c0-1.98-1.36-2.98-2.73-2.98-1.24,0-2.73.99-2.73,2.85v10.05h-4.84v-9.92c0-2.11-1.24-2.98-2.73-2.98s-2.85,1.12-2.85,2.98v9.92h-4.59v-16.37h2.85l1.24,1.61h0Z"/>
    <path class="st0" d="M509.8,213.01c.12,2.11,2.11,3.85,5.21,3.85,1.74,0,3.47-.62,4.59-1.24l1.61,3.1c-1.86,1.36-4.59,1.86-6.82,1.86-5.71,0-9.43-3.97-9.43-8.68,0-5.21,4.09-8.68,8.43-8.68,4.09,0,8.19,2.98,8.19,8.81v.87h-11.78v.12h0ZM516.99,210.15c-.12-2.11-1.86-3.22-3.35-3.22-1.74,0-3.35,1.49-3.47,3.22h6.82Z"/>
    <path class="st0" d="M529.27,205.69c.99-1.36,3.1-2.36,5.46-2.36,3.6,0,6.82,2.48,6.82,6.45v10.42h-4.71v-9.67c0-1.98-1.49-3.35-3.35-3.35-1.61,0-3.47,1.24-3.47,3.35v9.67h-4.59v-16.37h2.85l.99,1.86Z"/>
    <path class="st0" d="M551.6,207.42v6.57c0,1.86,1.12,2.36,2.36,2.36.5,0,.87-.12,1.49-.12l.5,3.72c-1.12.25-2.23.37-3.22.37-3.85,0-5.83-2.23-5.83-6.2v-6.7h-2.73v-.5c.12-1.12.37-2.11.5-3.22h2.36v-5.21l4.22-.5h.37v5.71h4.22v3.72h-4.22Z"/>
    <path class="st0" d="M566.98,220.08l11.91-25.92h1.74l11.78,25.92h-5.46l-1.98-4.22h-10.67l-1.98,4.22h-5.33ZM576.16,211.89h7.07l-3.47-8.31-3.6,8.31Z"/>
    <path class="st0" d="M606.42,218.22c-.99,1.36-3.1,2.36-5.46,2.36-3.6,0-6.57-2.48-6.57-6.45v-10.42h4.71v9.67c0,2.11,1.49,3.35,3.35,3.35,1.61,0,3.35-1.24,3.35-3.35v-9.67h4.59v16.37h-3.1l-.87-1.86Z"/>
    <path class="st0" d="M621.18,207.42v6.57c0,1.86,1.12,2.36,2.36,2.36.5,0,.87-.12,1.49-.12l.5,3.72c-1.12.25-2.23.37-3.22.37-3.85,0-5.83-2.23-5.83-6.2v-6.7h-2.73v-.5c.12-1.12.37-2.11.5-3.22h2.36v-5.21l4.22-.5h.37v5.71h4.22v3.72h-4.22Z"/>
    <path class="st0" d="M633.96,205.44c.99-1.24,2.98-2.23,5.21-2.23,3.35,0,6.45,2.36,6.45,6.45v10.29h-4.71v-9.67c0-1.98-1.49-3.35-3.35-3.35-1.49,0-3.47,1.12-3.47,3.1v9.92h-4.59v-25.67l4.22-.5h.37v11.66h-.12Z"/>
    <path class="st0" d="M648.72,211.89c0-5.09,3.85-8.68,8.93-8.68s8.81,3.6,8.81,8.68-3.85,8.68-8.93,8.68-8.81-3.6-8.81-8.68ZM661.74,211.89c0-3.35-2.11-4.96-4.22-4.96s-4.09,1.61-4.09,4.96,2.11,4.96,4.22,4.96,4.09-1.74,4.09-4.96Z"/>
    <path class="st0" d="M669.93,203.83h2.85c.37.74.87,1.36,1.24,1.98.62-1.36,2.36-2.48,3.97-2.48,1.12,0,1.98.37,2.36.62l-.74,4.22-.25.12c-.5-.25-.99-.5-1.98-.5s-2.11.5-2.73,1.36v10.91h-4.71v-16.25h0Z"/>
    <path class="st0" d="M686.3,195.02c1.74,0,3.1,1.36,3.1,3.1s-1.49,2.98-3.1,2.98-3.1-1.36-3.1-2.98c0-1.74,1.36-3.1,3.1-3.1ZM683.94,203.83h4.59v16.37h-4.59v-16.37Z"/>
    <path class="st0" d="M699.69,207.42v6.57c0,1.86,1.12,2.36,2.36,2.36.5,0,.87-.12,1.49-.12l.5,3.72c-1.12.25-2.23.37-3.22.37-3.85,0-5.83-2.23-5.83-6.2v-6.7h-2.73v-.5c.12-1.12.37-2.11.5-3.22h2.36v-5.21l4.22-.5h.37v5.71h4.22v3.72h-4.22Z"/>
    <path class="st0" d="M724.87,203.83l-10.91,23.44h-4.59l-.37-.37,4.34-8.68-7.19-14.39h5.09l4.59,9.05,4.34-9.05h4.71Z"/>
  </g>
  <path class="st0" d="M771.88,89.84c2.6,57.8,2.6,116.47,0,174.27-2.6-57.8-2.6-116.47,0-174.27h0Z"/>
</svg>