<?xml version="1.0" encoding="UTF-8"?>
<svg id="Layer_1" xmlns="http://www.w3.org/2000/svg" version="1.1" viewBox="0 0 118.87 108.38">
  <!-- Generator: Adobe Illustrator 30.3.0, SVG Export Plug-In . SVG Version: 2.1.3 Build 182)  -->
  <defs>
    <style>
      .st0 {
        fill-rule: evenodd;
      }

      .st0, .st1 {
        fill: #fff;
      }
    </style>
  </defs>
  <path class="st1" d="M38.31,103.96c-.42.26-1.01.12-1.22-.37-.12-.27-.04-.14-.06-5.68h1.71v-.64h-1.71v-2.6h-.43c-.31,1.61-.73,2.86-2.4,2.86v.38h1.32c.03,5.45-.07,5.52.09,6.09.18.66.65,1.05,1.4,1.05.95,0,1.63-.41,2.05-1.14l-.38-.26c-.1.12-.23.23-.37.31ZM24.72,94.42c.58,1.1,2.36.03,1.41-.83-.71-.6-1.77.11-1.41.83ZM29.03,98.62c0-1.06,2.22-1.79,3.57.39l.55-.5c-.51-.67-1.1-1.22-1.94-1.36-2.01-.33-3.31.78-3.31,2.07,0,1.53,1.4,2.06,2.78,2.7,2.4,1.1,1.02,3.01-.74,2.5-.67-.2-1.17-.78-1.58-1.36l-.62.56c.38.5.84.91,1.42,1.15,1.01.44,2.71.34,3.58-.4.82-.69,1.11-2.17.03-3.1-1.19-1.05-3.74-1.28-3.74-2.66ZM43.64,97.11c-.88,0-1.68.87-2.18,1.59v-1.44h-1.5v7.61h1.5v-5.27c.17-.28.4-.61.62-.85.41-.42.69-.42,1.18-.16.5.28,1.07.2,1.33-.01.32-.26.34-.85-.11-1.2-.24-.19-.53-.27-.83-.27ZM13.38,93.59c-.36.32-.33.78,0,1.07.81.7,2.03-.35,1.22-1.07-.32-.28-.85-.32-1.22,0ZM18.1,98.65v-1.39h-1.51v7.61h1.51v-5.64c1.61-1.55,3.35-1.49,3.35.43v5.21h1.52v-5.46c0-.64-.22-1.22-.56-1.63-1.11-1.34-3.07-.52-4.31.87ZM5.61,102.58h-.08l-3.84-7.58H0v9.87h.73v-8.03h.11l4.1,8.03h.34l4.05-8.09h.06v8.09h1.67v-9.87h-1.67M24.78,97.54v7.33h1.5v-7.77h-.44M13.25,97.54v7.33h1.5v-7.77h-.44M104.09,93.8v11.08h1.51v-11.51h-.43M110.76,103.96c-.43.26-1.02.12-1.22-.37-.12-.26-.04-.12-.06-5.68h1.71v-.64h-1.71v-2.6h-.43c-.31,1.62-.74,2.86-2.4,2.86v.38h1.32c.03,5.46-.07,5.51.09,6.09.11.41.34.75.74.92.47.21,1.33.17,1.9-.18.34-.2.61-.48.81-.83l-.38-.26c-.1.13-.22.23-.36.31ZM101.4,97.66c-.79-.64-2.36-.64-3.28-.41-2.48.61-2.15,2.53-1.1,2.53.58,0,.75-.44.75-1.01,0-.29.05-.57.24-.79.35-.42,1.16-.43,1.61-.27.41.14.64.48.76.89.13.48.1,1.45.1,1.35-1.1.28-2.07.53-3.04,1.05-3.36,1.81-.59,5.79,2.51,3.25.17-.14.35-.28.53-.42v1.04h1.52c-.04-5.92.24-6.52-.6-7.21ZM100.48,103.28c-.42.32-.82.62-1.32.77-1.26.38-2.05-.97-1.59-1.82.47-.88,1.96-1.48,2.91-1.79v2.84ZM118.64,98.51c-.76-2.18-3.17-1.59-4.71.14v-5.29h-.43l-1.08.43v11.08h1.51v-5.64c1.58-1.54,3.35-1.51,3.35.43v5.21h1.51c-.05-5.5.11-5.63-.15-6.36ZM58.91,98.29c-2.41,2.46-.87,6.74,2.89,6.74s5.33-4.52,2.88-6.84c-1.5-1.41-4.18-1.53-5.77.1ZM63.97,102.73c-.26.91-.94,1.75-1.89,1.75-2.73,0-3.54-5.25-1.39-6.59.75-.47,2.13-.23,2.82.94.62,1.04.75,2.89.45,3.9ZM49.69,102.76l-2.94-5.49h-1.72l3.9,7.25c-.6,1.35-.82,2.01-1.31,2.37-.24.18-.6.15-.76.08-.24-.1-.24-.14-.49-.24-.57-.21-1.28.14-1.28.78,0,1.19,2.68,1.53,3.94-1.3l3.88-8.94h-.81l-2.4,5.49ZM72.59,93.74c-.87-.56-2.52-.61-3.57.5-1.03,1.09-.8,2.36-.83,3.02h-1.59v.64h1.59v6.97h1.52v-6.97h2.04v-.64h-2.04c.02-1.44-.13-2.22.29-2.86.16-.25.43-.48.75-.48,1.19,0,.49,1.46,1.6,1.46.9,0,1.08-1.09.23-1.63ZM94.18,102.71c-.34.44-.84.8-1.45,1.01-2.1.74-3.63-1.03-3.63-3.4h5.68c0-3.13-4.1-4.32-6.1-2.01-2.24,2.61-.7,6.73,2.7,6.73,1.58,0,3.19-1.29,3.61-2.83l-.43-.19c-.07.24-.19.47-.36.69ZM89.29,98.9c.91-2.12,3.58-1.24,3.58.81h-3.78c.02-.3.09-.56.19-.81ZM84.21,99.5h-4.96v-4.5h-1.66v9.87h1.66v-4.73h4.96v4.73h1.66v-9.87h-1.66"/>
  <path class="st0" d="M87.48,28.45c-13.55,1.95-43.06,27.42-43.06,27.42h12.06c7.67-8.62,19.13-17.8,25.21-21.47,4.86-2.93,8.33-3.08,8.33-3.08,7.59-.7,14.07,5.56,13.23,13.52.99-9.4-3.69-18.13-15.76-16.4Z"/>
  <path class="st0" d="M31.24,28.45c-12.07-1.74-16.76,6.99-15.76,16.4-.85-7.98,5.68-14.22,13.23-13.52,0,0,3.47.14,8.33,3.08,5.61,3.39,17.21,12.48,25.2,21.47h12.06s-29.51-25.47-43.06-27.42Z"/>
  <path class="st1" d="M58.76,84.08h-5.36c.01-.1.3-1.53.3-2.81,0-6.38-4.77-9-9.44-5.71-3.34,2.36-4.04,4.64-6.08,8.51h-.08v-6.34h-1.67v6.34h-4.85v-.63c0-6.71-4.85-9.08-9-9.08h-6.4v1.42c.47-.04,5.91-.05,6.18-.05,8,0,7.41,8.25,7.45,8.35H9.29v-10.68c-.49-.06-1.35-.1-1.73-.1-3.03,0-7.51,2.18-7.51,6.86,0,3.22,2.43,5.15,5.5,5.15h.53c.09-.1,1.24-1.33,1.15-1.23h-1.22c-4.83,0-5.35-5.73-2.2-8.21,1.13-.89,2.45-1.2,3.23-1.2h.58v10.64h52.8v-19.04h-1.67v17.81ZM51.73,83.87l-.05.21h-11.89l.08-.34c1.04-4.63,5.2-8.23,8.09-8.23.93,0,3.97.44,3.97,6.06,0,.35-.01,1.56-.2,2.3Z"/>
  <circle class="st1" cx="8.22" cy="69.4" r="1.27"/>
  <path class="st1" d="M65.69,66.27h1.66v19.04h-1.66v-19.04Z"/>
  <circle class="st1" cx="80.02" cy="69.41" r="1.27"/>
  <circle class="st1" cx="4.43" cy="69.4" r="1.27"/>
  <circle class="st1" cx="105.42" cy="69.41" r="1.27"/>
  <path class="st1" d="M117.71,73.68c-4.33,0-7.73,2.95-7.73,6.72,0,3.4,2.98,5.13,5.91,4.89.1-.1,1.28-1.32,1.18-1.21h-1.1c-2.1,0-4.22-1.19-4.22-3.86,0-2.39,2.21-5.06,5.17-5.06h.28v10.41c0,1.99-.37,3.84-3.08,3.84-.23,0-.54-.03-.86-.09l-.21,1.27c.4.08.83.12,1.5.12,1.3,0,4.31-.43,4.31-4.44v-12.49c-.46-.07-.83-.1-1.16-.1ZM104.59,86.35c0,2.18-.88,3.07-3.02,3.07-.23,0-.57-.04-.83-.08l-.21,1.33c4.06.59,5.72-1.22,5.72-3.81v-11.77h-1.66s0,11.26,0,11.26ZM90.5,86.35c0,2.18-.88,3.07-3.02,3.07-.23,0-.56-.04-.83-.08l-.21,1.33c4.07.59,5.72-1.22,5.72-3.81v-11.77h-1.66s0,11.26,0,11.26Z"/>
  <circle class="st1" cx="83.8" cy="69.41" r="1.27"/>
  <path class="st1" d="M97.26,66.27h1.66v19.04h-1.66v-19.04ZM75.62,80.3c0,2.86,2.37,5.01,5.5,5.01h3.74v-11.91c-5.43-.76-9.24,2.74-9.24,6.9ZM83.2,84.08h-1.58c-6.3,0-5.12-9.41.98-9.41h.61v9.41ZM30.3,36.62l-3.61,3.62-3.61-3.62-4.12,4.11,4.12,4.11,3.61-3.61,3.61,3.61,4.11-4.11M68.35,5.39c3.74.21,7.35,1.85,9.97,4.73-3.05-7.1-11.07-10.51-18.22-8.01C59.73.78,59.45,0,59.45,0c0,0-.29.78-.65,2.11-7.17-2.51-15.19.94-18.21,8.01,2.62-2.88,6.23-4.52,9.97-4.73-4.34,3.34-6.39,8.74-5.5,13.99.71-4.26,3.27-7.89,6.82-10.05-2.7,5.38-1.87,11.88,2.25,16.41-2.42-5.61-1.07-12.17,3.35-16.36-.1,1.09-.16,2.23-.16,3.41,0,7.06,2.13,12.78,2.13,12.78.01-.11,2.78-7.55,1.97-16.19,4.42,4.19,5.78,10.75,3.35,16.36,4.07-4.45,4.98-10.98,2.25-16.41,3.55,2.16,6.11,5.79,6.83,10.05.88-5.2-1.13-10.62-5.5-13.99Z"/>
  <path class="st0" d="M73.62,38.63c-18.45-19.65-28.94-4.5-28.94-4.5,0,0,9-8.9,26.1,9.99,7.68,8.49,14.54,11.81,20.08,11.75,4.25-.04,8.15-2.03,10.89-6.33.44-.69.71-1.41.71-1.41-4.94,5.88-11.46,9-28.83-9.5Z"/>
</svg>