<?xml version="1.0" encoding="UTF-8"?>
<svg id="Layer_1" xmlns="http://www.w3.org/2000/svg" version="1.1" viewBox="0 0 1213.8 425.6">
  <!-- Generator: Adobe Illustrator 30.3.0, SVG Export Plug-In . SVG Version: 2.1.3 Build 182)  -->
  <defs>
    <style>
      .st0 {
        fill: #fff;
      }
    </style>
  </defs>
  <g>
    <path class="st0" d="M48,230.3v-3.1c0-.5.2-.7.7-.7h8.9c.5,0,.7.2.7.7v22.3c0,1.5.3,2.5.8,3,.6.6,1.4.8,2.7.8h2.2c1.9,0,2.9,1.5,2.9,4.4,0,1.7-.2,2.8-.7,3.5-.5.6-1.2.9-2.2.9h-7.6c-2.4,0-4.2-.4-5.6-1.1-1.3-.8-2.2-2.2-2.7-4.2-1.1.9-2.3,1.5-3.7,2-1.4.4-2.9.7-4.4.7-1.9,0-3.7-.3-5.4-.8s-3.2-1.4-4.5-2.5-2.3-2.6-3.1-4.4c-.8-1.8-1.1-4-1.1-6.5,0-2.9.4-5.3,1.3-7.2.8-1.9,2-3.4,3.3-4.6,1.4-1.1,3-1.9,4.7-2.4,1.8-.5,3.6-.7,5.4-.7h7.4v-.1ZM33.2,221.3c-.5,0-.7-.2-.7-.7v-7.1c0-.5.2-.7.7-.7h7.3c.5,0,.7.2.7.7v7.1c0,.5-.2.7-.7.7h-7.3ZM42,250.6c1.8,0,3.3-.5,4.4-1.6,1.1-1,1.6-2.7,1.6-4.9v-5h-5.8c-1.8,0-3.3.4-4.4,1.3-1.1.9-1.7,2.5-1.7,4.8,0,2,.6,3.4,1.7,4.2,1.1.8,2.5,1.2,4.2,1.2ZM44.4,221.3c-.5,0-.7-.2-.7-.7v-7.1c0-.5.2-.7.7-.7h7.3c.5,0,.7.2.7.7v7.1c0,.5-.2.7-.7.7h-7.3Z"/>
    <path class="st0" d="M72.8,232.3c0-.5.2-.7.7-.7h8.8c.5,0,.7.2.7.7v17.1c.1,1.2.6,2.2,1.6,2.9.9.7,2.3,1.1,4,1.1h1.7c1,0,1.7.3,2.2,1s.7,1.8.7,3.3c0,3-1,4.4-2.9,4.4-1.8,0-3.4-.2-4.8-.7-1.4-.4-2.5-1.4-3.4-3-.8,1.5-1.9,2.5-3.5,3-1.5.4-3.6.7-6.3.7h-7.5c-1,0-1.7-.3-2.2-.9s-.7-1.7-.7-3.4c0-1.6.2-2.8.7-3.5s1.2-1,2.2-1h4.5c1.5,0,2.5-.4,2.9-1.3.4-.9.6-2.4.6-4.6v-15.1h0ZM68.3,277.1c-.5,0-.7-.2-.7-.7v-7.1c0-.5.2-.7.7-.7h7.3c.5,0,.7.2.7.7v7.1c0,.5-.2.7-.7.7h-7.3ZM79.4,277.1c-.5,0-.7-.2-.7-.7v-7.1c0-.5.2-.7.7-.7h7.3c.5,0,.7.2.7.7v7.1c0,.5-.2.7-.7.7h-7.3Z"/>
    <path class="st0" d="M98.5,232.3c0-.5.2-.7.7-.7h8.8c.5,0,.7.2.7.7v17.1c.1,1.2.6,2.2,1.6,2.9.9.7,2.3,1.1,4,1.1h1.7c1,0,1.7.3,2.2,1s.7,1.8.7,3.3c0,3-1,4.4-2.9,4.4-1.8,0-3.4-.2-4.8-.7-1.4-.4-2.5-1.4-3.4-3-.8,1.5-1.9,2.5-3.5,3-1.5.4-3.6.7-6.3.7h-7.5c-1,0-1.7-.3-2.2-.9s-.7-1.7-.7-3.4c0-1.6.2-2.8.7-3.5s1.2-1,2.2-1h4.5c1.5,0,2.5-.4,2.9-1.3.4-.9.6-2.4.6-4.6v-15.1ZM94.3,224.2c-.5,0-.7-.2-.7-.7v-7.1c0-.5.2-.7.7-.7h7.3c.5,0,.7.2.7.7v7.1c0,.5-.2.7-.7.7h-7.3ZM105.4,224.2c-.5,0-.7-.2-.7-.7v-7.1c0-.5.2-.7.7-.7h7.3c.5,0,.7.2.7.7v7.1c0,.5-.2.7-.7.7h-7.3Z"/>
    <path class="st0" d="M159.7,262.2c-1.9,0-3.4-.4-4.6-1.1-1.2-.7-2.1-1.6-2.7-2.8-.7,1.5-1.7,2.5-3.1,3.1-1.4.5-3.3.8-5.6.8h-2.8c-1.9,0-3.4-.4-4.6-1.1-1.2-.7-2.1-1.6-2.8-2.8-.7,1.5-1.7,2.6-3.1,3.1-1.4.5-3.3.8-5.7.8h-8.7c-1,0-1.7-.3-2.2-.8-.5-.6-.7-1.6-.7-3.2,0-1.7.2-2.9.7-3.6.5-.7,1.2-1.1,2.2-1.1h4.9c1.4,0,2.3-.4,2.7-1.1.4-.7.6-2,.6-3.9v-10.9c0-.5.2-.7.7-.7h8.9c.5,0,.7.2.7.7v11.9c0,1.6.5,2.6,1.5,3.1s2,.8,3.2.8c.9,0,1.7-.1,2.2-.3.6-.2,1-.5,1.2-.9s.4-.9.5-1.6c.1-.7.1-1.5.1-2.4v-10.7c0-.5.2-.7.7-.7h8.9c.5,0,.7.2.7.7v11.8c0,1.6.5,2.7,1.5,3.2s2.1.8,3.4.8c.9,0,1.6-.1,2.1-.3s.8-.5,1.1-.9c.2-.4.4-.9.4-1.6s.1-1.5.1-2.4v-15.8c0-.5.2-.7.7-.7h8.9c.5,0,.7.2.7.7v17.1c.1,1.2.6,2.2,1.6,2.9.9.7,2.3,1.1,4,1.1h1.7c1,0,1.7.3,2.2,1s.7,1.8.7,3.3c0,3-1,4.4-2.9,4.4-1.8,0-3.4-.2-4.8-.7-1.4-.4-2.5-1.4-3.4-3-.7,1.4-1.7,2.4-3,2.9s-2.8.8-4.5.8h-4.3v.1Z"/>
    <path class="st0" d="M179.4,262.2c-1,0-1.7-.3-2.2-1s-.7-1.8-.7-3.3c0-1.6.2-2.7.7-3.5.5-.7,1.2-1.1,2.2-1.1h18c1.2,0,2.1-.1,2.8-.3s1.3-.5,1.7-1,.7-1.1.9-1.9c.2-.8.3-1.8.3-3.1,0-1-.1-2-.4-2.9-.2-.9-.7-1.8-1.2-2.5-.6-.8-1.3-1.4-2.3-1.8s-2.1-.7-3.5-.7c-1.6,0-2.9.3-4.1.9-1.2.6-2.3,1.4-3.3,2.3-.3.3-.7.4-1,.1l-4.3-5.2c-.4-.4-.5-.8-.2-1.1,1.7-1.6,3.6-3,5.8-4.1s4.9-1.7,8.2-1.7c3.1,0,5.7.5,7.9,1.4s3.9,2.2,5.3,3.7c1.4,1.6,2.3,3.4,2.9,5.4.6,2.1.9,4.3.9,6.6,0,3.1-.3,5.5-.8,7.4-.6,1.9-1.4,3.4-2.4,4.5-1,1.1-2.3,1.8-3.8,2.2-1.5.4-3.3.6-5.2.6h-22.2v.1ZM192.5,276.9c-.5,0-.7-.2-.7-.7v-7.1c0-.5.2-.7.7-.7h9c.5,0,.7.2.7.7v7.1c0,.5-.2.7-.7.7h-9Z"/>
    <path class="st0" d="M227.3,277.1c-.5,0-.7-.2-.7-.7v-7.4c0-.5.2-.7.7-.7h8.4c1,0,1.9-.1,2.7-.3.8-.2,1.5-.5,2-.9s.9-1.1,1.2-1.9.4-1.8.4-3.1h-7c-4.7,0-8.4-1.1-10.9-3.4s-3.8-6.2-3.8-11.7c0-3.1.4-5.7,1.3-7.8.9-2.1,2.1-3.8,3.6-5.2,1.5-1.3,3.2-2.3,5.1-2.8,1.9-.6,3.9-.9,5.9-.9,2.1,0,4.2.3,6.1.8,1.9.5,3.6,1.4,5.1,2.7,1.5,1.2,2.6,2.9,3.5,5,.8,2.1,1.3,4.7,1.3,7.8v6.8h4.9c1.9,0,2.9,1.5,2.9,4.4,0,1.8-.2,3-.7,3.6s-1.2.8-2.2.8h-4.9v1.4c0,4.6-1.2,7.9-3.5,10.2-2.3,2.2-5.9,3.3-10.8,3.3h-10.6ZM236.3,239.1c-1.9,0-3.4.7-4.5,2-1,1.4-1.6,3.2-1.6,5.5,0,2.7.6,4.4,1.7,5.3,1.1.9,2.6,1.3,4.5,1.3h5.6v-7c.1-4.7-1.8-7.1-5.7-7.1Z"/>
    <path class="st0" d="M263.1,213.5c0-.5.2-.7.7-.7h8.9c.5,0,.7.2.7.7v36c.1,1.3.6,2.2,1.5,2.9s2.3,1,4,1h1.7c1,0,1.7.3,2.2,1s.7,1.8.7,3.3c0,3-1,4.4-2.9,4.4-1.8,0-3.4-.2-4.8-.7-1.4-.4-2.5-1.4-3.4-3-.7,1.4-1.8,2.4-3.2,2.9s-3.3.8-5.6.8h-6.5c-1,0-1.7-.2-2.2-.5s-.7-1-.7-2c0-.6.1-1.2.2-2,.1-.7.3-1.4.5-2s.5-1.2.9-1.6c.4-.4.8-.7,1.3-.7h2.5c.8,0,1.5-.1,2-.4.5-.3.8-.7,1.1-1.3.2-.6.4-1.2.4-2.1,0-.8.1-1.8.1-2.8v-33.2h-.1Z"/>
    <path class="st0" d="M280.6,262.2c-1,0-1.7-.2-2.2-.5s-.7-1-.7-2c0-.6.1-1.2.2-2,.1-.7.3-1.4.5-2s.5-1.2.9-1.6.8-.7,1.3-.7h2.5c1.2,0,2.1-.3,2.7-.8.6-.6.8-1.6.8-3v-36c0-.5.2-.7.7-.7h8.9c.5,0,.7.2.7.7v39.4c0,3.1-.7,5.5-2,6.9-1.3,1.5-3.5,2.2-6.5,2.2h-7.8v.1Z"/>
    <path class="st0" d="M315.9,261.4c0,.5-.2.7-.7.7h-8.8c-.5,0-.7-.2-.7-.7v-47.9c0-.5.2-.7.7-.7h8.8c.5,0,.7.2.7.7v47.9Z"/>
    <path class="st0" d="M384.8,252.5c.6-.6.8-1.6.8-3v-17.2c0-.5.2-.7.7-.7h8.9c.5,0,.7.2.7.7v20.7c0,3.1-.7,5.5-2,6.9-1.3,1.5-3.5,2.2-6.7,2.2h-37.7c-3.1,0-5.2-.7-6.5-2.2s-2-3.8-2-6.9v-16c0-.5.2-.7.7-.7h8.9c.5,0,.7.2.7.7v12.6c0,1.5.3,2.5.8,3,.6.6,1.4.8,2.7.8h27.2c1.3,0,2.2-.3,2.8-.9ZM359.2,228.5c-.5,0-.7-.2-.7-.7v-7.1c0-.5.2-.7.7-.7h7.3c.5,0,.7.2.7.7v7.1c0,.5-.2.7-.7.7h-7.3ZM370.4,228.5c-.5,0-.7-.2-.7-.7v-7.1c0-.5.2-.7.7-.7h7.3c.5,0,.7.2.7.7v7.1c0,.5-.2.7-.7.7h-7.3Z"/>
    <path class="st0" d="M403.9,213.5c0-.5.2-.7.7-.7h8.8c.5,0,.7.2.7.7v36c0,1.5.3,2.5.8,3,.6.6,1.4.8,2.7.8h2c1,0,1.7.4,2.2,1.1.5.7.7,1.9.7,3.5,0,1.7-.2,2.9-.7,3.4s-1.2.8-2.2.8h-7.2c-3.1,0-5.2-.7-6.5-2.2s-2-3.8-2-6.9v-39.5Z"/>
    <path class="st0" d="M442.2,262.7c-2.6,0-4.9-.3-7.1-1s-4-1.8-5.4-3.5c-.7,1-1.5,1.7-2.4,2.2s-1.8.9-2.7,1.2c-.9.3-1.8.4-2.7.5-.9,0-1.6.1-2.3.1-1,0-1.7-.3-2.2-.9s-.7-1.7-.7-3.3c0-1.7.2-2.9.7-3.5.5-.7,1.2-1,2.2-1h2.1c1.1,0,2.1-.5,3-1.4s1.4-2.6,1.5-5.2v-1.5c0-2.9.4-5.3,1.3-7.2s2.1-3.5,3.6-4.6c1.5-1.2,3.2-2,5.1-2.5s3.9-.7,6-.7,4.2.3,6.1.8,3.6,1.4,5.1,2.7,2.7,2.9,3.5,5c.9,2.1,1.3,4.8,1.3,8,0,3-.4,5.4-1.2,7.5-.8,2-2,3.7-3.4,4.9s-3.1,2.1-5.1,2.7c-1.9.4-4,.7-6.3.7ZM442.2,239.1c-4,0-6,2.4-6,7.3,0,2.8.5,4.7,1.5,5.8s2.5,1.6,4.5,1.6,3.5-.5,4.5-1.6,1.5-3,1.5-5.8c-.1-4.8-2-7.3-6-7.3Z"/>
    <path class="st0" d="M478,253.4c1.2,0,2.2-.1,2.9-.3.7-.2,1.3-.4,1.6-.8.4-.4.6-.9.7-1.5s.2-1.4.2-2.3v-3.9c0-1.9-.5-3.3-1.6-4.1s-2.7-1.3-4.9-1.3h-8.4c-.5,0-.7-.2-.7-.7v-7.3c0-.5.2-.7.7-.7h11.5c4.5,0,8,1,10.4,2.9s3.7,5.3,3.7,10.1v6c.1,1.2.6,2.2,1.6,2.9.9.7,2.3,1.1,4,1.1h1.6c1,0,1.7.3,2.2,1s.7,1.8.7,3.3c0,3-1,4.4-2.9,4.4-2,0-3.7-.3-5.2-.8s-2.7-1.6-3.6-3.3c-.9,1.6-2.1,2.6-3.6,3.2s-3.4.9-5.7.9h-17.6c-.5,0-.7-.2-.7-.7v-7.3c0-.5.2-.7.7-.7h12.4v-.1Z"/>
    <path class="st0" d="M504.4,236.2c1.7-1.7,3.6-3.1,5.8-4.2,2.2-1.1,4.8-1.6,7.9-1.6s5.9.5,8.1,1.4c2.2.9,4,2.2,5.4,3.8s2.4,3.5,3,5.7.9,4.6.9,7.2v1.2c.1,1.2.7,2.1,1.6,2.8.9.7,2.2,1,3.9,1h1.7c1,0,1.7.3,2.2,1s.7,1.8.7,3.3c0,3-1,4.4-2.9,4.4-2,0-3.8-.3-5.3-.8s-2.7-1.8-3.7-3.6c-1,1.7-2.3,2.9-4.1,3.5s-3.9.9-6.3.9h-22.1c-1,0-1.7-.3-2.2-1s-.7-1.8-.7-3.3.2-2.7.7-3.4c.4-.7,1.2-1.1,2.3-1.1h18c1.2,0,2.1-.1,2.8-.3s1.3-.5,1.7-.9.7-1,.9-1.7.3-1.6.3-2.7c0-1.2-.1-2.3-.4-3.4-.2-1.1-.7-2-1.2-2.8-.6-.8-1.3-1.4-2.3-1.9s-2.1-.7-3.5-.7c-1.6,0-2.9.3-4.1.9-1.2.6-2.3,1.4-3.3,2.3-.3.3-.7.4-1,.1l-4.3-5.2c-.7-.3-.7-.7-.5-.9ZM514,224.3c-.5,0-.7-.2-.7-.7v-7.1c0-.5.2-.7.7-.7h9c.5,0,.7.2.7.7v7.1c0,.5-.2.7-.7.7h-9Z"/>
    <path class="st0" d="M542.7,262.2c-1,0-1.7-.2-2.2-.5s-.7-1-.7-2c0-.6.1-1.2.2-2s.3-1.4.5-2,.5-1.2.9-1.6.8-.7,1.3-.7h2.5c1.2,0,2.1-.3,2.7-.8.6-.6.8-1.6.8-3v-36c0-.5.2-.7.7-.7h8.9c.5,0,.7.2.7.7v39.4c0,3.1-.7,5.5-2,6.9-1.3,1.5-3.5,2.2-6.5,2.2h-7.8v.1Z"/>
    <path class="st0" d="M578,261.4c0,.5-.2.7-.7.7h-8.8c-.5,0-.7-.2-.7-.7v-47.9c0-.5.2-.7.7-.7h8.8c.5,0,.7.2.7.7v47.9Z"/>
    <path class="st0" d="M592.5,277.1c-.5,0-.7-.2-.7-.7v-7.4c0-.5.2-.7.7-.7h8.4c1,0,1.8-.1,2.6-.2s1.4-.4,2-.8,1-1.1,1.3-1.9.5-1.9.5-3.2h-3.1c-2.9,0-5.5-.2-7.8-.5s-4.3-1.1-5.9-2.1c-1.6-1.1-2.9-2.6-3.7-4.6s-1.3-4.6-1.3-7.9c0-3.1.4-5.7,1.3-7.8.9-2.1,2.1-3.8,3.6-5.2,1.5-1.3,3.2-2.3,5.1-2.8s3.9-.9,5.9-.9c2.1,0,4.2.3,6.1.8,1.9.5,3.6,1.4,5.1,2.7,1.5,1.2,2.6,2.9,3.5,5s1.3,4.7,1.3,7.8v16.9c0,4.6-1.2,7.9-3.5,10.2-2.3,2.2-5.9,3.3-10.8,3.3h-10.6ZM601.5,239.1c-2,0-3.5.7-4.5,2-1,1.4-1.5,3.2-1.5,5.5,0,2.7.6,4.4,1.7,5.3,1.1.9,2.6,1.3,4.5,1.3h5.6v-7c-.1-4.7-2-7.1-5.8-7.1Z"/>
    <path class="st0" d="M678.6,260.6c0,3.1-.5,5.7-1.4,7.8-.9,2.2-2.2,3.9-3.9,5.3-1.6,1.4-3.6,2.4-5.8,3.1-2.3.7-4.7,1-7.2,1s-4.9-.3-7.2-1-4.2-1.7-5.9-3.1-3-3.2-4-5.4c-1-2.2-1.5-4.8-1.5-7.9,0-2.4.4-4.9,1.1-7.4.7-2.5,1.7-4.8,2.9-7,.2-.3.6-.4,1.1-.2l7.8,2.5c.2.1.4.2.4.4s0,.4-.1.5c-.7,1.4-1.3,2.9-1.9,4.6-.6,1.7-.9,3.6-.9,5.7,0,1.7.2,3.1.7,4.3.5,1.2,1.1,2.1,1.9,2.8s1.7,1.2,2.7,1.6c1,.3,2,.5,3,.5,2.5,0,4.4-.7,5.8-2.1,1.4-1.4,2.1-3.6,2.1-6.5v-46.6c0-.5.2-.7.7-.7h8.8c.5,0,.7.2.7.7v36c.1,1.2.6,2.2,1.6,2.9.9.7,2.3,1.1,4,1.1h1.7c1,0,1.7.3,2.2,1s.7,1.8.7,3.3c0,3-1,4.4-2.9,4.4-1.5,0-2.9-.1-4.1-.4-1.2-.3-2.2-.9-3.1-1.9v.7h0Z"/>
    <path class="st0" d="M706.2,230.3c2.5,0,4.7.3,6.7.8,2,.6,3.7,1.4,5.1,2.4,1.4,1,2.5,2.3,3.2,3.9.8,1.6,1.1,3.3,1.1,5.4,0,2.3-.5,4.3-1.6,6.1s-2.4,3.3-4.1,4.5c.4,0,.8-.1,1.2-.1h8.6c1,0,1.7.3,2.2.9s.7,1.8.7,3.5c0,1.6-.2,2.8-.7,3.5s-1.2,1-2.2,1h-10.8c-1.7,0-3.4-.1-4.9-.2-1.6-.1-3-.7-4.4-1.5-1.6.9-3.3,1.4-5.1,1.5s-3.4.2-4.8.2h-10.5c-1,0-1.8-.3-2.2-1-.5-.7-.7-1.8-.7-3.5,0-1.5.2-2.7.7-3.3.5-.7,1.2-1,2.2-1h9.9c-1.6-1.1-3-2.6-4-4.4-1-1.8-1.6-3.9-1.6-6.1,0-2,.4-3.8,1.1-5.4.8-1.5,1.8-2.8,3.2-3.9,1.4-1,3.1-1.8,5.1-2.4,1.9-.6,4.2-.9,6.6-.9ZM697.2,224.2c-.5,0-.7-.2-.7-.7v-7.1c0-.5.2-.7.7-.7h7.3c.5,0,.7.2.7.7v7.1c0,.5-.2.7-.7.7h-7.3ZM706.2,237.5c-1.5,0-2.9.5-4.1,1.5-1.2,1-1.8,2.5-1.8,4.6s.6,4,1.7,5.3c1.2,1.3,2.5,2.4,4.1,3.2,1.6-.8,3-1.8,4.1-3.2s1.7-3.1,1.7-5.3-.6-3.7-1.8-4.6c-1-1-2.4-1.5-3.9-1.5ZM708.3,224.2c-.5,0-.7-.2-.7-.7v-7.1c0-.5.2-.7.7-.7h7.3c.5,0,.7.2.7.7v7.1c0,.5-.2.7-.7.7h-7.3Z"/>
    <path class="st0" d="M742,258.5c-.8,1.5-2,2.5-3.4,2.9-1.5.5-3.5.7-6.1.7h-5.8c-1,0-1.7-.2-2.2-.5s-.7-1-.7-2.1c0-.6,0-1.3.1-2s.3-1.4.5-2,.6-1.1.9-1.6c.4-.4.9-.6,1.5-.6h2.4c1.5,0,2.5-.4,2.9-1.3.4-.8.6-2.4.6-4.5v-15.3c0-.4.4-.6,1.1-.7s1.3-.1,1.9-.1h6.7c.5,0,.7.2.7.7v17.1c.1,1.2.6,2.2,1.6,2.9.9.7,2.3,1.1,4,1.1h1.7c1,0,1.7.3,2.2,1s.7,1.8.7,3.3c0,3-1,4.4-2.9,4.4-1.8,0-3.4-.2-4.8-.7-1.5-.1-2.6-1.1-3.6-2.7ZM733.4,224.2c-.5,0-.7-.2-.7-.7v-7.1c0-.5.2-.7.7-.7h9c.5,0,.7.2.7.7v7.1c0,.5-.2.7-.7.7h-9Z"/>
    <path class="st0" d="M750,262.2c-1,0-1.7-.2-2.2-.5s-.7-1-.7-2c0-.6.1-1.2.2-2s.3-1.4.5-2,.5-1.2.9-1.6.8-.7,1.3-.7h2.5c1.2,0,2.1-.3,2.7-.8.6-.6.8-1.6.8-3v-36c0-.5.2-.7.7-.7h8.9c.5,0,.7.2.7.7v39.4c0,3.1-.7,5.5-2,6.9-1.3,1.5-3.5,2.2-6.5,2.2h-7.8v.1Z"/>
    <path class="st0" d="M785.3,261.4c0,.5-.2.7-.7.7h-8.8c-.5,0-.7-.2-.7-.7v-47.9c0-.5.2-.7.7-.7h8.8c.5,0,.7.2.7.7v47.9Z"/>
    <path class="st0" d="M825.9,262.7c-2.3,0-4.4-.3-6.4-.8s-3.7-1.4-5.1-2.7c-1.4-1.2-2.6-2.9-3.4-4.9-.8-2-1.2-4.5-1.2-7.5,0-3.2.4-5.8,1.3-8,.9-2.1,2-3.8,3.5-5,1.5-1.3,3.2-2.2,5.1-2.7,1.9-.5,4-.8,6.1-.8s4.2.3,6.1.8c1.9.5,3.6,1.4,5.1,2.7s2.7,2.9,3.5,5c.9,2.1,1.3,4.8,1.3,8,0,3-.4,5.4-1.2,7.5-.8,2-1.9,3.7-3.4,4.9-1.4,1.2-3.1,2.1-5.1,2.7-1.8.5-4,.8-6.2.8ZM816.6,224.2c-.5,0-.7-.2-.7-.7v-7.1c0-.5.2-.7.7-.7h7.3c.5,0,.7.2.7.7v7.1c0,.5-.2.7-.7.7h-7.3ZM825.9,239.1c-4,0-6,2.4-6,7.3,0,2.8.5,4.7,1.5,5.8s2.5,1.6,4.4,1.6c2,0,3.5-.5,4.5-1.6s1.5-3,1.5-5.8c0-4.8-2-7.3-5.9-7.3ZM827.8,224.2c-.5,0-.7-.2-.7-.7v-7.1c0-.5.2-.7.7-.7h7.3c.5,0,.7.2.7.7v7.1c0,.5-.2.7-.7.7h-7.3Z"/>
    <path class="st0" d="M846.3,277.1c-.5,0-.7-.2-.7-.7v-7.4c0-.5.2-.7.7-.7h1.6c2,0,3.4-.5,4.2-1.5s1.3-2.6,1.3-4.6v-29.8c0-.5.2-.7.7-.7h8.9c.5,0,.7.2.7.7v30.1c0,5-1.2,8.7-3.5,11-2.3,2.4-5.9,3.6-10.6,3.6h-3.3Z"/>
    <path class="st0" d="M882.4,261.4c0,.5-.2.7-.7.7h-8.8c-.5,0-.7-.2-.7-.7v-47.9c0-.5.2-.7.7-.7h8.8c.5,0,.7.2.7.7v47.9Z"/>
    <path class="st0" d="M887.7,277.1c-.5,0-.7-.2-.7-.7v-7.4c0-.5.2-.7.7-.7h1.6c2,0,3.4-.5,4.2-1.5s1.3-2.6,1.3-4.6v-29.8c0-.5.2-.7.7-.7h8.9c.5,0,.7.2.7.7v30.1c0,5-1.2,8.7-3.5,11-2.3,2.4-5.9,3.6-10.6,3.6h-3.3ZM895.4,224.2c-.5,0-.7-.2-.7-.7v-7.1c0-.5.2-.7.7-.7h9c.5,0,.7.2.7.7v7.1c0,.5-.2.7-.7.7h-9Z"/>
    <path class="st0" d="M919.4,277.1c-.5,0-.7-.2-.7-.7v-7.4c0-.5.2-.7.7-.7h8.4c1,0,1.8-.1,2.6-.2s1.4-.4,2-.8,1-1.1,1.3-1.9.5-1.9.5-3.2h-3.1c-2.9,0-5.5-.2-7.8-.5s-4.3-1.1-5.9-2.1c-1.6-1.1-2.9-2.6-3.7-4.6s-1.3-4.6-1.3-7.9c0-3.1.4-5.7,1.3-7.8.9-2.1,2.1-3.8,3.6-5.2,1.5-1.3,3.2-2.3,5.1-2.8s3.9-.9,5.9-.9c2.1,0,4.2.3,6.1.8,1.9.5,3.6,1.4,5.1,2.7,1.5,1.2,2.6,2.9,3.5,5s1.3,4.7,1.3,7.8v16.9c0,4.6-1.2,7.9-3.5,10.2-2.3,2.2-5.9,3.3-10.8,3.3h-10.6ZM928.4,239.1c-2,0-3.5.7-4.5,2-1,1.4-1.5,3.2-1.5,5.5,0,2.7.6,4.4,1.7,5.3,1.1.9,2.6,1.3,4.5,1.3h5.6v-7c0-4.7-1.9-7.1-5.8-7.1Z"/>
  </g>
  <g>
    <path class="st0" d="M26.2,295.2c0-.3.1-.4.4-.4h5.2c.4,0,.6.1.7.4l7.6,17.1h.2l7.4-17.1c.1-.3.4-.4.7-.4h5.1c.3,0,.4.1.4.4v29c0,.3-.1.4-.4.4h-5c-.3,0-.4-.1-.4-.4v-16.9h-.1l-5.5,12.7c-.2.4-.5.6-.8.6h-3c-.4,0-.7-.2-.8-.6l-5.5-12.6h-.2v16.9c0,.3-.1.4-.4.4h-5c-.3,0-.4-.1-.4-.4v-29.1h-.2Z"/>
    <path class="st0" d="M62.2,300c-.3,0-.4-.1-.4-.4v-4.4c0-.3.1-.4.4-.4h5.3c.3,0,.4.1.4.4v4.4c0,.3-.1.4-.4.4h-5.3ZM62.2,324.7c-.3,0-.4-.1-.4-.4v-20.4c0-.3.1-.4.4-.4h5.3c.3,0,.4.1.4.4v20.4c0,.3-.1.4-.4.4h-5.3Z"/>
    <path class="st0" d="M88.8,324.7c-.3,0-.4-.1-.4-.4v-12.3c0-1.2-.3-2.1-.8-2.8-.5-.7-1.4-1.1-2.5-1.1s-1.9.4-2.5,1.1-.9,1.6-.9,2.8v12.2c0,.3-.1.4-.4.4h-5.3c-.3,0-.4-.1-.4-.4v-20.4c0-.3.1-.4.4-.4h5.3c.3,0,.4.1.4.4v1.5h0c.5-.7,1.2-1.2,2.1-1.7s2-.7,3.4-.7c1.2,0,2.2.2,3.1.6s1.7.9,2.3,1.6c.6.7,1.1,1.5,1.4,2.5s.5,2,.5,3.2v13.4c0,.3-.1.4-.4.4h-5.3v.1Z"/>
    <path class="st0" d="M102.4,300c-.3,0-.4-.1-.4-.4v-4.4c0-.3.1-.4.4-.4h5.3c.3,0,.4.1.4.4v4.4c0,.3-.1.4-.4.4h-5.3ZM102.4,324.7c-.3,0-.4-.1-.4-.4v-20.4c0-.3.1-.4.4-.4h5.3c.3,0,.4.1.4.4v20.4c0,.3-.1.4-.4.4h-5.3Z"/>
    <path class="st0" d="M124.1,325.2c-2.2,0-4.1-.3-5.7-1s-2.9-1.4-3.9-2.3c-.2-.2-.2-.4,0-.6l2.9-3.2c.2-.2.4-.2.6,0,.9.7,2,1.3,3.1,1.7,1.1.4,2.3.6,3.4.6s1.9-.2,2.5-.6c.5-.4.8-.9.8-1.5,0-.5-.2-.9-.6-1.2s-1.2-.5-2.4-.6l-2.4-.3c-2.3-.2-4-.9-5.2-2s-1.8-2.6-1.8-4.5c0-2.1.8-3.8,2.3-5s3.7-1.8,6.5-1.8c1.8,0,3.5.2,4.9.7,1.5.5,2.7,1.1,3.7,1.9.2.2.2.4,0,.7l-2.5,3c-.2.2-.4.2-.6.1-.7-.5-1.6-.9-2.6-1.2-1-.3-2.1-.5-3.2-.5-.9,0-1.6.2-2,.5s-.7.7-.7,1.3c0,.5.2.9.6,1.2.4.3,1.2.5,2.4.6l2.3.3c2.5.2,4.3.9,5.4,2.1,1.1,1.1,1.7,2.6,1.7,4.4,0,2.2-.9,4-2.5,5.3s-4,1.9-7,1.9Z"/>
    <path class="st0" d="M147.2,324.9c-2.5,0-4.2-.6-5.2-1.7s-1.5-2.9-1.5-5.4v-9.7c0-.2-.1-.3-.3-.3h-1.3c-.3,0-.4-.1-.4-.4v-3.7c0-.3.1-.4.4-.4h1.3c.2,0,.3-.1.3-.3v-5.7c0-.3.1-.4.4-.4h5.2c.3,0,.4.1.4.4v5.7c0,.2.1.3.3.3h2.7c.3,0,.4.1.4.4v3.7c0,.3-.1.4-.4.4h-2.7c-.2,0-.3.1-.3.3v9.4c0,.8.1,1.3.4,1.7.3.3.8.5,1.5.5h1.1c.3,0,.4.1.4.4v4.4c0,.3-.1.4-.4.4h-2.3Z"/>
    <path class="st0" d="M157.1,324.7c-.3,0-.4-.1-.4-.4v-20.4c0-.3.1-.4.4-.4h5.3c.3,0,.4.1.4.4v1.8h0c.5-.9,1.2-1.5,2.2-2,.9-.5,2.1-.7,3.4-.7.7,0,1.4.1,2,.3s1.2.5,1.7.9c.2.2.2.4.1.6l-2.5,4.5c-.1.2-.4.2-.6.1-1.1-.7-2.1-1-3.1-1-1.1.1-2,.5-2.5,1.3s-.8,1.9-.8,3.3v11.2c0,.3-.1.4-.4.4h-5.2v.1Z"/>
    <path class="st0" d="M178.8,332.6c-.3,0-.4-.1-.4-.4v-4.3c0-.3.1-.4.4-.4h.9c.8,0,1.4-.2,1.8-.5.5-.3.8-.9,1.1-1.7l.6-1.6-7.9-19.8c-.1-.3,0-.4.4-.4h5.6c.3,0,.4.1.5.4l4.3,12.3h.1l4-12.3c.1-.3.3-.4.5-.4h5.5c.3,0,.4.1.4.4l-8.6,22.7c-.4,1.2-.9,2.2-1.4,2.9s-1,1.4-1.6,1.9-1.2.8-2,1c-.7.2-1.6.3-2.6.3h-1.6v-.1Z"/>
    <path class="st0" d="M223.2,325.2c-2.3,0-4.2-.5-5.9-1.5-1.6-1-2.8-2.5-3.4-4.4-.2-.8-.4-1.5-.5-2.4-.1-.8-.2-1.7-.2-2.8s.1-2,.2-2.8c.1-.8.3-1.6.5-2.4.6-1.9,1.7-3.4,3.4-4.4,1.6-1,3.6-1.5,5.9-1.5s4.2.5,5.9,1.5c1.6,1,2.8,2.5,3.4,4.4.2.8.4,1.5.5,2.4.1.8.2,1.7.2,2.8s-.1,2-.2,2.8c-.1.8-.3,1.6-.5,2.4-.6,1.9-1.7,3.4-3.4,4.4s-3.7,1.5-5.9,1.5ZM223.2,320c1.7,0,2.8-.8,3.3-2.3.1-.5.2-1,.3-1.5s.1-1.2.1-2.1,0-1.6-.1-2.1-.2-1-.3-1.5c-.5-1.5-1.6-2.3-3.3-2.3s-2.8.8-3.3,2.3c-.1.5-.2,1-.3,1.5s-.1,1.2-.1,2.1,0,1.6.1,2.1.2,1,.3,1.5c.5,1.5,1.6,2.3,3.3,2.3Z"/>
    <path class="st0" d="M240.9,324.7c-.3,0-.4-.1-.4-.4v-16.1c0-.2-.1-.3-.3-.3h-1.3c-.3,0-.4-.1-.4-.4v-3.7c0-.3.1-.4.4-.4h1.3c.2,0,.3-.1.3-.3v-1c0-2.6.6-4.5,1.8-5.6s3.1-1.7,5.7-1.7h2.4c.3,0,.4.1.4.4v4.1c0,.3-.1.4-.4.4h-1.4c-1,0-1.6.2-1.9.5-.3.3-.5.9-.5,1.8v1.1c0,.2.1.3.3.3h3.5c.3,0,.4.1.4.4v3.7c0,.3-.1.4-.4.4h-3.5c-.2,0-.3.1-.3.3v16.1c0,.3-.1.4-.4.4h-5.3Z"/>
    <path class="st0" d="M275.3,324.7c-.3,0-.4-.1-.4-.4v-23.5c0-.2-.1-.3-.3-.3h-7.6c-.3,0-.4-.1-.4-.4v-4.9c0-.3.1-.4.4-.4h22.1c.3,0,.4.1.4.4v4.9c0,.3-.1.4-.4.4h-7.6c-.2,0-.3.1-.3.3v23.5c0,.3-.1.4-.4.4h-5.5Z"/>
    <path class="st0" d="M295.6,324.7c-.3,0-.4-.1-.4-.4v-20.4c0-.3.1-.4.4-.4h5.3c.3,0,.4.1.4.4v1.8h0c.5-.9,1.2-1.5,2.2-2,.9-.5,2.1-.7,3.4-.7.7,0,1.4.1,2,.3s1.2.5,1.7.9c.2.2.2.4.1.6l-2.5,4.5c-.1.2-.4.2-.6.1-1.1-.7-2.1-1-3.1-1-1.1.1-2,.5-2.5,1.3s-.8,1.9-.8,3.3v11.2c0,.3-.1.4-.4.4h-5.2v.1Z"/>
    <path class="st0" d="M327.4,324.7c-.3,0-.4-.1-.4-.4v-1.4h0c-.6.7-1.3,1.3-2.2,1.7-.9.4-2.1.6-3.6.6-.9,0-1.8-.1-2.7-.4-.9-.2-1.6-.6-2.3-1.2-.6-.5-1.2-1.2-1.5-2-.4-.8-.6-1.8-.6-2.9,0-2.3.8-4.1,2.4-5.2s3.8-1.7,6.4-1.7h3.8c.2,0,.3-.1.3-.3v-.8c0-1-.3-1.7-.9-2.2s-1.8-.7-3.5-.7c-1.1,0-2,.1-2.8.4s-1.4.6-1.9,1c-.2.2-.4.1-.6-.1l-2-3.5c-.1-.3-.1-.5.1-.6.9-.6,2-1.2,3.3-1.5,1.3-.4,2.8-.6,4.6-.6,1.7,0,3.2.2,4.4.5,1.2.3,2.2.8,2.9,1.4.7.6,1.3,1.4,1.6,2.4.3,1,.5,2.1.5,3.4v13.6c0,.3-.1.4-.4.4h-4.9v.1ZM323,320.5c2.6,0,4-1,4-2.9v-1.5c0-.2-.1-.3-.3-.3h-3c-2.5,0-3.8.8-3.8,2.4,0,1.6,1,2.3,3.1,2.3Z"/>
    <path class="st0" d="M353.5,324.7c-.3,0-.4-.1-.4-.4v-12.3c0-1.2-.3-2.1-.8-2.8-.5-.7-1.4-1.1-2.5-1.1s-1.9.4-2.5,1.1-.9,1.6-.9,2.8v12.2c0,.3-.1.4-.4.4h-5.3c-.3,0-.4-.1-.4-.4v-20.4c0-.3.1-.4.4-.4h5.3c.3,0,.4.1.4.4v1.5h0c.5-.7,1.2-1.2,2.1-1.7s2-.7,3.4-.7c1.2,0,2.2.2,3.1.6s1.7.9,2.3,1.6c.6.7,1.1,1.5,1.4,2.5s.5,2,.5,3.2v13.4c0,.3-.1.4-.4.4h-5.3v.1Z"/>
    <path class="st0" d="M375,325.2c-2.2,0-4.1-.3-5.7-1s-2.9-1.4-3.9-2.3c-.2-.2-.2-.4,0-.6l2.9-3.2c.2-.2.4-.2.6,0,.9.7,2,1.3,3.1,1.7,1.1.4,2.3.6,3.4.6s1.9-.2,2.5-.6c.5-.4.8-.9.8-1.5,0-.5-.2-.9-.6-1.2s-1.2-.5-2.4-.6l-2.4-.3c-2.3-.2-4-.9-5.2-2s-1.8-2.6-1.8-4.5c0-2.1.8-3.8,2.3-5s3.7-1.8,6.5-1.8c1.8,0,3.5.2,4.9.7,1.5.5,2.7,1.1,3.7,1.9.2.2.2.4,0,.7l-2.5,3c-.2.2-.4.2-.6.1-.7-.5-1.6-.9-2.6-1.2-1-.3-2.1-.5-3.2-.5-.9,0-1.6.2-2,.5s-.7.7-.7,1.3c0,.5.2.9.6,1.2.4.3,1.2.5,2.4.6l2.3.3c2.5.2,4.3.9,5.4,2.1,1.1,1.1,1.7,2.6,1.7,4.4,0,2.2-.9,4-2.5,5.3s-3.9,1.9-7,1.9Z"/>
    <path class="st0" d="M391.4,332.6c-.3,0-.4-.1-.4-.4v-28.3c0-.3.1-.4.4-.4h5.3c.3,0,.4.1.4.4v1.5h0c.5-.7,1.2-1.3,2.1-1.8s2.1-.7,3.5-.7c1.8,0,3.3.4,4.5,1.3s2.1,2.1,2.7,3.8c.3.9.5,1.7.6,2.6s.2,2,.2,3.4-.1,2.5-.2,3.4-.3,1.8-.6,2.6c-.6,1.7-1.5,2.9-2.7,3.8s-2.7,1.3-4.5,1.3c-1.4,0-2.6-.2-3.5-.7s-1.6-1-2.1-1.8h0v9.5c0,.3-.1.4-.4.4h-5.3v.1ZM400.7,320c1.7,0,2.8-.8,3.3-2.3.1-.4.2-.9.3-1.4.1-.5.1-1.3.1-2.2s0-1.7-.1-2.2-.2-1-.3-1.4c-.5-1.5-1.6-2.3-3.3-2.3s-2.8.8-3.3,2.3c-.1.4-.2.9-.3,1.4-.1.5-.1,1.3-.1,2.2s0,1.7.1,2.2.2,1,.3,1.4c.6,1.5,1.7,2.3,3.3,2.3Z"/>
    <path class="st0" d="M426.1,325.2c-2.3,0-4.2-.5-5.9-1.5-1.6-1-2.8-2.5-3.4-4.4-.2-.8-.4-1.5-.5-2.4-.1-.8-.2-1.7-.2-2.8s.1-2,.2-2.8.3-1.6.5-2.4c.6-1.9,1.7-3.4,3.4-4.4,1.6-1,3.6-1.5,5.9-1.5s4.2.5,5.9,1.5c1.6,1,2.8,2.5,3.4,4.4.2.8.4,1.5.5,2.4.1.8.2,1.7.2,2.8s-.1,2-.2,2.8-.3,1.6-.5,2.4c-.6,1.9-1.7,3.4-3.4,4.4-1.7,1-3.6,1.5-5.9,1.5ZM426.1,320c1.7,0,2.8-.8,3.3-2.3.1-.5.2-1,.3-1.5.1-.5.1-1.2.1-2.1s0-1.6-.1-2.1-.2-1-.3-1.5c-.5-1.5-1.6-2.3-3.3-2.3s-2.8.8-3.3,2.3c-.1.5-.2,1-.3,1.5-.1.5-.1,1.2-.1,2.1s0,1.6.1,2.1.2,1,.3,1.5c.5,1.5,1.6,2.3,3.3,2.3Z"/>
    <path class="st0" d="M443.1,324.7c-.3,0-.4-.1-.4-.4v-20.4c0-.3.1-.4.4-.4h5.3c.3,0,.4.1.4.4v1.8h0c.5-.9,1.2-1.5,2.2-2,.9-.5,2.1-.7,3.4-.7.7,0,1.4.1,2,.3s1.2.5,1.7.9c.2.2.2.4.1.6l-2.5,4.5c-.1.2-.4.2-.6.1-1.1-.7-2.1-1-3.1-1-1.1.1-2,.5-2.5,1.3s-.8,1.9-.8,3.3v11.2c0,.3-.1.4-.4.4h-5.2v.1Z"/>
    <path class="st0" d="M470.7,324.9c-2.5,0-4.2-.6-5.2-1.7s-1.5-2.9-1.5-5.4v-9.7c0-.2-.1-.3-.3-.3h-1.3c-.3,0-.4-.1-.4-.4v-3.7c0-.3.1-.4.4-.4h1.3c.2,0,.3-.1.3-.3v-5.7c0-.3.1-.4.4-.4h5.2c.3,0,.4.1.4.4v5.7c0,.2.1.3.3.3h2.7c.3,0,.4.1.4.4v3.7c0,.3-.1.4-.4.4h-2.7c-.2,0-.3.1-.3.3v9.4c0,.8.1,1.3.4,1.7.3.3.8.5,1.5.5h1.1c.3,0,.4.1.4.4v4.4c0,.3-.1.4-.4.4h-2.3Z"/>
    <path class="st0" d="M505,324.7c-.3,0-.4-.1-.4-.4v-1.4h0c-.6.7-1.3,1.3-2.2,1.7-.9.4-2.1.6-3.6.6-.9,0-1.8-.1-2.7-.4-.9-.2-1.6-.6-2.3-1.2-.6-.5-1.2-1.2-1.5-2-.4-.8-.6-1.8-.6-2.9,0-2.3.8-4.1,2.4-5.2s3.8-1.7,6.4-1.7h3.8c.2,0,.3-.1.3-.3v-.8c0-1-.3-1.7-.9-2.2s-1.8-.7-3.5-.7c-1.1,0-2,.1-2.8.4s-1.4.6-1.9,1c-.2.2-.4.1-.6-.1l-2-3.5c-.1-.3-.1-.5.1-.6.9-.6,2-1.2,3.3-1.5,1.3-.4,2.8-.6,4.6-.6,1.7,0,3.2.2,4.4.5,1.2.3,2.2.8,2.9,1.4.7.6,1.3,1.4,1.6,2.4.3,1,.5,2.1.5,3.4v13.6c0,.3-.1.4-.4.4h-4.9v.1ZM500.5,320.5c2.6,0,4-1,4-2.9v-1.5c0-.2-.1-.3-.3-.3h-3c-2.5,0-3.8.8-3.8,2.4.1,1.6,1.1,2.3,3.1,2.3Z"/>
    <path class="st0" d="M531.1,324.7c-.3,0-.4-.1-.4-.4v-12.3c0-1.2-.3-2.1-.8-2.8s-1.4-1.1-2.5-1.1-1.9.4-2.5,1.1-.9,1.6-.9,2.8v12.2c0,.3-.1.4-.4.4h-5.3c-.3,0-.4-.1-.4-.4v-20.4c0-.3.1-.4.4-.4h5.3c.3,0,.4.1.4.4v1.5h0c.5-.7,1.2-1.2,2.1-1.7.9-.5,2-.7,3.4-.7,1.2,0,2.2.2,3.1.6.9.4,1.7.9,2.3,1.6s1.1,1.5,1.4,2.5c.3,1,.5,2,.5,3.2v13.4c0,.3-.1.4-.4.4h-5.3v.1Z"/>
    <path class="st0" d="M557.2,324.7c-.3,0-.4-.1-.4-.4v-1.5h0c-.5.7-1.2,1.3-2.1,1.8-.9.5-2.1.7-3.5.7-1.8,0-3.3-.4-4.5-1.3s-2.1-2.1-2.7-3.8c-.3-.9-.5-1.7-.6-2.6s-.2-2-.2-3.4.1-2.6.2-3.4.3-1.7.6-2.6c.6-1.7,1.5-3,2.7-3.8,1.2-.9,2.7-1.3,4.5-1.3,1.4,0,2.6.2,3.5.7s1.6,1,2.1,1.8h0v-10.2c0-.3.1-.4.4-.4h5.3c.3,0,.4.1.4.4v29c0,.3-.1.4-.4.4h-5.3v-.1ZM553.1,320c1.7,0,2.8-.8,3.3-2.3.1-.4.2-.9.3-1.4s.1-1.3.1-2.2,0-1.7-.1-2.2-.2-1-.3-1.4c-.5-1.5-1.6-2.3-3.3-2.3s-2.8.8-3.3,2.3c-.1.4-.2.9-.3,1.4s-.1,1.3-.1,2.2,0,1.7.1,2.2.2,1,.3,1.4c.5,1.5,1.6,2.3,3.3,2.3Z"/>
    <path class="st0" d="M583.1,295.2c0-.3.1-.4.4-.4h5.6c.3,0,.4.1.4.4v23.5c0,.2.1.3.3.3h13.2c.3,0,.4.1.4.4v4.9c0,.3-.1.4-.4.4h-19.5c-.3,0-.4-.1-.4-.4v-29.1Z"/>
    <path class="st0" d="M618.2,325.2c-2.3,0-4.2-.5-5.9-1.5s-2.8-2.5-3.4-4.4c-.2-.8-.4-1.5-.5-2.4s-.2-1.7-.2-2.8.1-2,.2-2.8c.1-.8.3-1.6.5-2.4.6-1.9,1.7-3.4,3.4-4.4,1.6-1,3.6-1.5,5.9-1.5s4.2.5,5.9,1.5c1.6,1,2.8,2.5,3.4,4.4.2.8.4,1.5.5,2.4.1.8.2,1.7.2,2.8s-.1,2-.2,2.8-.3,1.6-.5,2.4c-.6,1.9-1.7,3.4-3.4,4.4s-3.7,1.5-5.9,1.5ZM618.2,320c1.7,0,2.8-.8,3.3-2.3.1-.5.2-1,.3-1.5s.1-1.2.1-2.1,0-1.6-.1-2.1-.2-1-.3-1.5c-.5-1.5-1.6-2.3-3.3-2.3s-2.8.8-3.3,2.3c-.1.5-.2,1-.3,1.5s-.1,1.2-.1,2.1,0,1.6.1,2.1.2,1,.3,1.5c.4,1.5,1.5,2.3,3.3,2.3Z"/>
    <path class="st0" d="M642.4,333.1c-.8,0-1.6-.1-2.4-.2-.8-.2-1.5-.4-2.3-.7-.7-.3-1.4-.6-2-1s-1.1-.8-1.5-1.3c-.2-.2-.2-.5,0-.7l3.1-3.2c.2-.2.4-.2.7,0,.7.6,1.4,1,2.1,1.4.7.3,1.5.5,2.3.5,1.5,0,2.6-.4,3.3-1.2.7-.8,1-2,1-3.5v-1.8h0c-.5.8-1.2,1.4-2.1,1.8-.9.4-2,.7-3.4.7-1.8,0-3.2-.4-4.5-1.3-1.2-.9-2.1-2.1-2.7-3.9-.2-.8-.4-1.6-.5-2.4s-.2-1.8-.2-2.9.1-2.1.2-2.9.3-1.6.5-2.4c.6-1.7,1.4-3,2.7-3.9,1.2-.9,2.7-1.3,4.5-1.3,1.3,0,2.5.2,3.4.7.9.4,1.6,1,2.1,1.8h0v-1.5c0-.3.1-.4.4-.4h5.3c.3,0,.4.1.4.4v18.6c.2,7-3.3,10.6-10.4,10.6ZM643.3,318.7c.8,0,1.5-.2,2-.6s.9-1,1.1-1.7c.1-.4.2-.8.3-1.3s.1-1,.1-1.7,0-1.2-.1-1.7-.2-.9-.3-1.3c-.2-.8-.6-1.3-1.1-1.7-.5-.4-1.2-.6-2-.6-.9,0-1.5.2-2,.6s-.9,1-1.1,1.7c-.1.4-.2.8-.3,1.3s-.1,1-.1,1.7,0,1.2.1,1.7.1.9.3,1.3c.3.8.6,1.3,1.1,1.7.4.4,1.1.6,2,.6Z"/>
    <path class="st0" d="M661,300c-.3,0-.4-.1-.4-.4v-4.4c0-.3.1-.4.4-.4h5.3c.3,0,.4.1.4.4v4.4c0,.3-.1.4-.4.4h-5.3ZM661,324.7c-.3,0-.4-.1-.4-.4v-20.4c0-.3.1-.4.4-.4h5.3c.3,0,.4.1.4.4v20.4c0,.3-.1.4-.4.4h-5.3Z"/>
    <path class="st0" d="M682.7,325.2c-2.2,0-4.1-.3-5.7-1s-2.9-1.4-3.9-2.3c-.2-.2-.2-.4,0-.6l2.9-3.2c.2-.2.4-.2.6,0,.9.7,2,1.3,3.1,1.7,1.1.4,2.3.6,3.4.6s1.9-.2,2.5-.6c.5-.4.8-.9.8-1.5,0-.5-.2-.9-.6-1.2-.4-.3-1.2-.5-2.4-.6l-2.4-.3c-2.3-.2-4-.9-5.2-2s-1.8-2.6-1.8-4.5c0-2.1.8-3.8,2.3-5s3.7-1.8,6.5-1.8c1.8,0,3.5.2,4.9.7,1.5.5,2.7,1.1,3.7,1.9.2.2.2.4,0,.7l-2.5,3c-.2.2-.4.2-.6.1-.7-.5-1.6-.9-2.6-1.2-1-.3-2.1-.5-3.2-.5-.9,0-1.6.2-2,.5s-.7.7-.7,1.3c0,.5.2.9.6,1.2.4.3,1.2.5,2.4.6l2.3.3c2.5.2,4.3.9,5.4,2.1,1.1,1.1,1.6,2.6,1.6,4.4,0,2.2-.9,4-2.5,5.3s-3.8,1.9-6.9,1.9Z"/>
    <path class="st0" d="M705.9,324.9c-2.5,0-4.2-.6-5.2-1.7s-1.5-2.9-1.5-5.4v-9.7c0-.2-.1-.3-.3-.3h-1.3c-.3,0-.4-.1-.4-.4v-3.7c0-.3.1-.4.4-.4h1.3c.2,0,.3-.1.3-.3v-5.7c0-.3.1-.4.4-.4h5.2c.3,0,.4.1.4.4v5.7c0,.2.1.3.3.3h2.7c.3,0,.4.1.4.4v3.7c0,.3-.1.4-.4.4h-2.7c-.2,0-.3.1-.3.3v9.4c0,.8.1,1.3.4,1.7.3.3.8.5,1.5.5h1.1c.3,0,.4.1.4.4v4.4c0,.3-.1.4-.4.4h-2.3Z"/>
    <path class="st0" d="M715.7,300c-.3,0-.4-.1-.4-.4v-4.4c0-.3.1-.4.4-.4h5.3c.3,0,.4.1.4.4v4.4c0,.3-.1.4-.4.4h-5.3ZM715.7,324.7c-.3,0-.4-.1-.4-.4v-20.4c0-.3.1-.4.4-.4h5.3c.3,0,.4.1.4.4v20.4c0,.3-.1.4-.4.4h-5.3Z"/>
    <path class="st0" d="M737.9,325.2c-2.3,0-4.2-.5-5.8-1.5s-2.7-2.5-3.4-4.5c-.2-.6-.4-1.4-.5-2.2-.1-.8-.2-1.8-.2-2.9s.1-2.1.2-2.9c.1-.8.3-1.6.5-2.2.6-2,1.8-3.5,3.4-4.5,1.6-1,3.5-1.5,5.8-1.5,1.8,0,3.5.4,4.8,1.1,1.4.7,2.4,1.7,3.2,2.9.1.2.1.4-.1.6l-3.8,2.4c-.3.2-.5.1-.7-.1-.5-.6-1-1.1-1.5-1.4s-1.2-.4-1.9-.4c-.8,0-1.5.2-2.1.6s-1,1-1.2,1.7c-.1.4-.2.9-.3,1.5s-.1,1.3-.1,2.2,0,1.6.1,2.2.2,1.1.3,1.5c.2.8.6,1.3,1.2,1.7.6.4,1.3.6,2.1.6s1.4-.1,1.9-.4,1-.8,1.5-1.4c.2-.2.4-.3.7-.1l3.8,2.5c.2.2.2.4.1.6-.8,1.2-1.8,2.1-3.2,2.9-1.4.6-3,1-4.8,1Z"/>
    <path class="st0" d="M774.9,325.2c-1.2,0-2.3-.1-3.5-.3-1.1-.2-2.2-.5-3.2-.9s-1.9-.8-2.8-1.3c-.8-.5-1.5-1-2.1-1.6-.2-.2-.2-.5,0-.7l3.3-3.8c.2-.2.4-.2.7,0,1,.8,2.2,1.5,3.5,2.1s2.8.9,4.4.9,2.8-.3,3.6-1,1.3-1.5,1.3-2.6c0-.9-.3-1.6-1-2.2-.6-.6-1.9-1-3.7-1.2l-1.6-.2c-3.1-.4-5.4-1.3-7-2.8s-2.4-3.5-2.4-6.2c0-1.4.2-2.6.7-3.8.5-1.1,1.2-2.1,2.1-2.9.9-.8,2-1.4,3.3-1.8s2.8-.7,4.4-.7c2,0,3.9.3,5.6.8,1.8.6,3.3,1.3,4.5,2.3.3.2.3.4.1.7l-2.7,4c-.2.2-.4.3-.6.1-1.1-.8-2.3-1.3-3.4-1.7-1.1-.4-2.3-.6-3.5-.6-1.3,0-2.3.3-3,.9s-1,1.4-1,2.3.3,1.6,1,2.1c.7.6,1.9,1,3.6,1.2l1.6.2c3.1.4,5.5,1.3,7,2.8s2.4,3.5,2.4,6.3c0,1.3-.2,2.6-.7,3.8-.5,1.2-1.2,2.2-2.2,3s-2.2,1.5-3.7,2-3,.8-5,.8Z"/>
    <path class="st0" d="M802.1,325.2c-2.4,0-4.5-.5-6.1-1.6s-2.7-2.6-3.3-4.5c-.2-.7-.4-1.4-.5-2.2s-.2-1.7-.2-2.9c0-1.1.1-2.1.2-2.9.1-.8.3-1.5.5-2.2.6-1.9,1.7-3.4,3.3-4.5,1.6-1,3.5-1.6,5.8-1.6s4.3.5,5.9,1.6c1.6,1.1,2.7,2.5,3.3,4.4.1.4.2.7.3,1.1s.2.8.2,1.3c.1.5.1,1.1.1,1.7v2.4c0,.3-.2.4-.5.4h-12.9c-.2,0-.3.1-.3.3,0,.4.1.8.3,1.2.3.9.8,1.6,1.6,2.1s1.7.7,2.8.7,2-.2,2.8-.5,1.5-.8,2.1-1.4c.3-.2.5-.2.6,0l2.9,2.7c.2.2.2.4,0,.6-1,1.1-2.3,2-3.8,2.6-1.4.8-3.1,1.2-5.1,1.2ZM805.4,311.8c.2,0,.3-.1.3-.3,0-.3,0-.6-.1-.9s-.1-.5-.2-.7c-.2-.7-.7-1.3-1.3-1.7-.6-.4-1.4-.6-2.3-.6s-1.6.2-2.3.6c-.6.4-1.1,1-1.3,1.7-.1.2-.1.5-.2.7,0,.2-.1.5-.1.9,0,.2.1.3.3.3h7.2Z"/>
    <path class="st0" d="M818.7,324.7c-.3,0-.4-.1-.4-.4v-20.4c0-.3.1-.4.4-.4h5.3c.3,0,.4.1.4.4v1.8h0c.5-.9,1.2-1.5,2.2-2,.9-.5,2.1-.7,3.4-.7.7,0,1.4.1,2,.3.7.2,1.2.5,1.7.9.2.2.2.4.1.6l-2.5,4.5c-.1.2-.4.2-.6.1-1.1-.7-2.1-1-3.1-1-1.1.1-2,.5-2.5,1.3s-.8,1.9-.8,3.3v11.2c0,.3-.1.4-.4.4h-5.2v.1Z"/>
    <path class="st0" d="M845.1,324.7c-.3,0-.4-.1-.5-.4l-7.6-20.4c-.1-.3,0-.4.4-.4h5.5c.3,0,.5.1.6.4l4.1,12.6h.1l4-12.6c.1-.3.3-.4.6-.4h5.5c.3,0,.4.1.4.4l-7.6,20.4c-.1.3-.3.4-.5.4h-5Z"/>
    <path class="st0" d="M863.9,300c-.3,0-.4-.1-.4-.4v-4.4c0-.3.1-.4.4-.4h5.3c.3,0,.4.1.4.4v4.4c0,.3-.1.4-.4.4h-5.3ZM863.9,324.7c-.3,0-.4-.1-.4-.4v-20.4c0-.3.1-.4.4-.4h5.3c.3,0,.4.1.4.4v20.4c0,.3-.1.4-.4.4h-5.3Z"/>
    <path class="st0" d="M886.1,325.2c-2.3,0-4.2-.5-5.8-1.5s-2.7-2.5-3.4-4.5c-.2-.6-.4-1.4-.5-2.2-.1-.8-.2-1.8-.2-2.9s.1-2.1.2-2.9c.1-.8.3-1.6.5-2.2.6-2,1.8-3.5,3.4-4.5,1.6-1,3.5-1.5,5.8-1.5,1.8,0,3.5.4,4.8,1.1,1.4.7,2.4,1.7,3.2,2.9.1.2.1.4-.1.6l-3.8,2.5c-.3.2-.5.1-.7-.1-.5-.6-1-1.1-1.5-1.4s-1.2-.4-1.9-.4c-.8,0-1.5.2-2.1.6s-1,1-1.2,1.7c-.1.4-.2.9-.3,1.5s-.1,1.3-.1,2.2,0,1.6.1,2.2.2,1.1.3,1.5c.2.8.6,1.3,1.2,1.7.6.4,1.3.6,2.1.6s1.4-.1,1.9-.4,1-.8,1.5-1.4c.2-.2.4-.3.7-.1l3.8,2.5c.2.2.2.4.1.6-.8,1.2-1.8,2.1-3.2,2.9-1.4.5-3,.9-4.8.9Z"/>
    <path class="st0" d="M909.6,325.2c-2.4,0-4.5-.5-6.1-1.6s-2.7-2.6-3.3-4.5c-.2-.7-.4-1.4-.5-2.2s-.2-1.7-.2-2.9c0-1.1.1-2.1.2-2.9.1-.8.3-1.5.5-2.2.6-1.9,1.7-3.4,3.3-4.5,1.6-1,3.5-1.6,5.8-1.6s4.3.5,5.9,1.6c1.6,1.1,2.7,2.5,3.3,4.4.1.4.2.7.3,1.1s.2.8.2,1.3c.1.5.1,1.1.1,1.7v2.4c0,.3-.2.4-.5.4h-12.9c-.2,0-.3.1-.3.3,0,.4.1.8.3,1.2.3.9.8,1.6,1.6,2.1s1.7.7,2.8.7,2-.2,2.8-.5,1.5-.8,2.1-1.4c.3-.2.5-.2.6,0l2.9,2.7c.2.2.2.4,0,.6-1,1.1-2.3,2-3.8,2.6-1.4.8-3.1,1.2-5.1,1.2ZM912.9,311.8c.2,0,.3-.1.3-.3,0-.3,0-.6-.1-.9s-.1-.5-.2-.7c-.2-.7-.7-1.3-1.3-1.7-.6-.4-1.4-.6-2.3-.6s-1.6.2-2.3.6c-.6.4-1.1,1-1.3,1.7-.1.2-.1.5-.2.7,0,.2-.1.5-.1.9,0,.2.1.3.3.3h7.2Z"/>
    <path class="st0" d="M934.1,325.2c-2.2,0-4.1-.3-5.7-1s-2.9-1.4-3.9-2.3c-.2-.2-.2-.4,0-.6l2.9-3.2c.2-.2.4-.2.6,0,.9.7,2,1.3,3.1,1.7,1.1.4,2.3.6,3.4.6s1.9-.2,2.5-.6c.5-.4.8-.9.8-1.5,0-.5-.2-.9-.6-1.2-.4-.3-1.2-.5-2.4-.6l-2.4-.3c-2.3-.2-4-.9-5.2-2s-1.8-2.6-1.8-4.5c0-2.1.8-3.8,2.3-5s3.7-1.8,6.5-1.8c1.8,0,3.5.2,4.9.7,1.5.5,2.7,1.1,3.7,1.9.2.2.2.4,0,.7l-2.5,3c-.2.2-.4.2-.6.1-.7-.5-1.6-.9-2.6-1.2-1-.3-2.1-.5-3.2-.5-.9,0-1.6.2-2,.5s-.7.7-.7,1.3c0,.5.2.9.6,1.2.4.3,1.2.5,2.4.6l2.3.3c2.5.2,4.3.9,5.4,2.1,1.1,1.1,1.6,2.6,1.6,4.4,0,2.2-.9,4-2.5,5.3s-3.8,1.9-6.9,1.9Z"/>
  </g>
  <g>
    <rect class="st0" x="1059.1" y="218.8" width="14.1" height="36.8"/>
    <rect class="st0" x="1059.1" y="173.2" width="14.1" height="40.5"/>
    <path class="st0" d="M1071.9,140.9l-1-1.9c-.7-1.1-1.3-2.2-1.9-3.3-.7-1.4-1.6-2.7-2.5-4-.9,1.3-1.7,2.6-2.5,4-.6,1.1-1.3,2.2-1.9,3.2l-1.8,3.3-1.2,2.2v24.3h14.1v-25.4l-.6-1-.7-1.4Z"/>
    <path class="st0" d="M1099.8,272.2v16.1c0,16.1-11.4,29.6-26.5,32.8v-26.7h-14.1v26.7c-15.2-3.2-26.5-16.7-26.5-32.8v-16.1l-12.8,23.1.1.5c3.4,20.7,19.7,36.3,40,39l6.5,4.4,6.6-4.5c20.1-2.8,36.3-18.3,39.6-38.9l.1-.5-13-23.1Z"/>
    <path class="st0" d="M1068.3,107.6l-1.7-1.9-.6-.6-.6-.6c-.9-1-1.8-1.9-2.7-2.9-1.9-1.9-3.8-3.7-5.7-5.5-2-1.7-3.9-3.4-5.8-5-2-1.5-3.9-3-5.8-4.4s-3.8-2.6-5.7-3.8c-1.9-1.2-3.6-2.4-5.5-3.3-1.8-1-3.5-1.9-5.1-2.8s-3.3-1.6-4.7-2.3c-3-1.4-5.6-2.6-7.9-3.4-4.5-1.6-7-2.5-7-2.5,0,0,2,1.9,5.6,4.9,1.8,1.5,3.9,3.4,6.4,5.5,2.5,2,5.1,4.5,8,7.2,1.5,1.3,2.9,2.7,4.4,4.2s3.2,2.9,4.7,4.5c1.6,1.6,3.1,3.2,4.8,4.8,1.4,1.6,2.9,3.1,4.4,4.7,4.6.7,8.9,1.6,13,2.7l1.8.5.6.1.3.1.9.2,1.1.3.7.2.8-.2,1.5-.4-.2-.3Z"/>
    <path class="st0" d="M1069.6,106.5l.1.1.7.9,1.4-.4c4.4-1.2,9-2.1,13.9-2.8,1.4-1.5,2.8-3,4.2-4.5,1.6-1.6,3.2-3.2,4.8-4.8,1.5-1.6,3.2-3,4.7-4.5s3-2.9,4.5-4.1c2.9-2.6,5.6-5.1,8.1-7.1,2.5-2.1,4.6-4,6.4-5.4,3.6-3,5.6-4.8,5.6-4.8,0,0-2.6.8-7.1,2.4-2.3.8-4.9,1.9-7.9,3.3-1.5.7-3.1,1.4-4.8,2.3-1.6.9-3.3,1.8-5.2,2.8-1.8.9-3.6,2.1-5.5,3.3-1.9,1.2-3.8,2.4-5.7,3.8-1.9,1.4-3.8,2.8-5.8,4.4-1.9,1.6-3.9,3.2-5.8,4.9-1.9,1.7-3.8,3.6-5.7,5.4-.9.9-1.8,1.9-2.7,2.9l1.1,1.3.7.6Z"/>
    <path class="st0" d="M1097.2,178.2c-.2-4.1-.7-8.6-1.5-13.3s-2-9.6-3.5-14.6c-1.2-3.9-2.7-7.8-4.4-11.7l-7.6-3.7c-1-.4-2-.9-3-1.3-1.7-.7-3.4-1.5-5.1-2.1l-2.5-1-1.9-.8-.7-.3.4.7c1,1.6,2,3.1,2.9,4.7.6,1.1,1.3,2.2,1.9,3.2.6,1.1,1.2,2.2,1.8,3.3,1.2,2.2,2.2,4.4,3.4,6.6,1,2.2,2.1,4.4,3,6.6,1.9,4.4,3.5,8.7,5,12.8,1.4,4.2,2.7,8.2,3.6,11.9,2.1,7.5,3.3,14,4.1,18.5.3,2.3.6,4.1.8,5.4.2,1.3.2,1.9.2,1.9,0,0,.2-.6.6-1.9.3-1.2.8-3,1.2-5.4.4-2.4.9-5.2,1.1-8.6.3-3,.4-6.8.2-10.9"/>
    <path class="st0" d="M1066,129.4l-.8.3-2.2.9-2.5,1c-1.7.7-3.4,1.4-5.1,2.1-1,.4-2,.9-2.9,1.3l-7.4,3.5c-1.7,3.9-3.2,7.8-4.5,11.6-1.6,5-2.8,9.9-3.7,14.5-.8,4.7-1.4,9.1-1.6,13.3-.2,4.1-.2,7.9,0,11.2s.6,6.2,1,8.6c.3,2.4.8,4.2,1.1,5.4.3,1.2.6,1.9.6,1.9,0,0,.1-.7.2-1.9.2-1.2.5-3.1.8-5.4.8-4.6,2.1-11,4.2-18.5,1-3.7,2.3-7.7,3.8-11.9s3.2-8.5,5.1-12.8c1-2.2,2-4.4,3.1-6.6,1.1-2.2,2.2-4.4,3.4-6.6.6-1.1,1.2-2.2,1.8-3.3.7-1.1,1.3-2.1,1.9-3.2.9-1.6,1.9-3.1,2.9-4.7l.8-.7h0Z"/>
    <path class="st0" d="M1062.4,109.3l-.9-.2-1-.3c-3.6-1-7.2-1.7-10.9-2.3l-1.3-.2-1.3-.2c-1.7-.2-3.3-.5-5-.7-5.2-.6-10.4-.8-15.3-.8h-2.2c-5.5.2-10.8.6-15.5,1.3-4.8.7-9.1,1.6-12.8,2.6-3.8,1-7,2.1-9.6,3.1-2.6.9-4.6,2-5.9,2.6-1.3.7-2,1.1-2,1.1,0,0,.8-.1,2.3-.2s3.6-.2,6.3-.3c1.7,0,3.6-.1,5.7-.1,4.6,0,10.2.1,16.4.6,4.5.3,9.4.9,14.5,1.5,5,.7,10.2,1.6,15.5,2.8,1.5-.8,3.1-1.6,4.7-2.5,1-.5,2-.9,3-1.4,1.9-.9,3.9-1.8,5.9-2.6h0l.8-.3.8-.3.9-.3c1.5-.6,3-1.1,4.6-1.7l1.5-.5.6-.2.9-.3h0l-.7-.2Z"/>
    <path class="st0" d="M1149.6,174.2c-1.4-2.4-3.3-5.1-5.6-8.3-1.1-1.6-2.3-3.3-3.7-4.9-1.4-1.7-2.9-3.4-4.4-5.2-1.5-1.9-3.2-3.6-5-5.5-1.8-1.8-3.6-3.8-5.7-5.6-2-1.9-4.1-3.8-6.3-5.7-2.2-1.8-4.6-3.6-7-5.5-2.4-1.8-5-3.5-7.5-5.3-2.6-1.7-5.3-3.3-8.1-4.9-1.1-.6-2.2-1.2-3.3-1.8-2.6.6-5.3,1.3-7.7,1.9-1,.3-2,.6-3,.8l-.1.1-.7.2-.8.2c-1.2.3-2.4.7-3.6,1.1l-4.1,1.3c-1.5.5-2.8,1-4,1.4,1.3.5,2.6,1.1,3.9,1.6,2.7,1.1,5.4,2.3,8.1,3.5,2,.9,3.9,1.9,5.9,2.8l1.2.6.9.4.3.2c2.5,1.3,4.9,2.6,7.3,3.9,2.5,1.4,4.9,2.8,7.4,4.2,2.4,1.5,4.7,3,7,4.3,2.3,1.5,4.5,3,6.6,4.4,2.2,1.4,4.2,2.9,6.2,4.3,2,1.4,4,2.7,5.8,4.2,3.7,2.7,7.1,5.2,10,7.6,3,2.3,5.6,4.3,7.7,6.1,4.2,3.4,6.8,5.3,6.8,5.3,0,0-1.7-3-4.5-7.7"/>
    <path class="st0" d="M1151.9,114.2c-1.3-.6-3.3-1.6-5.9-2.6s-5.8-2.1-9.6-3.1c-3.7-1-8.1-1.9-12.8-2.6-4.8-.7-10-1.1-15.5-1.3h-2.2c-4.9,0-10,.2-15.3.8-1.4.2-2.8.3-4.2.5l-1.3.2-1.3.2c-3.9.6-7.8,1.4-11.7,2.4l-.6.2-.9.2-.9.2-.5.1-1.5.4-.2.1-1.2.4c-1.1.4-2.3.7-3.4,1.1l-1.6.5-1.5.5-1.5.6-2.4.9-.8.3-.8.3-.5.2c-3,1.2-5.9,2.6-8.9,4-1,.5-1.9,1-2.9,1.5l-1.1.6-1.1.6c-1.1.6-2.2,1.2-3.3,1.8-2.8,1.6-5.5,3.2-8.1,4.9-2.6,1.8-5.1,3.5-7.5,5.3-2.4,1.9-4.7,3.7-7,5.5-2.2,1.9-4.3,3.8-6.3,5.7-2,1.8-3.9,3.8-5.7,5.7s-3.5,3.6-5,5.5c-1.5,1.8-3,3.6-4.4,5.3s-2.5,3.4-3.7,4.9c-2.3,3.1-4.2,5.9-5.6,8.3-2.9,4.7-4.4,7.5-4.4,7.5,0,0,2.6-1.9,6.8-5.3,2.1-1.8,4.7-3.7,7.7-6.1,2.9-2.4,6.3-4.8,10-7.6,1.8-1.4,3.8-2.8,5.8-4.2s4-3,6.2-4.3c2.2-1.4,4.4-2.9,6.6-4.4,2.3-1.4,4.7-2.9,7-4.3,2.4-1.4,4.9-2.8,7.4-4.2,2.5-1.3,5.1-2.7,7.6-4h0l1.2-.6,1.2-.6c1.8-.9,3.7-1.8,5.5-2.7,2.7-1.1,5.4-2.4,8.1-3.5,1.3-.5,2.6-1,4-1.6l.4-.1.8-.3h0l.8-.3.5-.2,1.3-.4.5-.2.8-.3,1.4-.5,2-.7c1.4-.4,2.8-.9,4.2-1.3,1-.3,2.1-.6,3.2-.9l.8-.2.9-.2c1.1-.3,2.3-.6,3.4-1,2-.5,4-1,6-1.4l1.2-.3,1-.2.2-.1c5.3-1.2,10.6-2.1,15.6-2.8,5.1-.7,9.9-1.2,14.4-1.5,6.2-.5,11.8-.6,16.4-.6,2.1,0,4,0,5.7.1,2.7.1,4.9.2,6.3.3,1.5.1,2.3.2,2.3.2,0,0-.7-.7-2.1-1.3"/>
    <path class="st0" d="M1078.3,237h0v24.1h-24.2v-24.1l-108.7-66.6c0,1.7.8,3.3,2.2,4.3l92.5,68.2v43.7c0,9.6,5.2,18.6,13.7,22.9l.2.1.2.1v-20.6h24.2v20.6l.2-.1.2-.1c8.6-4.3,13.7-13.3,13.7-22.9v-43.7l92.5-68.2c1.4-1,2.2-2.6,2.2-4.3l-108.9,66.6ZM1054.1,269h24.2v12.2h-24.2v-12.2Z"/>
  </g>
</svg>