<?xml version="1.0" encoding="UTF-8"?>
<svg id="Layer_1" xmlns="http://www.w3.org/2000/svg" xmlns:xlink="http://www.w3.org/1999/xlink" version="1.1" viewBox="0 0 167.94 118.75">
  <!-- Generator: Adobe Illustrator 30.3.0, SVG Export Plug-In . SVG Version: 2.1.3 Build 182)  -->
  <defs>
    <style>
      .st0 {
        fill: url(#linear-gradient1);
      }

      .st1 {
        fill: url(#linear-gradient);
      }

      .st2 {
        fill: #1774b4;
      }

      .st3 {
        fill: #fff;
      }
    </style>
    <linearGradient id="linear-gradient" x1="-1455.73" y1="468.6" x2="-1455.39" y2="469.14" gradientTransform="translate(33473.14 -14030.83) scale(22.89 30.07)" gradientUnits="userSpaceOnUse">
      <stop offset="0" stop-color="#d3eef6"/>
      <stop offset=".45" stop-color="#a3d0e0"/>
      <stop offset="1" stop-color="#72a3c3"/>
    </linearGradient>
    <linearGradient id="linear-gradient1" x1="-1461.65" y1="466.08" x2="-1461.65" y2="464.73" gradientTransform="translate(56859.55 -19466.91) scale(38.81 41.96)" gradientUnits="userSpaceOnUse">
      <stop offset="0" stop-color="#07af8d"/>
      <stop offset=".63" stop-color="#2a8cc5"/>
      <stop offset="1" stop-color="#1a478a"/>
    </linearGradient>
  </defs>
  <circle id="Path_2" class="st3" cx="140.9" cy="60.29" r="22.53"/>
  <path id="Path_3" class="st2" d="M150.11,77.94c-4,.01-7.88-1.37-10.97-3.91-3.91-3.18-6.18-7.95-6.19-12.99,0-2.95,1.79-7.24,3.13-9.65-4.49,3.84-7.01,9.48-6.88,15.39,0,1.83.26,3.66.78,5.41.71,2.75,2.2,5.23,4.28,7.15.9.78,1.95,1.39,3.07,1.79,1,.38,2.05.61,3.12.69h.14c.17,0,.34.01.51.01,4.65-.01,9.17-1.53,12.87-4.33-1.25.28-2.56.43-3.86.44Z"/>
  <path id="Path_4" class="st1" d="M158.64,48.25c-1.09-.49-2.22-.9-3.38-1.2,1.55,2.73,1.68,4.66,1.68,8.02.22,9.8-7.51,17.93-17.31,18.22,3.31,2.55,7.39,3.9,11.57,3.83,1.23.01,2.45-.22,3.59-.69,5.13-3.94,7.73-9.1,7.73-16.06,0-5.06-.98-8.46-3.88-12.12Z"/>
  <path id="Path_6" class="st0" d="M119.25,60.16c0,8.86,6.93,18.36,14.76,20.41-4.02-3.64-6.29-8.82-6.24-14.24.02-10.1,7.13-18.8,17.03-20.81,4.41-.9,8.99-.39,13.09,1.46.06.03.11.05.17.08-7.3-9.47-20.9-11.23-30.37-3.93-5.29,4.07-8.41,10.36-8.44,17.03h0Z"/>
  <path id="Path_28032" class="st3" d="M98.07,60.08v-.03c.02-.71.58-1.28,1.29-1.3h.99v-5.66c.02-.71.59-1.27,1.3-1.29h.03v4.91h2.53v-3.62c.03-.71.6-1.27,1.31-1.29h.03v4.91h1.96v-3.59c.01-.72.6-1.3,1.32-1.32h.01v4.91h2.05v-3.62c.02-.71.59-1.28,1.3-1.29h.03v5.5c0,.41-.33.74-.74.74h-9.79v1.29c0,.41-.33.74-.74.74h-2.88ZM42.66,60.08c-.72,0-1.31-.59-1.32-1.31v-.73h-1.79c-1.72,0-3.12-1.39-3.12-3.12,0-1.25.75-2.39,1.9-2.87.38-.16.8-.25,1.21-.25.62,0,1.22.19,1.74.53.86.58,1.38,1.55,1.38,2.59v1.79h2.72v-6.21c0-.71.56-1.3,1.28-1.32h.05v8.2c0,.18-.07.35-.2.47-.11.11-.27.18-.43.19h-3.42v2.04h0ZM38.54,53.44c-.29.19-.51.47-.65.79-.09.22-.14.46-.14.7.01.72.44,1.37,1.1,1.65.22.09.46.14.7.14h1.79v-1.79c0-.36-.11-.7-.31-1-.54-.82-1.66-1.04-2.49-.49t0,0h0ZM62.74,60.08h-.22c-.07,0-.13-.06-.13-.13v-1.09c0-.07.06-.12.13-.12h1.09c.07,0,.13.05.13.12v.44c0,.43-.34.77-.77.78h-.23ZM61.64,60.08c-.43-.01-.77-.35-.77-.78v-.44c0-.07.06-.12.13-.12h1.09c.07,0,.12.06.12.12v1.09c0,.07-.05.13-.12.13h-.45ZM17.38,60.08c-.07,0-.13-.06-.13-.13h0v-1.09c0-.07.06-.12.13-.12h1.09c.07,0,.12.05.13.12v.44c0,.43-.34.78-.77.78h-.45ZM16.5,60.08c-.43-.01-.77-.35-.77-.78v-.44c0-.07.06-.12.13-.12h1.09c.07,0,.13.05.13.12v1.09c0,.07-.06.13-.13.13h-.45ZM86.54,58.04c-1.26.01-2.39-.75-2.87-1.91-.16-.38-.25-.79-.25-1.21.01-1.72,1.4-3.11,3.12-3.12,1.25,0,2.38.75,2.87,1.91.16.38.25.8.25,1.21v1.79h7.06v-1.79c0-.36-.1-.71-.3-1-.19-.29-.47-.52-.79-.65-.22-.09-.46-.14-.7-.14h-3.99l-.94-.94,4.96-4.96.02.02c.51.52.5,1.34-.01,1.85l-2.7,2.7h2.66c1.26,0,2.39.75,2.88,1.91.16.38.24.8.24,1.21v2.46c-.01.36-.3.65-.66.66h-10.85ZM85.54,53.43c-.29.2-.51.47-.64.79-.1.22-.14.46-.14.7,0,.36.11.7.3,1,.2.29.47.51.79.64.22.1.46.15.69.15h1.79v-1.79c-.01-.36-.11-.7-.31-1-.33-.49-.89-.79-1.49-.79-.34,0-.69.11-.99.3h0ZM46.04,58.04h0ZM12.65,58.04c-1.72,0-3.12-1.4-3.12-3.12,0-.62.19-1.23.53-1.74.96-1.43,2.9-1.81,4.33-.85.87.58,1.38,1.55,1.38,2.6v1.79h2.92v-3.59c.01-.72.58-1.3,1.3-1.31h.03v4.91h3.06v-3.61c.02-.71.59-1.28,1.3-1.3h.03v4.91h2.84c-.13-.18-.24-.37-.32-.58-.16-.38-.25-.8-.25-1.21v-5.75c.73,0,1.33.6,1.33,1.33v1.27h0v.03h3.99c.62,0,1.23.18,1.74.53.86.58,1.38,1.55,1.38,2.59v2.46c0,.18-.07.34-.2.47-.12.13-.29.2-.47.2l-21.8-.03ZM28.01,54.92c0,.36.1.7.3,1,.33.49.89.79,1.48.79h3.99v-1.79c0-.36-.11-.7-.31-1-.2-.29-.47-.51-.79-.65-.22-.09-.46-.14-.7-.14h-3.99l.02,1.79ZM11.65,53.44c-.82.55-1.04,1.66-.49,2.48h.01c.33.5.89.8,1.48.8h1.79v-1.79c0-.72-.43-1.37-1.09-1.65-.22-.09-.46-.14-.7-.14-.35,0-.7.1-1,.3h0ZM55.13,58.04c-.62,0-1.23-.18-1.74-.53-.86-.58-1.38-1.55-1.38-2.59,0-1.25.75-2.38,1.9-2.87.38-.16.8-.25,1.21-.25,1.72,0,3.12,1.39,3.12,3.11h0v2.47c0,.18-.07.34-.19.47-.12.12-.29.19-.47.19h-2.45ZM54.13,53.44c-.29.19-.52.47-.65.79-.1.22-.14.46-.14.7,0,.36.1.7.3,1,.33.49.89.79,1.49.79h1.79v-1.79c0-.36-.11-.7-.3-1-.2-.29-.47-.51-.79-.65-.22-.09-.46-.14-.7-.14-.36,0-.7.1-1,.3h0ZM76.51,58.02h-16.94v-8.85h.01c.71,0,1.29.55,1.32,1.26v6.25h2.88v-3.62c.02-.71.6-1.27,1.31-1.29h.02v4.91h2.7v-1.79c0-1.25.75-2.38,1.9-2.88.38-.16.8-.24,1.21-.24,1.72,0,3.12,1.4,3.12,3.12,0,.62-.19,1.23-.53,1.75l-.04.04h3.35v-6.18c0-.72.58-1.31,1.3-1.33h.02v8.18c0,.18-.07.35-.2.47-.12.13-.29.2-.47.2h-.96ZM69.91,53.41c-.29.2-.52.47-.65.79-.09.22-.14.46-.14.7v1.79h1.79c.72,0,1.37-.43,1.65-1.09.09-.22.14-.46.14-.7,0-.36-.1-.71-.31-1-.19-.29-.47-.51-.79-.65-.22-.09-.45-.14-.69-.14-.35,0-.7.1-1,.3h0ZM80.79,58.02h0c-.73,0-1.32-.58-1.33-1.31v-7.54c.73,0,1.33.6,1.33,1.33v7.52h0ZM49.35,58.02h0c-.72,0-1.31-.58-1.32-1.3v-7.54c.73,0,1.33.6,1.33,1.33v7.51h-.01ZM108.73,51.49c-.07,0-.12-.05-.12-.12h0v-1.09c0-.07.05-.13.12-.13h.45c.43.01.77.36.77.78v.44c0,.07-.05.12-.12.13h-1.1ZM107.21,51.49c-.07,0-.13-.05-.13-.12h0v-.44c0-.43.34-.78.77-.78h.45c.07,0,.12.06.12.13h0v1.09c0,.07-.05.12-.12.13h-1.09ZM86.77,51.49c-.07,0-.12-.05-.13-.12h0v-1.1c0-.07.05-.13.12-.13h.45c.43.01.77.36.77.78v.44c0,.07-.05.13-.12.13h-1.09ZM85.25,51.49c-.07,0-.12-.05-.13-.12h0v-.45c0-.43.34-.78.77-.78h.45c.07,0,.13.06.12.13v1.09c0,.07-.05.12-.12.13h-1.09ZM21.29,51.49c-.07,0-.12-.05-.13-.12h0v-.45c0-.43.34-.78.77-.78h.45c.07,0,.12.06.12.13h0v1.09c0,.07-.05.12-.12.13h-1.09ZM12.86,51.49c-.07,0-.12-.05-.13-.12h0v-1.1c0-.07.05-.13.12-.13h.45c.43.01.77.36.77.78v.44c0,.07-.05.12-.12.13h-1.09ZM11.34,51.49c-.07,0-.13-.06-.13-.13v-.44c0-.43.34-.78.77-.78h.45c.07,0,.13.06.13.13v1.09c0,.07-.06.13-.13.13h-1.09ZM107.88,49.99c-.07,0-.13-.05-.13-.12v-.44c0-.43.34-.78.77-.78h.45c.07,0,.13.06.13.13v1.09c0,.07-.06.12-.13.12h-1.09Z"/>
  <path id="Path_3473" class="st3" d="M112.05,65.64c-.09-.1-.22-.15-.36-.15-.22-.01-.42.13-.48.34l-1.25,3.31-1.38-3.31c-.06-.2-.24-.34-.45-.34-.14,0-.27.05-.37.15-.09.1-.14.22-.14.36,0,.06.01.12.03.17l1.4,3.3c.11.25.36.4.63.4l-.52,1.38c-.04.08-.06.17-.07.27,0,.13.05.26.15.36.09.09.22.15.35.15.1,0,.2-.04.28-.1.09-.06.16-.14.2-.24l2.05-5.41c.05-.09.07-.18.08-.28,0-.14-.05-.27-.15-.36M105.09,65.48c-.61-.01-1.19.23-1.61.66-.44.43-.68,1.02-.66,1.64v1.85c0,.13.06.26.15.35.19.2.5.2.69.02l.02-.02c.1-.09.15-.22.15-.35v-1.9c-.01-.36.12-.71.37-.96.23-.24.56-.37.89-.37.33-.01.66.13.89.37.25.25.39.6.37.96v1.91c0,.13.05.26.15.35.09.1.22.15.35.15s.26-.05.36-.15c.1-.09.16-.22.16-.36v-1.85c.01-.61-.23-1.2-.66-1.63-.43-.43-1.01-.67-1.62-.67M100.57,68.83c.24-.28.38-.65.37-1.02.01-.37-.12-.74-.37-1.01-.23-.27-.58-.42-.93-.41-.37-.01-.73.14-.97.42-.26.27-.4.63-.39,1.01-.01.38.13.75.39,1.02.25.28.6.43.97.42.35,0,.7-.15.93-.43M101.74,65.64c.1.09.15.22.15.36v3.64c0,.14-.05.27-.15.36-.09.09-.22.15-.35.15s-.26-.05-.35-.15c-.07-.07-.12-.16-.14-.26-.38.27-.84.41-1.31.41-.61.01-1.19-.24-1.61-.68-.43-.44-.67-1.04-.66-1.65-.01-.62.23-1.21.66-1.65.42-.44,1-.68,1.6-.67.47-.01.93.13,1.31.41.02-.1.07-.19.14-.26.19-.21.51-.21.71,0-.01-.01,0-.01,0,0M93.46,66.78c-.25.27-.38.63-.37,1v.1c-.01.36.12.71.37.97.24.26.58.4.93.39.37.01.72-.14.97-.41.26-.27.4-.63.39-1,.01-.38-.13-.75-.39-1.02-.25-.28-.6-.43-.97-.42-.35-.02-.69.12-.93.39M96.07,66.17c.43.44.66,1.04.65,1.65.01.61-.22,1.2-.65,1.64-.4.44-.97.68-1.56.68-.5.01-.98-.17-1.36-.5v1.89c0,.14-.05.27-.15.36-.09.09-.22.15-.35.15s-.26-.05-.36-.15c-.1-.1-.15-.22-.15-.36v-5.53c0-.13.05-.26.15-.36.2-.2.52-.2.72,0,.1.09.15.22.15.35.37-.33.86-.51,1.36-.5.59,0,1.15.25,1.55.68M89.12,65.49c-.62,0-1.21.28-1.6.77-.39-.48-.97-.77-1.59-.77-.57-.01-1.12.21-1.51.62-.41.43-.63,1-.61,1.59v1.94c0,.13.06.26.15.35.19.2.5.2.69.02l.02-.02c.1-.09.15-.22.15-.35v-2.05c-.02-.32.1-.64.32-.88.2-.21.49-.33.78-.32.29-.01.58.11.78.32.22.24.33.56.31.88v2.04c0,.13.06.26.15.35.18.19.49.2.69.02l.02-.02c.09-.09.15-.22.15-.35v-2.04c-.02-.32.1-.64.32-.88.2-.21.49-.33.78-.32.29-.01.58.11.77.33.22.24.33.55.32.87v2.04c0,.14.06.26.16.36.09.1.22.15.36.15.13,0,.26-.06.35-.16.09-.09.14-.22.14-.35v-1.94c.02-.59-.2-1.16-.6-1.59-.39-.41-.94-.63-1.5-.62M81.73,68.82c.26-.27.41-.64.4-1.01.01-.37-.14-.73-.4-1-.25-.27-.61-.42-.98-.42-.37-.01-.73.15-.98.42-.27.26-.41.63-.41,1-.01.38.14.75.4,1.02.25.28.61.43.99.42.37,0,.73-.15.98-.43M82.41,66.16c.45.43.69,1.02.68,1.64.01.62-.24,1.22-.68,1.65-.44.45-1.04.69-1.66.68-.62.01-1.22-.23-1.66-.68-.44-.44-.68-1.03-.67-1.65-.01-.62.23-1.21.67-1.65s1.04-.68,1.66-.67c.62,0,1.22.24,1.66.68M77.12,68.8c-.36.28-.81.43-1.27.43-.58.01-1.14-.24-1.53-.68-.41-.43-.63-1.01-.62-1.6,0-.59.22-1.16.62-1.59.38-.44.94-.69,1.53-.68.41,0,.81.12,1.15.35.18.11.4.08.55-.06.09-.08.14-.2.14-.33-.02-.22-.16-.41-.36-.5-.22-.13-.47-.23-.72-.28-.24-.06-.49-.09-.74-.09-.84-.01-1.65.33-2.23.94-.6.59-.94,1.4-.93,2.24-.01.84.33,1.65.93,2.24.58.61,1.39.95,2.23.94.64.01,1.27-.19,1.79-.57.15-.09.24-.24.24-.41,0-.13-.05-.25-.14-.34-.17-.16-.43-.17-.62-.02M68.95,65.49c-.54-.01-1.05.2-1.42.59-.37.38-.58.9-.57,1.43v2.13c0,.13.06.26.15.35.09.1.22.15.35.15s.26-.05.35-.15c.1-.09.15-.22.15-.35v-2.25c-.01-.26.08-.52.26-.71.17-.19.42-.29.67-.28.22.02.43.1.61.24.19.15.47.13.64-.04.09-.09.14-.2.14-.33,0-.15-.07-.29-.19-.38-.32-.27-.72-.41-1.14-.4M63.27,66.7c-.21.18-.36.42-.44.69h2.56c-.06-.26-.2-.5-.4-.68-.23-.23-.54-.35-.86-.35-.32,0-.63.12-.86.34M65.69,66.14c.4.39.63.93.64,1.49,0,.16-.06.31-.16.43s-.25.19-.41.19h-2.93c.08.27.25.51.46.69.56.42,1.33.42,1.9.01.18-.11.42-.08.57.07.08.08.13.2.12.32.01.17-.08.33-.23.41-.45.27-.97.41-1.5.41-.63.01-1.24-.23-1.68-.68-.44-.43-.69-1.03-.68-1.66-.01-.62.24-1.21.68-1.64.43-.44,1.02-.68,1.63-.68.61-.02,1.18.22,1.59.64M61.21,66.5c.12,0,.24-.05.32-.13.09-.08.14-.2.14-.33,0-.12-.05-.24-.14-.33s-.21-.13-.33-.13h-.69v-.65c0-.13-.06-.26-.15-.35-.2-.19-.52-.19-.71,0-.1.09-.15.22-.15.35v.64h-.24c-.12,0-.24.05-.32.14-.08.08-.13.2-.13.31,0,.12.04.24.13.33.08.09.2.14.33.14h.24v2.4c0,.31.12.61.34.82.22.23.52.35.83.35h.43c.12,0,.24-.04.33-.13.09-.08.14-.2.14-.33,0-.12-.05-.24-.13-.33h0c-.09-.09-.21-.14-.33-.14h-.33c-.07,0-.13-.03-.17-.07-.05-.04-.08-.11-.08-.17v-2.4h.67ZM57.03,68.83c.24-.28.38-.65.37-1.02.01-.37-.12-.74-.37-1.01-.23-.27-.58-.42-.93-.41-.37-.01-.73.14-.97.42-.26.27-.4.63-.39,1.01-.01.38.13.75.39,1.02.25.28.6.43.97.42.35,0,.7-.15.93-.43M58.2,65.64c.1.09.15.22.15.36v3.64c0,.14-.05.27-.15.36-.09.09-.22.15-.35.15s-.26-.05-.35-.15c-.07-.07-.12-.16-.14-.26-.38.27-.84.41-1.31.41-.61.01-1.19-.24-1.61-.68-.43-.44-.67-1.04-.66-1.65-.01-.62.23-1.21.66-1.65.42-.44,1-.68,1.6-.67.47-.01.93.13,1.31.41.02-.1.07-.19.14-.26.19-.21.51-.21.71,0t0,0M52.45,63.77c-.13,0-.26.05-.35.15-.09.1-.14.23-.15.37l-.27,4.39-1.36-1.92c-.12-.19-.33-.3-.55-.31-.22,0-.43.12-.55.3l-1.36,1.93-.27-4.39c-.01-.13-.06-.26-.14-.36-.09-.1-.22-.16-.35-.15-.13,0-.26.05-.35.15-.1.1-.15.24-.14.38l.34,5.24c.01.14.06.26.15.36s.22.15.35.15h.3c.19,0,.37-.11.47-.28l1.56-2.16,1.57,2.17c.1.16.27.26.46.27h.3c.14,0,.27-.05.36-.15.09-.1.15-.23.15-.37l.34-5.24h0c0-.15-.05-.28-.15-.38-.08-.1-.22-.15-.36-.15M42.59,63.58c-.1.09-.15.22-.15.35v5.7c0,.13.05.26.15.36.09.1.22.15.35.15s.26-.05.35-.15c.1-.09.15-.22.15-.36v-5.7c0-.13-.05-.26-.15-.35-.19-.2-.49-.2-.69-.02,0,.01-.01.01-.01.02M40.11,68.83c.24-.28.38-.65.37-1.02.01-.37-.12-.74-.37-1.01-.23-.27-.58-.42-.93-.41-.37-.01-.73.14-.97.42-.26.27-.4.63-.39,1.01-.01.38.13.75.39,1.02.25.28.6.43.97.42.35,0,.7-.15.93-.43M41.28,65.64c.1.09.15.22.15.36v3.64c0,.14-.05.27-.15.36-.09.09-.22.15-.35.15s-.26-.05-.35-.15c-.07-.07-.12-.16-.14-.26-.38.27-.84.41-1.31.41-.61.01-1.19-.24-1.61-.68-.43-.44-.67-1.04-.66-1.65-.01-.62.23-1.21.66-1.65.42-.44,1-.68,1.6-.67.47-.01.93.13,1.31.41.02-.1.07-.19.14-.26.19-.21.5-.21.71,0t0,0M33.86,65.49c-.61-.01-1.19.23-1.61.66-.44.43-.68,1.02-.66,1.64v1.85c0,.13.06.26.15.36.19.2.5.2.69.02l.02-.02c.1-.09.15-.22.15-.36v-1.9c-.01-.36.12-.71.37-.96.23-.24.56-.37.89-.37.33-.01.66.13.89.37.25.25.39.6.37.96v1.91c0,.13.05.26.15.35.09.1.22.15.35.15s.26-.05.36-.15c.1-.09.16-.22.16-.36v-1.85c.01-.61-.23-1.2-.66-1.63-.43-.44-1.02-.68-1.62-.67M29.51,68.82c.26-.27.41-.64.4-1.01.01-.37-.14-.73-.4-1-.25-.27-.61-.42-.98-.42-.37-.01-.73.15-.98.42-.27.26-.41.63-.41,1-.01.38.14.75.4,1.02.25.28.61.43.99.42.37.01.72-.15.98-.43M30.18,66.17c.45.43.69,1.02.68,1.64.01.62-.24,1.22-.68,1.65-.44.45-1.04.69-1.66.68-.62.01-1.22-.23-1.66-.68-.44-.44-.68-1.03-.67-1.66-.01-.62.23-1.21.68-1.65.44-.44,1.04-.68,1.66-.67.62,0,1.22.24,1.65.69M24.41,63.96c-.12.12-.19.28-.19.45s.06.33.19.45c.12.12.28.19.45.19s.33-.07.45-.19.19-.28.19-.45-.06-.33-.19-.45c-.25-.25-.66-.25-.9,0h0M24.5,65.73c-.09.09-.15.22-.15.35v3.55c0,.13.05.26.15.35.09.1.22.15.35.15.14,0,.27-.05.36-.15.09-.09.15-.22.15-.35v-3.55c0-.13-.05-.26-.15-.35-.19-.2-.5-.2-.69-.02,0,.01-.01.01-.02.02M23.3,66.49c.12,0,.24-.05.32-.13.09-.08.14-.2.14-.33,0-.12-.05-.24-.14-.33s-.21-.13-.33-.13h-.7v-.65c0-.13-.06-.26-.15-.35-.2-.19-.52-.19-.71,0-.1.09-.15.22-.15.35v.64h-.24c-.12,0-.24.05-.32.14-.08.08-.13.2-.13.31,0,.12.04.24.13.33.08.09.2.14.33.14h.24v2.4c0,.31.12.61.34.82.22.23.52.35.84.35h.43c.12,0,.24-.04.33-.13.09-.08.14-.2.14-.33,0-.12-.05-.24-.13-.33h0c-.09-.09-.21-.14-.33-.14h-.33c-.07,0-.13-.03-.17-.07-.05-.04-.08-.11-.08-.18v-2.39h.67ZM19.11,68.83c.24-.28.38-.65.37-1.02.01-.37-.12-.74-.37-1.01-.23-.27-.58-.42-.93-.41-.37-.01-.72.14-.97.42-.26.27-.4.63-.39,1.01-.01.38.13.75.39,1.02.25.28.6.43.97.42.36,0,.7-.15.93-.43M20.29,65.64c.1.09.15.22.15.36v3.64c0,.14-.05.27-.15.36-.09.09-.22.15-.35.15s-.26-.05-.35-.15c-.07-.07-.12-.16-.14-.26-.38.27-.84.41-1.31.41-.61.01-1.19-.24-1.61-.68-.43-.44-.67-1.04-.66-1.65-.01-.62.23-1.21.66-1.65.42-.44,1-.68,1.6-.67.47-.01.93.13,1.31.41.02-.1.07-.19.14-.26.19-.21.5-.21.71,0-.01-.01-.01,0,0,0M14.82,63.92c.1.09.15.22.15.36v5.26c0,.13-.05.26-.15.36-.09.1-.23.16-.36.16h-.35c-.19,0-.36-.09-.46-.26l-3.06-4.43v4.25c0,.13-.04.27-.14.37-.09.1-.22.15-.35.15-.14,0-.27-.05-.36-.15-.1-.1-.15-.23-.15-.36v-5.26c0-.13.05-.26.15-.36.09-.1.22-.16.36-.16h.35c.19,0,.37.1.46.26l3.07,4.43v-4.28c0-.13.05-.26.14-.36.19-.17.5-.17.7.02h0"/>
</svg>