<?xml version="1.0" encoding="UTF-8"?>
<svg id="Layer_1" xmlns="http://www.w3.org/2000/svg" version="1.1" viewBox="0 0 696 360">
  <!-- Generator: Adobe Illustrator 30.3.0, SVG Export Plug-In . SVG Version: 2.1.3 Build 182)  -->
  <defs>
    <style>
      .st0, .st1 {
        fill-rule: evenodd;
      }

      .st0, .st2 {
        fill: #fff;
      }

      .st3, .st1 {
        fill: #bb9661;
      }
    </style>
  </defs>
  <g id="_x3C_Group_x3E_">
    <g id="_x3C_Group_x3E_1" data-name="_x3C_Group_x3E_">
      <g id="_x3C_Group_x3E_2" data-name="_x3C_Group_x3E_">
        <path id="_x3C_Path_x3E_" class="st2" d="M127.8,94.2l-14.2-14.2-14.2,14.2,14.2,14.2,14.2-14.2Z"/>
        <path id="_x3C_Path_x3E_1" data-name="_x3C_Path_x3E_" class="st2" d="M218.5,182.5l-12.9-12.9-14.2,14.2,14.2,14.2,12.9-12.9,12.8,12.9,14.2-14.2-14.2-14.2-12.8,12.9Z"/>
        <path id="_x3C_Path_x3E_2" data-name="_x3C_Path_x3E_" class="st2" d="M578.9,134.1h-10.7c-22.7-.5-32.7-10.8-42.7-30.8-11.7-23.3-28-55.2-80.4-29.8l10.8,22.2c30.4-14.8,35.7-5.1,47.5,18.5,2.6,5.2,7.6,13.6,12.4,19.9h-105.6v-54.1l-24.9,8.1v66.4c0,19.7-7.7,25-26.8,27.5-1.7.2-5.1.5-8.9.8l5.4,22.3c32.1-1.8,53.8-14.1,55.2-47.1h193.6V21.7l-24.9,8v104.4Z"/>
        <path id="_x3C_Path_x3E_3" data-name="_x3C_Path_x3E_" class="st2" d="M632.6,26.4v131.6h24.9V18.4l-24.9,8Z"/>
        <path id="_x3C_Compound_Path_x3E_" class="st0" d="M346.5,152.1l-17.4,10.2-42.3-11.9-2.1,2.8c-2.3,3-5.8,4.8-9.6,4.8h-99.2c-2.2,29.5-26.4,47.1-56.7,47.1-25.5,0-56.7-13.6-56.7-51.7v-32.8l24.9-6.6v34.8c0,19.7,10.4,32.4,31.7,32.4,20.2,0,31.9-9.2,31.9-32.4v-60.7l24.9-8.1v54.1h34.5c1.2-2.4,1.3-5.6,1.3-7.8v-38.2l24.9-8.1v42c0,4.1,0,8-1.4,12.1h28.5c1.7,0,3.2-1,3.8-2.6,2.6-7.1,6.5-16.8,11.7-27.1,8.3-16.2,19.7-21.6,27.9-23.4,10.1-2.2,20.8.3,28.6,6.5,18.4,14.8,15.4,43.6,12,59.4l-1.2,5.2ZM320.5,106.5c-1.8-1.4-5-2.5-8.4-1.8-5.5,1.2-9.2,6.5-11.4,10.8-2.1,4.2-4,8.3-5.7,12.1l30,8.5c2.2-14.2.6-25.5-4.5-29.6Z"/>
      </g>
    </g>
    <g id="_x3C_Group_x3E_3" data-name="_x3C_Group_x3E_">
      <path id="_x3C_Path_x3E_4" data-name="_x3C_Path_x3E_" class="st3" d="M63,297.7c3.4-1,8.1-1.7,13.6-.8,1.93.27,3.97.77,6.1,1.5.2.07.4.13.6.2,1.07.47,2.13.97,3.2,1.5.93.47,1.87.97,2.8,1.5,2,1.3,4.1,2.7,6.1,4.2,2.3-13.7,1.2-26.5.6-32.8h-.1c-4.8,3.1-3.4,11.6-2.4,14.1,0,0-.1.1-.1,0-6.1-7.2-3.1-15.1-1.9-17.1.1,0,0-.1-.1,0-.87.67-1.57,1.4-2.1,2.2-1.9,2.4-2.6,5-2.8,7.3-.1,1.2-.1,2.3,0,3.3,0,.27.03.5.1.7,0,.07-.03.07-.1,0h0c-1.7-3.2-2.5-8.1,0-12.8.67-1.27,1.6-2.53,2.8-3.8.33-.33.7-.67,1.1-1,0,0,0-.1-.1-.1-.33.13-.67.23-1,.3-1.07.4-2,.9-2.8,1.5-1.8,1.3-3.1,3.2-3.8,5.2-.6,1.6-.9,3.2-.9,4.7,0,0-.1.1-.1,0-1.2-4.2-.5-7.4,1-9.7,1-1.6,2.4-2.8,3.8-3.7,1-.6,1.9-1,2.8-1.2.47-.13.9-.23,1.3-.3v-.1c-.47-.07-.9-.1-1.3-.1-1.07,0-2,.07-2.8.2-1.6.3-2.9.9-3.8,1.6-1.6,1-2.3,2.2-2.6,2.7,0,.1-.1,0-.1,0,.2-2.2,1.2-4,2.7-5.2,1.1-1,2.4-1.6,3.8-2,.93-.27,1.87-.4,2.8-.4,1.2,0,2.4.2,3.4.6,0,0,.1,0,0-.1-.8-1.3-2.1-2-3.4-2.4-1-.3-1.9-.4-2.8-.4-.8.1-1.6.3-2.3.6v-.1c.67-.8,1.43-1.43,2.3-1.9.87-.47,1.8-.77,2.8-.9,2.4-.3,4.9.8,6.6,3.3h.1c.27-.6.57-1.23.9-1.9.6-1.5,1.2-3.3,1.5-5,.3,1.7.8,3.5,1.5,5,.27.67.57,1.3.9,1.9h.1c1.6-2.5,4.1-3.6,6.6-3.3.93.13,1.83.43,2.7.9s1.67,1.1,2.4,1.9l-.1.1c-.6-.3-1.4-.5-2.3-.6-.8,0-1.8.1-2.7.4-1.3.4-2.6,1.1-3.5,2.4q0,.1.1.1c1-.4,2.2-.6,3.4-.6.93,0,1.83.13,2.7.4,1.4.4,2.8,1,3.9,2,1.4,1.2,2.4,3,2.7,5.2,0,0-.1.1-.1,0-.3-.5-1.1-1.7-2.6-2.7-1-.7-2.2-1.3-3.9-1.6-.8-.13-1.7-.2-2.7-.2-.4,0-.83.03-1.3.1-.1,0-.1.1,0,.1.4.07.83.17,1.3.3.8.2,1.8.6,2.7,1.2,1.5.9,2.9,2.1,3.9,3.7,1.4,2.3,2.1,5.5,1,9.7,0,.1-.1,0-.1,0,0-1.5-.3-3.1-.9-4.7-.8-2-2-3.9-3.9-5.2-.8-.6-1.7-1.1-2.7-1.5-.33-.07-.7-.17-1.1-.3v.1c.4.33.77.67,1.1,1,1.2,1.27,2.1,2.53,2.7,3.8,2.5,4.7,1.7,9.6.1,12.8h-.1q0,.07,0,0v-.7c.1-1,.1-2.1,0-3.3-.1-2.3-.8-4.9-2.7-7.3-.6-.8-1.33-1.53-2.2-2.2,0-.1-.1,0-.1,0,1.3,2,4.2,9.9-1.8,17.1-.1.1-.1,0-.1,0,1-2.5,2.4-11-2.5-14.1h-.1c-.5,6.3-1.6,19.1.7,32.8,2-1.5,4-2.9,6.1-4.2.93-.53,1.83-1.03,2.7-1.5,1.13-.53,2.23-1.03,3.3-1.5.2-.07.4-.13.6-.2,2.13-.73,4.17-1.23,6.1-1.5,5.5-.9,10.1-.2,13.6.8.3.1.5.4.5.7,0,.4-.4.7-.8.6-4.7-.6-9.2-.2-13.3,1-2.13.6-4.17,1.37-6.1,2.3-1.33.67-2.63,1.37-3.9,2.1-.93.53-1.83,1.1-2.7,1.7-2.2,1.5-4.2,3.1-6.2,4.7,2.2,1.9,4.3,3.8,6.2,5.5,1,.93,1.9,1.77,2.7,2.5,1.5,1.3,2.8,2.4,3.9,3.1.47.33.9.6,1.3.8.7-1,1.9-1.5,3.3-1.2.6.1,1.1.4,1.5.8s.7.9.9,1.5c.2,1.1-.2,2.4-.6,2.8-.13.07-.23.13-.3.2-1.8,1.6-3.8,1.4-6.1.2-1.2-.6-2.5-1.6-3.9-2.7-.87-.73-1.77-1.53-2.7-2.4-2.3-2.1-4.9-4.6-7.6-7.1-.53-.47-1.03-.93-1.5-1.4-.53.47-1.03.93-1.5,1.4-2.8,2.5-5.3,5-7.6,7.1-1,.87-1.93,1.67-2.8,2.4-1.4,1.1-2.6,2.1-3.8,2.7-2.4,1.2-4.4,1.4-6.1-.2-.13-.07-.23-.13-.3-.2-.4-.4-.9-1.7-.6-2.8.1-.6.4-1.1.9-1.5.4-.4.9-.7,1.5-.8,1.3-.3,2.5.2,3.2,1.2.47-.2.93-.47,1.4-.8,1.1-.7,2.4-1.8,3.8-3.1.87-.73,1.8-1.57,2.8-2.5,1.8-1.7,3.9-3.6,6.1-5.5-1.9-1.6-4-3.2-6.1-4.7-.93-.6-1.87-1.17-2.8-1.7-1.27-.73-2.53-1.43-3.8-2.1-2-.93-4.03-1.7-6.1-2.3-4.2-1.2-8.6-1.6-13.4-1-.3.1-.7-.2-.7-.6,0-.3.2-.6.5-.7h0Z"/>
      <path id="_x3C_Path_x3E_5" data-name="_x3C_Path_x3E_" class="st2" d="M154.9,327.9h-2v-76.6h2v76.6Z"/>
    </g>
    <g id="_x3C_Group_x3E_4" data-name="_x3C_Group_x3E_">
      <path id="_x3C_Path_x3E_6" data-name="_x3C_Path_x3E_" class="st3" d="M177.5,284.2c1.6,1.4,4.5,1.7,6.7,1.6,3.3-.1,5.4-.9,6.9-2.4,1.47-1.47,2.2-3.63,2.2-6.5v-15h-3.7v15.1c0,1.8-.43,3.17-1.3,4.1-.9.9-2.2,1.4-4.2,1.5-1.8.1-3.8-.2-4.8-1.6-.8-1-1.2-2.4-1.2-4.2,0-1.4.1-2.73.3-4s.5-2.43.9-3.5h-3.4c-.53,1.13-.93,2.33-1.2,3.6-.27,1.33-.4,2.67-.4,4,0,1.6.27,3.03.8,4.3.6,1.27,1.4,2.27,2.4,3Z"/>
      <path id="_x3C_Path_x3E_7" data-name="_x3C_Path_x3E_" class="st3" d="M183.6,260.6c.67,0,1.17-.2,1.5-.6.33-.4.5-.93.5-1.6,0-.67-.17-1.2-.5-1.6-.33-.4-.83-.6-1.5-.6-.6,0-1.1.2-1.5.6-.33.4-.5.93-.5,1.6,0,.73.17,1.27.5,1.6.4.4.9.6,1.5.6Z"/>
      <path id="_x3C_Compound_Path_x3E_1" data-name="_x3C_Compound_Path_x3E_" class="st1" d="M205,285.6c-1.33,0-2.53-.13-3.6-.4-1.07-.27-2.07-.7-3-1.3l1.6-2.8c.8.4,1.6.73,2.4,1,.8.2,1.67.3,2.6.3,1.47,0,2.6-.37,3.4-1.1.8-.8,1.2-1.87,1.2-3.2v-.7h-3.3c-2.47,0-4.37-.7-5.7-2.1-1.33-1.33-2-3.27-2-5.8,0-1.87.43-3.47,1.3-4.8.8-1.27,1.97-2.27,3.5-3,1.47-.73,3.17-1.1,5.1-1.1h4.8v17.4c0,2.4-.73,4.27-2.2,5.6-1.47,1.33-3.5,2-6.1,2ZM209.6,274.2v-10.4h-1.3c-1.87,0-3.3.5-4.3,1.5-1.07.93-1.6,2.3-1.6,4.1,0,1.67.37,2.87,1.1,3.6.67.8,1.73,1.2,3.2,1.2h2.9Z"/>
      <path id="_x3C_Path_x3E_8" data-name="_x3C_Path_x3E_" class="st3" d="M226,257.5c.6-.13,1.2-.2,1.8-.2.6-.07,1.1-.13,1.5-.2v-1.7h-.8c-.27.07-.6.1-1,.1-.33.07-.7.13-1.1.2l-.5.1c-.33-.13-.57-.33-.7-.6-.2-.27-.3-.6-.3-1,0-.53.17-.97.5-1.3.33-.27.73-.4,1.2-.4.33,0,.67.03,1,.1.27.07.53.17.8.3l.5-1.6c-.67-.33-1.47-.5-2.4-.5-1.07,0-1.93.27-2.6.8-.67.53-1,1.27-1,2.2,0,.53.1.97.3,1.3.27.4.6.73,1,1l-1.7.2v1.7c.47-.07,1-.17,1.6-.3.6-.07,1.23-.13,1.9-.2Z"/>
      <path id="_x3C_Path_x3E_9" data-name="_x3C_Path_x3E_" class="st3" d="M262.1,257.5c.67,0,1.17-.2,1.5-.6.33-.4.5-.93.5-1.6s-.17-1.2-.5-1.6c-.33-.4-.83-.6-1.5-.6-.6,0-1.1.17-1.5.5-.4.4-.6.97-.6,1.7s.2,1.27.6,1.6c.4.4.9.6,1.5.6h0Z"/>
      <path id="_x3C_Path_x3E_10" data-name="_x3C_Path_x3E_" class="st3" d="M265.9,255.3c0,.67.2,1.2.6,1.6.33.4.83.6,1.5.6s1.17-.2,1.5-.6c.33-.4.5-.93.5-1.6s-.17-1.2-.5-1.6c-.33-.4-.83-.6-1.5-.6s-1.17.2-1.5.6c-.4.33-.6.87-.6,1.6h0Z"/>
      <path id="_x3C_Path_x3E_11" data-name="_x3C_Path_x3E_" class="st3" d="M265.1,252.5c.47,0,.87-.17,1.2-.5.4-.33.6-.8.6-1.4,0-.67-.2-1.17-.6-1.5-.33-.33-.73-.5-1.2-.5-.53,0-1,.17-1.4.5-.33.33-.5.83-.5,1.5s.17,1.17.5,1.5c.4.27.87.4,1.4.4Z"/>
      <path id="_x3C_Compound_Path_x3E_2" data-name="_x3C_Compound_Path_x3E_" class="st1" d="M291.4,277.4h-20.4c-1,0-1.93-.2-2.8-.6s-1.73-1.03-2.6-1.9c-.6.73-1.33,1.33-2.2,1.8-.87.47-1.9.7-3.1.7h-27v.7c0,1.6-.33,2.93-1,4-.67,1.13-1.6,2-2.8,2.6-1.27.6-2.77.9-4.5.9-1.33,0-2.53-.13-3.6-.4-1.07-.27-2.07-.7-3-1.3l1.6-2.8c.8.4,1.6.73,2.4,1,.8.2,1.67.3,2.6.3,1.47,0,2.6-.37,3.4-1.1.8-.8,1.2-1.83,1.2-3.1v-.8h-3.3c-1.67,0-3.07-.3-4.2-.9-1.13-.6-2-1.5-2.6-2.7-.6-1.13-.9-2.57-.9-4.3,0-1.87.43-3.47,1.3-4.8.8-1.27,1.97-2.27,3.5-3,1.47-.73,3.17-1.1,5.1-1.1h4.8v13.6h19.3v-10.9h3.7v10.9h3.4c1.13,0,2-.33,2.6-1,.6-.73.9-1.73.9-3v-6.9h3.6v7.8c0,.2-.03.4-.1.6.6.93,1.23,1.6,1.9,2,.6.33,1.4.5,2.4.5h2.1v-13.6h3.7v13.6h10.8v-13.6h3.8v16.8ZM229.6,263.9h-1.3c-1.87,0-3.3.47-4.3,1.4-1.07,1-1.6,2.4-1.6,4.2,0,1.6.37,2.8,1.1,3.6.67.8,1.73,1.2,3.2,1.2h2.9v-10.4Z"/>
      <path id="_x3C_Path_x3E_12" data-name="_x3C_Path_x3E_" class="st3" d="M287.8,281c-.4.4-.6.93-.6,1.6s.2,1.2.6,1.6c.33.4.83.6,1.5.6.6,0,1.1-.2,1.5-.6.33-.4.5-.93.5-1.6s-.17-1.2-.5-1.6-.83-.6-1.5-.6-1.17.2-1.5.6Z"/>
      <path id="_x3C_Path_x3E_13" data-name="_x3C_Path_x3E_" class="st3" d="M308.9,255.8c.67,0,1.17-.2,1.5-.6.4-.33.6-.87.6-1.6s-.2-1.27-.6-1.6c-.33-.4-.83-.6-1.5-.6-.6,0-1.07.17-1.4.5-.4.4-.6.97-.6,1.7s.2,1.27.6,1.6c.33.4.8.6,1.4.6h0Z"/>
      <path id="_x3C_Compound_Path_x3E_3" data-name="_x3C_Compound_Path_x3E_" class="st1" d="M302.8,273.6c-.73-1.2-1.1-2.63-1.1-4.3,0-1.8.4-3.37,1.2-4.7.8-1.27,1.93-2.23,3.4-2.9,1.4-.73,3.07-1.1,5-1.1h5.5v13.6h13v-13.6h3.7v16.8h-22.6c-2,0-3.67-.33-5-1-1.33-.67-2.37-1.6-3.1-2.8ZM305.5,269.3c0,1.6.47,2.8,1.4,3.6.93.87,2.23,1.3,3.9,1.3h2.4v-10.4h-1.8c-1.87,0-3.33.47-4.4,1.4-1,.93-1.5,2.3-1.5,4.1Z"/>
      <path id="_x3C_Path_x3E_14" data-name="_x3C_Path_x3E_" class="st3" d="M314.8,255.8c.67,0,1.17-.2,1.5-.6.4-.4.6-.93.6-1.6s-.2-1.2-.6-1.6c-.33-.4-.83-.6-1.5-.6-.6,0-1.1.2-1.5.6-.33.33-.5.87-.5,1.6,0,.67.17,1.2.5,1.6.4.4.9.6,1.5.6Z"/>
      <path id="_x3C_Path_x3E_15" data-name="_x3C_Path_x3E_" class="st3" d="M324.4,281c-.4.33-.6.87-.6,1.6s.2,1.3.6,1.7c.33.33.8.5,1.4.5.67,0,1.17-.2,1.5-.6.4-.4.6-.93.6-1.6s-.2-1.2-.6-1.6c-.33-.4-.83-.6-1.5-.6-.6,0-1.07.2-1.4.6Z"/>
      <path id="_x3C_Path_x3E_16" data-name="_x3C_Path_x3E_" class="st3" d="M331.7,280.4c-.6,0-1.1.2-1.5.6-.33.4-.5.93-.5,1.6s.17,1.2.5,1.6c.4.4.9.6,1.5.6.67,0,1.17-.2,1.5-.6.4-.4.6-.93.6-1.6s-.2-1.2-.6-1.6c-.33-.4-.83-.6-1.5-.6Z"/>
      <path id="_x3C_Path_x3E_17" data-name="_x3C_Path_x3E_" class="st3" d="M367.6,257.5c.6,0,1.1-.2,1.5-.6.33-.4.5-.93.5-1.6s-.17-1.2-.5-1.6c-.33-.4-.83-.6-1.5-.6s-1.17.2-1.5.6c-.4.33-.6.87-.6,1.6,0,.67.2,1.2.6,1.6.33.4.83.6,1.5.6Z"/>
      <path id="_x3C_Compound_Path_x3E_4" data-name="_x3C_Compound_Path_x3E_" class="st1" d="M392.1,277.4c-1,0-2.07-.17-3.2-.5-1.13-.33-2.2-.77-3.2-1.3-1,.6-2.03,1.03-3.1,1.3-1.07.33-2.17.5-3.3.5h-39.1v-26.1h3.7v22.9h21.9v-13.6h3.8v13.6h9.5c.73,0,1.43-.07,2.1-.2.67-.07,1.23-.23,1.7-.5-.4-.27-.8-.63-1.2-1.1-.4-.47-.83-.97-1.3-1.5-.87-1.2-1.6-2.5-2.2-3.9-.6-1.33-1-2.63-1.2-3.9.8-.73,1.73-1.4,2.8-2,1-.53,2.03-.93,3.1-1.2,1.13-.33,2.23-.5,3.3-.5,1.47,0,2.93.2,4.4.6,1.47.47,2.77,1.07,3.9,1.8,0,1.6-.23,3.13-.7,4.6s-1.17,2.8-2.1,4c-.87,1.27-1.93,2.3-3.2,3.1.6.2,1.2.37,1.8.5.6.13,1.2.2,1.8.2h10.2v-22.9h3.7v22.9h8.6v-22.9h3.7v26.1h-26.2ZM389.5,268.2c.8-1.33,1.27-2.87,1.4-4.6-.73-.33-1.47-.6-2.2-.8-.8-.13-1.6-.2-2.4-.2-.6,0-1.2.07-1.8.2-.67.13-1.3.33-1.9.6-.53.27-1.1.57-1.7.9.27,1,.63,1.97,1.1,2.9.47.93,1.03,1.8,1.7,2.6.67.8,1.37,1.47,2.1,2,1.67-1.07,2.9-2.27,3.7-3.6h0Z"/>
      <path id="_x3C_Path_x3E_18" data-name="_x3C_Path_x3E_" class="st3" d="M435.9,255.8c.67,0,1.17-.2,1.5-.6.4-.33.6-.87.6-1.6s-.2-1.27-.6-1.6c-.33-.4-.83-.6-1.5-.6-.6,0-1.07.17-1.4.5-.4.4-.6.97-.6,1.7s.2,1.27.6,1.6c.33.4.8.6,1.4.6h0Z"/>
      <path id="_x3C_Path_x3E_19" data-name="_x3C_Path_x3E_" class="st3" d="M441.8,255.8c.67,0,1.17-.2,1.5-.6.4-.4.6-.93.6-1.6s-.2-1.2-.6-1.6c-.33-.4-.83-.6-1.5-.6-.6,0-1.1.2-1.5.6-.33.33-.5.87-.5,1.6,0,.67.17,1.2.5,1.6.4.4.9.6,1.5.6Z"/>
      <path id="_x3C_Compound_Path_x3E_5" data-name="_x3C_Compound_Path_x3E_" class="st1" d="M536.1,251.3h3.8v26.1h-17.9c-1,0-2.07-.17-3.2-.5-1.07-.33-2.1-.77-3.1-1.3-1.07.6-2.13,1.03-3.2,1.3-1.07.33-2.13.5-3.2.5h-21.7v-26.1h3.7v22.9h17.8c.73,0,1.43-.07,2.1-.2.67-.07,1.23-.23,1.7-.5-.4-.27-.83-.63-1.3-1.1-.4-.47-.8-.97-1.2-1.5-.87-1.2-1.63-2.5-2.3-3.9-.6-1.33-1-2.63-1.2-3.9.87-.73,1.8-1.4,2.8-2,1.07-.53,2.13-.93,3.2-1.2,1.07-.33,2.17-.5,3.3-.5,1.47,0,2.93.2,4.4.6,1.47.47,2.77,1.07,3.9,1.8,0,1.6-.23,3.13-.7,4.6s-1.17,2.8-2.1,4c-.93,1.27-2,2.3-3.2,3.1.53.2,1.1.37,1.7.5.6.13,1.23.2,1.9.2h14v-22.9ZM519.4,268.2c.8-1.33,1.27-2.87,1.4-4.6-.73-.33-1.47-.6-2.2-.8-.8-.13-1.6-.2-2.4-.2-.6,0-1.2.07-1.8.2-.67.13-1.3.33-1.9.6-.6.27-1.17.57-1.7.9.2,1,.57,1.97,1.1,2.9.47.93,1.03,1.8,1.7,2.6.6.8,1.3,1.47,2.1,2,1.6-1.07,2.83-2.27,3.7-3.6h0Z"/>
      <path id="_x3C_Path_x3E_20" data-name="_x3C_Path_x3E_" class="st3" d="M549.3,251.3h-3.7v26.1h3.7v-26.1Z"/>
      <path id="_x3C_Compound_Path_x3E_6" data-name="_x3C_Compound_Path_x3E_" class="st1" d="M560.7,273.6c-.73-1.2-1.1-2.63-1.1-4.3,0-1.8.4-3.37,1.2-4.7.8-1.27,1.93-2.23,3.4-2.9,1.47-.73,3.13-1.1,5-1.1h5.5v13.6h12.4v-13.6h3.8v13.6h11.1v-13.6h3.8v13.6h9.7c-.67-.47-1.2-1.1-1.6-1.9-.33-.87-.5-1.83-.5-2.9,0-1.4.3-2.67.9-3.8.67-1.07,1.53-1.9,2.6-2.5s2.3-.9,3.7-.9,2.73.27,3.8.8c1.07.6,1.87,1.43,2.4,2.5.53,1.13.8,2.5.8,4.1v4.6h4.6v-6.6c0-3-.7-5.27-2.1-6.8-1.47-1.53-3.63-2.3-6.5-2.3-1.33,0-2.57.1-3.7.3-1.13.2-2.27.47-3.4.8l-.9-3c.87-.27,1.7-.5,2.5-.7.87-.2,1.77-.33,2.7-.4.87-.07,1.8-.1,2.8-.1,3.93,0,6.97,1.03,9.1,3.1,2.07,2.07,3.1,5,3.1,8.8v6.9h8.5v-22.9h3.8v26.1h-79.3c-1.93,0-3.6-.33-5-1-1.33-.67-2.37-1.6-3.1-2.8h0ZM617.1,269.5c0,1,.2,1.83.6,2.5.33.73.87,1.27,1.6,1.6.67.4,1.47.6,2.4.6h2.2v-4.2c0-1.53-.27-2.63-.8-3.3-.6-.73-1.47-1.1-2.6-1.1-1.07,0-1.9.33-2.5,1-.6.73-.9,1.7-.9,2.9ZM563.4,269.3c0,1.6.47,2.8,1.4,3.6.93.87,2.27,1.3,4,1.3h2.3v-10.4h-1.7c-1.93,0-3.4.47-4.4,1.4-1.07.93-1.6,2.3-1.6,4.1Z"/>
      <path id="_x3C_Path_x3E_21" data-name="_x3C_Path_x3E_" class="st3" d="M572.8,255.8c.6,0,1.1-.2,1.5-.6.33-.4.5-.93.5-1.6s-.17-1.2-.5-1.6c-.4-.4-.9-.6-1.5-.6-.67,0-1.17.2-1.5.6-.4.33-.6.87-.6,1.6,0,.67.2,1.2.6,1.6.33.4.83.6,1.5.6Z"/>
      <path id="_x3C_Path_x3E_22" data-name="_x3C_Path_x3E_" class="st3" d="M566.9,255.8c.6,0,1.1-.2,1.5-.6.33-.33.5-.87.5-1.6s-.17-1.27-.5-1.6c-.4-.4-.9-.6-1.5-.6s-1.1.17-1.5.5c-.4.4-.6.97-.6,1.7s.2,1.27.6,1.6c.4.4.9.6,1.5.6h0Z"/>
      <path id="_x3C_Path_x3E_23" data-name="_x3C_Path_x3E_" class="st3" d="M588.6,257.1c.67-.07,1.3-.13,1.9-.2.53-.07,1.03-.1,1.5-.1v-1.8h-.8c-.33.07-.67.13-1,.2-.4,0-.77.03-1.1.1l-.5.1c-.33-.13-.6-.33-.8-.6s-.3-.6-.3-1c0-.53.17-.93.5-1.2.33-.33.77-.5,1.3-.5.33,0,.63.03.9.1.33.07.6.17.8.3l.6-1.6c-.67-.33-1.47-.5-2.4-.5-1.13,0-2,.27-2.6.8-.67.53-1,1.3-1,2.3,0,.47.1.9.3,1.3.27.4.6.7,1,.9l-1.7.3v1.6c.47-.07,1-.13,1.6-.2.6-.13,1.2-.23,1.8-.3Z"/>
      <path id="_x3C_Path_x3E_24" data-name="_x3C_Path_x3E_" class="st3" d="M605.3,281c-.4.4-.6.93-.6,1.6s.2,1.2.6,1.6c.33.4.83.6,1.5.6.6,0,1.1-.2,1.5-.6.33-.4.5-.93.5-1.6s-.17-1.2-.5-1.6c-.4-.4-.9-.6-1.5-.6-.67,0-1.17.2-1.5.6Z"/>
      <path id="_x3C_Path_x3E_25" data-name="_x3C_Path_x3E_" class="st3" d="M599.4,281c-.4.33-.6.87-.6,1.6s.2,1.3.6,1.7c.4.33.9.5,1.5.5s1.1-.2,1.5-.6c.33-.4.5-.93.5-1.6s-.17-1.2-.5-1.6c-.4-.4-.9-.6-1.5-.6s-1.1.2-1.5.6Z"/>
      <path id="_x3C_Path_x3E_26" data-name="_x3C_Path_x3E_" class="st3" d="M657.5,251.3h-3.7v26.1h3.7v-26.1Z"/>
      <path id="_x3C_Path_x3E_27" data-name="_x3C_Path_x3E_" class="st3" d="M182.4,331.2c-.6,0-1.1.2-1.5.6-.4.33-.6.87-.6,1.6s.2,1.3.6,1.7c.4.33.9.5,1.5.5s1.1-.2,1.5-.6c.33-.33.5-.87.5-1.6,0-.67-.17-1.2-.5-1.6-.4-.4-.9-.6-1.5-.6Z"/>
      <path id="_x3C_Path_x3E_28" data-name="_x3C_Path_x3E_" class="st3" d="M188.3,331.2c-.67,0-1.17.2-1.5.6-.4.4-.6.93-.6,1.6,0,.73.2,1.27.6,1.6.33.4.83.6,1.5.6.6,0,1.1-.2,1.5-.6.33-.4.5-.93.5-1.6s-.17-1.2-.5-1.6c-.4-.4-.9-.6-1.5-.6Z"/>
      <path id="_x3C_Path_x3E_29" data-name="_x3C_Path_x3E_" class="st3" d="M236.7,323c-.67,0-1.17.2-1.5.6-.33.4-.5.93-.5,1.6,0,.73.17,1.27.5,1.6.33.4.83.6,1.5.6.6,0,1.1-.2,1.5-.6.33-.4.5-.93.5-1.6s-.17-1.2-.5-1.6c-.33-.4-.83-.6-1.5-.6Z"/>
      <path id="_x3C_Path_x3E_30" data-name="_x3C_Path_x3E_" class="st3" d="M250.5,300.1c.6,0,1.1-.2,1.5-.6.33-.4.5-.93.5-1.6s-.17-1.2-.5-1.6-.83-.6-1.5-.6-1.17.2-1.5.6c-.33.33-.5.87-.5,1.6,0,.67.17,1.2.5,1.6.4.4.9.6,1.5.6Z"/>
      <path id="_x3C_Compound_Path_x3E_7" data-name="_x3C_Compound_Path_x3E_" class="st1" d="M261.1,293.9h3.7v26.1h-46.3v.7c0,1.6-.33,2.97-1,4.1-.67,1.07-1.6,1.9-2.8,2.5-1.27.6-2.77.9-4.5.9-1.33,0-2.53-.13-3.6-.4-1.07-.27-2.07-.7-3-1.3l1.6-2.8c.8.4,1.6.73,2.4,1s1.67.4,2.6.4c1.47,0,2.6-.4,3.4-1.2s1.2-1.83,1.2-3.1v-.8h-3.3c-1.67,0-3.07-.3-4.2-.9s-2-1.5-2.6-2.7c-.6-1.13-.9-2.57-.9-4.3,0-1.87.43-3.43,1.3-4.7.8-1.33,1.97-2.37,3.5-3.1,1.47-.67,3.17-1,5.1-1h4.8v13.5h16.5v-13.5h3.7v13.5h10v-13.5h3.8v13.5h8.6v-22.9ZM214.8,306.4h-1.3c-1.87,0-3.3.5-4.3,1.5-1.07,1-1.6,2.37-1.6,4.1s.37,2.9,1.1,3.7c.67.73,1.73,1.1,3.2,1.1h2.9v-10.4Z"/>
      <path id="_x3C_Path_x3E_31" data-name="_x3C_Path_x3E_" class="st3" d="M270.5,320h3.7v-26.1h-3.7v26.1Z"/>
      <path id="_x3C_Path_x3E_32" data-name="_x3C_Path_x3E_" class="st3" d="M399.4,320h3.8v-26.1h-3.8v26.1Z"/>
      <path id="_x3C_Compound_Path_x3E_8" data-name="_x3C_Compound_Path_x3E_" class="st1" d="M419.1,303.3h4.7v17.3c0,2.4-.73,4.27-2.2,5.6-1.47,1.33-3.5,2-6.1,2-1.27,0-2.43-.13-3.5-.4s-2.07-.7-3-1.3l1.5-2.8c.8.4,1.6.73,2.4,1s1.67.4,2.6.4c1.47,0,2.63-.4,3.5-1.2.8-.8,1.2-1.87,1.2-3.2v-.7h-3.4c-2.47,0-4.37-.67-5.7-2-1.27-1.4-1.9-3.37-1.9-5.9,0-1.87.4-3.43,1.2-4.7.87-1.33,2.03-2.37,3.5-3.1,1.47-.67,3.2-1,5.2-1h0ZM420.2,306.4h-1.4c-1.8,0-3.23.5-4.3,1.5-1,1-1.5,2.37-1.5,4.1s.33,2.9,1,3.7c.73.73,1.8,1.1,3.2,1.1h3v-10.4Z"/>
      <path id="_x3C_Path_x3E_33" data-name="_x3C_Path_x3E_" class="st3" d="M461.3,320h3.8v-26.1h-3.8v26.1Z"/>
      <path id="_x3C_Path_x3E_34" data-name="_x3C_Path_x3E_" class="st3" d="M519.7,316.8h-9.6c-.33-.33-.67-.8-1-1.4-.27-.67-.53-1.47-.8-2.4-.2-.87-.4-1.9-.6-3.1s-.47-2.2-.8-3c-.33-.8-.77-1.5-1.3-2.1-.47-.53-1.03-.93-1.7-1.2-.47-.27-1-.43-1.6-.5-.6-.13-1.27-.2-2-.2-1.13,0-2.23.13-3.3.4-1.07.27-2.1.7-3.1,1.3l1.3,2.8c.87-.47,1.7-.8,2.5-1,.8-.2,1.57-.3,2.3-.3.6,0,1.13.07,1.6.2.53.2.97.5,1.3.9.27.33.53.83.8,1.5.2.67.4,1.43.6,2.3.13,1,.33,1.9.6,2.7.2.73.43,1.37.7,1.9s.53.93.8,1.2h-28.4v-13.5h-3.6v17.4c0,1.33-.3,2.37-.9,3.1-.53.8-1.3,1.2-2.3,1.2-.53,0-1-.03-1.4-.1-.4-.07-.87-.27-1.4-.6l-1.3,2.7c.8.4,1.53.7,2.2.9.73.2,1.47.3,2.2.3,1.4,0,2.57-.3,3.5-.9,1-.6,1.77-1.47,2.3-2.6.47-1.13.7-2.47.7-4v-.7h45.5v-26.1h-3.8v22.9Z"/>
      <path id="_x3C_Path_x3E_35" data-name="_x3C_Path_x3E_" class="st3" d="M529.2,320h3.7v-26.1h-3.7v26.1Z"/>
      <path id="_x3C_Path_x3E_36" data-name="_x3C_Path_x3E_" class="st3" d="M572.6,323c-.67,0-1.17.2-1.5.6-.4.4-.6.93-.6,1.6,0,.73.2,1.27.6,1.6.33.4.83.6,1.5.6.6,0,1.1-.2,1.5-.6.33-.4.5-.93.5-1.6s-.17-1.2-.5-1.6c-.4-.4-.9-.6-1.5-.6Z"/>
      <path id="_x3C_Path_x3E_37" data-name="_x3C_Path_x3E_" class="st3" d="M316.4,323c-.67,0-1.17.2-1.5.6-.4.4-.6.93-.6,1.6,0,.73.2,1.27.6,1.6.33.4.83.6,1.5.6.6,0,1.1-.2,1.5-.6.33-.4.5-.93.5-1.6s-.17-1.2-.5-1.6c-.4-.4-.9-.6-1.5-.6Z"/>
      <path id="_x3C_Path_x3E_38" data-name="_x3C_Path_x3E_" class="st3" d="M653.8,293.9v26.1h3.7v-26.1h-3.7Z"/>
      <path id="_x3C_Compound_Path_x3E_9" data-name="_x3C_Compound_Path_x3E_" class="st1" d="M454.9,310.7c0,3.8-2,8.8-8.4,8.8h-6.1c-.87,0-1.53.2-2,.6-.4.4-.6,1.03-.6,1.9v8.4h-3.6v-8.7c0-4.7,3.1-5.4,5.6-5.4v-5.5c0-5.6,4.3-7.9,7.6-7.9,5,0,7.5,3.7,7.5,7.8h0ZM451.1,311.2c0-4.1-2.2-5.1-3.8-5.1-2.8,0-3.8,3-3.8,5.5v4.7h2.5c2.7,0,5.1-1.4,5.1-5.1h0Z"/>
      <path id="_x3C_Compound_Path_x3E_10" data-name="_x3C_Compound_Path_x3E_" class="st1" d="M437.9,277.4c-2,0-3.67-.33-5-1-1.33-.67-2.37-1.6-3.1-2.8-.73-1.2-1.1-2.63-1.1-4.3,0-1.8.4-3.37,1.2-4.7.8-1.27,1.93-2.23,3.4-2.9,1.4-.73,3.07-1.1,5-1.1h5.5v13.6h20.9v-5.5c0-5.6,3.9-7.9,7.5-7.9.73,0,1.43.1,2.1.3.6.2,1.3.4,1.8.7,1.13.67,2.03,1.57,2.7,2.7.6,1.2.9,2.57.9,4.1,0,3.8-1.9,8.8-8.3,8.8h-33.5ZM468.4,274.2h2.8c1,0,1.87-.23,2.6-.7.67-.4,1.2-1.03,1.6-1.9.4-.87.6-1.87.6-3,0-1.4-.37-2.53-1.1-3.4-.73-.8-1.63-1.2-2.7-1.2-2.8,0-3.8,3-3.8,5.5v4.7ZM440.2,263.8h-1.8c-1.87,0-3.3.47-4.3,1.4-1.07.93-1.6,2.3-1.6,4.1,0,1.6.47,2.8,1.4,3.6.93.87,2.27,1.3,4,1.3h2.3v-10.4Z"/>
      <path id="_x3C_Compound_Path_x3E_11" data-name="_x3C_Compound_Path_x3E_" class="st1" d="M644.3,293.9h3.8v26.1h-9.4c-1.07-.07-2.03-.23-2.9-.5-.8-.3-1.6-.9-2.4-1.8-1.3,1.4-3.2,2.3-5.9,2.3h-20c-1,0-1.93-.2-2.8-.6-.93-.33-1.83-.97-2.7-1.9-.53.73-1.23,1.33-2.1,1.8-.87.47-1.9.7-3.1.7h-53.6v-3.2h12.4v-3.8c0-1.8-.53-3.17-1.6-4.1-1-.93-2.43-1.4-4.3-1.4h-4.9v-3.2h5c1.87,0,3.53.37,5,1.1,1.47.67,2.6,1.63,3.4,2.9.8,1.33,1.2,2.9,1.2,4.7v3.8h19.4c-.3-.3-.6-.7-.8-1.2-.27-.53-.53-1.17-.8-1.9-.2-.8-.4-1.7-.6-2.7-.13-.87-.33-1.63-.6-2.3-.2-.67-.47-1.17-.8-1.5-.33-.4-.73-.7-1.2-.9-.47-.13-1-.23-1.6-.3-.8,0-1.6.2-2.4.4-.8.2-1.63.53-2.5,1l-1.3-2.9c1-.53,2.03-.93,3.1-1.2,1.07-.27,2.2-.4,3.4-.4.73,0,1.37.07,1.9.2.6.07,1.13.23,1.6.5.67.27,1.27.67,1.8,1.2.47.53.87,1.23,1.2,2.1.4.8.7,1.8.9,3,.13,1.2.33,2.23.6,3.1.2.93.47,1.73.8,2.4.27.6.6,1.07,1,1.4h6.6v-12.7h3.7v12.7h3.4c1.07,0,1.93-.33,2.6-1,.53-.73.8-1.7.8-2.9v-8.8h3.7v9.6c-.07.27-.1.47-.1.6.6.93,1.2,1.6,1.8,2,.67.33,1.5.5,2.5.5h2.1v-13.6h3.6v13.6h7.6v-5.5c0-5.6,3.8-7.8,7.5-7.8.73,0,1.43.07,2.1.2.6.2,1.2.4,1.8.7,1.13.67,2.03,1.57,2.7,2.7.6,1.2.9,2.57.9,4.1,0,1.2-.2,2.6-.7,3.9.4.6,1,1.1,1.6,1.3.53.27,1.27.4,2.2.4h5.4v-22.9ZM632,311.2c0-1.33-.37-2.43-1.1-3.3-.67-.87-1.57-1.3-2.7-1.3-2.8,0-3.8,3-3.8,5.5v4.7h2.8c1,0,1.87-.23,2.6-.7.67-.4,1.2-1.03,1.6-1.9.4-.8.6-1.8.6-3h0Z"/>
      <path id="_x3C_Compound_Path_x3E_12" data-name="_x3C_Compound_Path_x3E_" class="st1" d="M390,293.9h3.7v26.1h-10.4c-1.13-.07-2.1-.23-2.9-.5-.8-.3-1.7-.9-2.5-1.8-1.3,1.4-3.2,2.3-5.9,2.3h-19.9c-1,0-1.97-.2-2.9-.6-.87-.33-1.73-.97-2.6-1.9-.53.73-1.23,1.33-2.1,1.8-.93.47-1.97.7-3.1.7h-57.4v-3.2h12.4v-3.8c0-1.8-.5-3.17-1.5-4.1-1.07-.93-2.53-1.4-4.4-1.4h-4.9v-3.2h5c1.93,0,3.6.37,5,1.1,1.47.67,2.6,1.63,3.4,2.9.8,1.33,1.2,2.9,1.2,4.7v3.8h19.4c-.3-.3-.6-.7-.8-1.2-.27-.53-.53-1.17-.8-1.9-.2-.8-.4-1.7-.6-2.7-.13-.87-.33-1.63-.6-2.3-.2-.67-.47-1.17-.8-1.5-.33-.4-.73-.7-1.2-.9-.47-.13-1-.23-1.6-.3-.8,0-1.6.2-2.4.4-.8.2-1.6.53-2.4,1l-1.4-2.9c1-.53,2.03-.93,3.1-1.2,1.13-.27,2.27-.4,3.4-.4.73,0,1.4.07,2,.2.53.07,1.03.23,1.5.5.67.27,1.27.67,1.8,1.2s.93,1.23,1.2,2.1c.4.8.7,1.8.9,3,.13,1.2.33,2.23.6,3.1.2.93.47,1.73.8,2.4.33.6.67,1.07,1,1.4h10.4v-12.7h3.6v12.7h3.5c1.07,0,1.9-.33,2.5-1,.6-.73.9-1.7.9-2.9v-8.8h3.6v10.2c.53.93,1.13,1.6,1.8,2,.67.33,1.47.5,2.4.5h2.2v-13.6h3.6v13.6h7.5v-5.5c0-5.6,3.9-7.8,7.6-7.8.67,0,1.33.07,2,.2.7.2,1.3.4,1.8.7,1.2.67,2.1,1.57,2.7,2.7.6,1.2.93,2.57,1,4.1,0,1.2-.3,2.6-.7,3.9.4.6,1,1.1,1.5,1.3.6.27,1.37.4,2.3.4h6.5v-22.9ZM376.6,311.2c0-1.33-.37-2.43-1.1-3.3-.73-.87-1.63-1.3-2.7-1.3-2.8,0-3.8,3-3.8,5.5v4.7h2.8c1,0,1.83-.23,2.5-.7.73-.4,1.3-1.03,1.7-1.9.4-.8.6-1.8.6-3h0Z"/>
      <path id="_x3C_Path_x3E_39" data-name="_x3C_Path_x3E_" class="st3" d="M187.4,307.6c-1,1.5-2,3.3-1.7,5.2.3,1.6,1.4,2.9,2.6,3.9,1.4,1.1,2.9,1.8,4.3,2.8,1.2.9,2.2,2.3,1.2,3.6-.8,1-2.2,1.5-3.4,1.6-1.6.3-7.2.1-8.2.1-1.7,0-3.2-.8-3.9-2.4s-.4-4.5-.2-6.1c.13-.87.37-1.8.7-2.8h-3.4c-1.3,3.3-1.8,7.4-.4,10.6,1.2,2.5,3.4,3.9,6.7,3.9h7c3.2,0,7.6-.7,8.9-4.1.9-2.4-.1-5.2-2.1-6.7-1.4-1.2-3.3-2.2-4.8-3.4-.9-.7-1.6-1.6-1.1-2.9.6-1.5,1.7-2.7,3-3.4,1.7-1.1,3.7-.9,5.5,0l1.5-2.9c-.8-.6-1.8-1-2.8-1.3-3.8-.8-7.3,1.5-9.4,4.3h0Z"/>
    </g>
  </g>
</svg>