<?xml version="1.0" encoding="UTF-8"?>
<svg id="Layer_1" xmlns="http://www.w3.org/2000/svg" version="1.1" viewBox="0 0 318.02 100.33">
  <!-- Generator: Adobe Illustrator 30.3.0, SVG Export Plug-In . SVG Version: 2.1.3 Build 182)  -->
  <defs>
    <style>
      .st0 {
        fill: none;
      }

      .st1 {
        fill: #fff;
      }

      .st2 {
        fill: #88774f;
      }
    </style>
  </defs>
  <g>
    <path class="st2" d="M90.73,69.07c-.07,0-.12-.04-.15-.11l-1.77-3.66h-2.29c-.05,0-.07.02-.07.07v3.58c0,.08-.04.12-.13.12h-.47c-.08,0-.13-.04-.13-.12v-8.2c0-.08.04-.12.12-.12h2.84c.8,0,1.44.21,1.89.62.46.41.68.99.68,1.71,0,.59-.15,1.07-.45,1.46-.3.39-.73.64-1.27.78l1.84,3.74s.03.07.02.1c-.01.02-.04.04-.08.04h-.58ZM88.68,64.62c.6,0,1.06-.14,1.39-.43.32-.29.48-.7.48-1.24s-.16-.94-.48-1.23-.78-.43-1.39-.43h-2.15c-.05,0-.07.02-.07.07v3.18c0,.05.02.07.07.07h2.15Z"/>
    <path class="st2" d="M96.03,69.19c-.7,0-1.27-.16-1.73-.48-.46-.32-.79-.79-1-1.42-.04-.11-.08-.23-.11-.37s-.05-.3-.07-.48c-.02-.19-.04-.41-.05-.66-.01-.26-.02-.57-.02-.93s.01-.67.02-.93c.01-.26.03-.48.05-.66.02-.19.05-.35.07-.48.03-.13.06-.26.11-.37.21-.62.54-1.09,1-1.42.46-.32,1.04-.48,1.73-.48s1.26.16,1.72.48.79.79,1,1.42c.03.12.07.24.1.37.03.13.06.29.08.48.02.19.04.41.05.66.02.25.02.56.02.92s-.01.68-.02.93c-.01.26-.03.48-.05.66-.02.19-.05.35-.08.48-.03.14-.07.26-.1.37-.21.62-.54,1.09-1,1.42-.46.33-1.03.49-1.72.49ZM98.28,64.84c0-.34-.01-.63-.02-.88-.01-.25-.03-.46-.04-.63-.02-.17-.04-.32-.07-.43-.03-.12-.06-.22-.08-.3-.31-.95-.99-1.43-2.04-1.43s-1.73.48-2.05,1.43c-.02.08-.05.18-.08.3s-.05.26-.07.43c-.02.17-.03.38-.04.63-.01.25-.02.54-.02.88s.01.63.02.88c.01.25.03.46.04.63.02.17.04.32.07.43.03.12.06.22.08.3.31.95,1,1.43,2.05,1.43s1.72-.48,2.04-1.43c.02-.08.05-.18.08-.3s.05-.26.07-.43.03-.38.04-.63.02-.54.02-.88Z"/>
    <path class="st2" d="M102.7,69.07c-.08,0-.13-.04-.13-.12v-3.35l-2.53-4.84s-.01-.06.01-.09c.02-.03.05-.04.09-.04h.48c.08,0,.14.04.19.12l2.13,4.04h.04l2.09-4.04c.04-.08.1-.12.19-.12h.47c.05,0,.08,0,.1.04.02.03.02.06,0,.09l-2.53,4.84v3.34c0,.08-.04.12-.13.12h-.47Z"/>
    <path class="st2" d="M108.78,60.74c.02-.08.07-.12.15-.12h.45c.07,0,.12.04.15.12l2.93,8.2c.02.08,0,.12-.09.12h-.48c-.09,0-.15-.04-.16-.12l-.75-2.07h-3.68l-.75,2.07c-.03.08-.09.12-.16.12h-.48c-.08,0-.11-.04-.09-.12l2.96-8.2ZM110.74,66.17l-1.58-4.41h-.04l-1.59,4.41h3.21Z"/>
    <path class="st2" d="M114.18,60.74c0-.08.04-.12.13-.12h.47c.08,0,.13.04.13.12v7.58c0,.05.02.07.07.07h4.17c.08,0,.12.04.12.12v.42c0,.08-.04.12-.12.12h-4.84c-.08,0-.13-.04-.13-.12v-8.19Z"/>
    <path class="st2" d="M124.1,67.3c-.03-.11-.06-.23-.09-.35-.03-.13-.05-.29-.07-.48s-.03-.42-.04-.68-.02-.58-.02-.95.01-.69.02-.95c.01-.26.03-.49.04-.68.02-.19.04-.35.07-.48s.06-.25.09-.35c.22-.64.55-1.11.99-1.42.45-.31,1.01-.47,1.68-.47.58,0,1.09.13,1.53.39.44.26.78.65,1.02,1.17.03.07.02.13-.04.16l-.41.2c-.07.04-.12.02-.16-.05-.19-.36-.44-.66-.75-.88s-.71-.33-1.19-.33c-.52,0-.94.12-1.26.35-.32.24-.56.59-.73,1.05-.02.08-.05.18-.07.3s-.05.26-.06.43-.03.38-.04.63c-.01.25-.01.55-.01.91s0,.66.01.91.02.46.04.63.04.32.06.43c.02.12.05.22.07.3.17.46.41.81.73,1.05.32.24.74.35,1.26.35.48,0,.88-.11,1.19-.33.31-.22.56-.51.75-.88.04-.07.09-.09.16-.05l.41.2c.06.03.07.09.04.16-.24.52-.58.91-1.02,1.17-.44.26-.95.39-1.53.39-.67,0-1.23-.16-1.68-.47-.44-.27-.77-.74-.99-1.38Z"/>
    <path class="st2" d="M133.85,69.19c-.7,0-1.27-.16-1.73-.48-.46-.32-.79-.79-1-1.42-.04-.11-.08-.23-.11-.37s-.05-.3-.07-.48c-.02-.19-.04-.41-.05-.66,0-.26-.02-.57-.02-.93s0-.67.02-.93c0-.26.03-.48.05-.66.02-.19.05-.35.07-.48.03-.13.06-.26.11-.37.21-.62.54-1.09,1-1.42.46-.32,1.04-.48,1.73-.48s1.26.16,1.72.48.79.79,1,1.42c.03.12.07.24.1.37.03.13.06.29.08.48s.04.41.05.66c0,.26.02.57.02.93s0,.68-.02.93c0,.26-.03.48-.05.66-.02.19-.05.35-.08.48s-.07.26-.1.37c-.21.62-.54,1.09-1,1.42-.46.32-1.03.48-1.72.48ZM136.1,64.84c0-.34,0-.63-.02-.88,0-.25-.03-.46-.04-.63-.02-.17-.04-.32-.07-.43-.03-.12-.06-.22-.08-.3-.31-.95-.99-1.43-2.04-1.43s-1.73.48-2.05,1.43c-.02.08-.05.18-.08.3s-.05.26-.07.43c-.02.17-.03.38-.04.63,0,.25-.02.54-.02.88s0,.63.02.88.03.46.04.63c.02.17.04.32.07.43.03.12.06.22.08.3.31.95,1,1.43,2.05,1.43s1.72-.48,2.04-1.43c.02-.08.05-.18.08-.3s.05-.26.07-.43.03-.38.04-.63c0-.24.02-.54.02-.88Z"/>
    <path class="st2" d="M138.86,60.74c0-.08.04-.12.13-.12h.48c.09,0,.16.04.19.12l2.74,6.05h.05l2.68-6.05c.03-.08.09-.12.18-.12h.49c.08,0,.13.04.13.12v8.2c0,.08-.04.12-.13.12h-.47c-.08,0-.13-.04-.13-.12v-6.61h-.04l-2.43,5.35c-.02.05-.05.08-.08.11-.03.02-.08.03-.14.03h-.25c-.1,0-.17-.05-.21-.14l-2.43-5.35h-.04v6.61c0,.08-.04.12-.13.12h-.47c-.08,0-.13-.04-.13-.12v-8.2h0Z"/>
    <path class="st2" d="M148.22,60.74c0-.08.04-.12.13-.12h.48c.09,0,.16.04.19.12l2.74,6.05h.05l2.68-6.05c.03-.08.09-.12.18-.12h.49c.08,0,.13.04.13.12v8.2c0,.08-.04.12-.13.12h-.47c-.08,0-.13-.04-.13-.12v-6.61h-.04l-2.43,5.35c-.02.05-.05.08-.08.11-.03.02-.08.03-.14.03h-.25c-.1,0-.17-.05-.21-.14l-2.43-5.35h-.04v6.61c0,.08-.04.12-.13.12h-.47c-.08,0-.13-.04-.13-.12v-8.2h0Z"/>
    <path class="st2" d="M157.57,60.74c0-.08.04-.12.13-.12h.47c.08,0,.13.04.13.12v8.2c0,.08-.04.12-.13.12h-.47c-.08,0-.13-.04-.13-.12v-8.2Z"/>
    <path class="st2" d="M163.05,69.19c-.27,0-.55-.03-.82-.08s-.53-.13-.78-.22c-.24-.09-.47-.2-.67-.32s-.38-.24-.53-.37c-.07-.06-.07-.12,0-.17l.3-.37c.06-.07.12-.07.17-.01.28.22.63.41,1.05.6.42.18.88.27,1.37.27.68,0,1.21-.16,1.6-.47s.58-.73.58-1.25c0-.21-.03-.4-.1-.58s-.18-.34-.33-.48c-.15-.14-.36-.26-.62-.36s-.59-.17-.97-.22l-.39-.05c-.83-.11-1.44-.35-1.84-.73-.4-.38-.6-.88-.6-1.5,0-.74.24-1.32.72-1.74.48-.42,1.13-.63,1.94-.63.47,0,.92.06,1.34.19.42.13.78.3,1.07.52.07.04.08.1.02.17l-.25.38c-.05.06-.11.07-.17.02-.34-.21-.67-.36-1-.47-.33-.1-.68-.16-1.04-.16-.6,0-1.07.15-1.41.45-.33.3-.5.7-.5,1.2,0,.43.15.78.45,1.06.3.27.81.46,1.53.55l.38.05c.86.12,1.49.37,1.88.75.39.39.59.89.59,1.52,0,.36-.06.68-.19.98s-.32.56-.57.78-.56.39-.93.51-.78.18-1.27.18Z"/>
    <path class="st2" d="M170.49,69.19c-.27,0-.55-.03-.82-.08s-.53-.13-.78-.22c-.24-.09-.47-.2-.67-.32s-.38-.24-.53-.37c-.07-.06-.07-.12,0-.17l.3-.37c.06-.07.12-.07.17-.01.28.22.63.41,1.05.6.42.18.88.27,1.37.27.68,0,1.21-.16,1.6-.47s.58-.73.58-1.25c0-.21-.03-.4-.1-.58s-.18-.34-.33-.48c-.15-.14-.36-.26-.62-.36s-.59-.17-.97-.22l-.39-.05c-.83-.11-1.44-.35-1.84-.73-.4-.38-.6-.88-.6-1.5,0-.74.24-1.32.72-1.74.48-.42,1.13-.63,1.94-.63.47,0,.92.06,1.34.19.42.13.78.3,1.07.52.07.04.08.1.02.17l-.25.38c-.05.06-.11.07-.17.02-.34-.21-.67-.36-1-.47-.33-.1-.68-.16-1.04-.16-.6,0-1.07.15-1.41.45-.33.3-.5.7-.5,1.2,0,.43.15.78.45,1.06.3.27.81.46,1.53.55l.38.05c.86.12,1.49.37,1.88.75.39.39.59.89.59,1.52,0,.36-.06.68-.19.98s-.32.56-.57.78-.56.39-.93.51-.78.18-1.27.18Z"/>
    <path class="st2" d="M175.4,60.74c0-.08.04-.12.13-.12h.47c.08,0,.13.04.13.12v8.2c0,.08-.04.12-.13.12h-.47c-.08,0-.13-.04-.13-.12v-8.2Z"/>
    <path class="st2" d="M181.13,69.19c-.7,0-1.27-.16-1.73-.48-.46-.32-.79-.79-1-1.42-.04-.11-.08-.23-.11-.37s-.05-.3-.07-.48c-.02-.19-.04-.41-.05-.66,0-.26-.02-.57-.02-.93s0-.67.02-.93c0-.26.03-.48.05-.66.02-.19.05-.35.07-.48.03-.13.06-.26.11-.37.21-.62.54-1.09,1-1.42.46-.32,1.04-.48,1.73-.48s1.26.16,1.72.48.79.79,1,1.42c.03.12.07.24.1.37.03.13.06.29.08.48s.04.41.05.66c0,.26.02.57.02.93s0,.68-.02.93c0,.26-.03.48-.05.66-.02.19-.05.35-.08.48-.03.14-.07.26-.1.37-.21.62-.54,1.09-1,1.42-.46.32-1.03.48-1.72.48ZM183.38,64.84c0-.34,0-.63-.02-.88,0-.25-.03-.46-.04-.63-.02-.17-.04-.32-.07-.43-.03-.12-.06-.22-.08-.3-.31-.95-.99-1.43-2.04-1.43s-1.74.48-2.05,1.43c-.02.08-.05.18-.08.3s-.05.26-.07.43c-.02.17-.03.38-.04.63,0,.25-.02.54-.02.88s0,.63.02.88c0,.25.03.46.04.63.02.17.04.32.07.43.03.12.06.22.08.3.31.95,1,1.43,2.05,1.43s1.72-.48,2.04-1.43c.02-.08.05-.18.08-.3s.05-.26.07-.43.03-.38.04-.63c0-.24.02-.54.02-.88Z"/>
    <path class="st2" d="M186.14,60.74c0-.08.04-.12.13-.12h.47c.1,0,.17.04.21.12l4.2,6.94h.04v-6.94c0-.08.04-.12.13-.12h.47c.08,0,.13.04.13.12v8.2c0,.08-.04.12-.12.12h-.48c-.09,0-.16-.04-.21-.12l-4.17-6.96h-.05v6.96c0,.08-.04.12-.13.12h-.47c-.08,0-.13-.04-.13-.12v-8.2h-.02Z"/>
    <path class="st2" d="M197.7,60.74c0-.08.04-.12.13-.12h4.84c.08,0,.12.04.12.12v.42c0,.08-.04.12-.12.12h-4.17c-.05,0-.07.02-.07.07v3.09c0,.05.02.07.07.07h3.59c.08,0,.12.04.12.12v.42c0,.08-.04.12-.12.12h-3.59c-.05,0-.07.02-.07.07v3.66c0,.08-.04.12-.13.12h-.47c-.08,0-.13-.04-.13-.12v-8.16h0Z"/>
    <path class="st2" d="M207.12,69.19c-.7,0-1.27-.16-1.73-.48-.46-.32-.79-.79-1-1.42-.04-.11-.08-.23-.11-.37s-.05-.3-.07-.48c-.02-.19-.04-.41-.05-.66,0-.26-.02-.57-.02-.93s0-.67.02-.93c0-.26.03-.48.05-.66.02-.19.05-.35.07-.48.03-.13.06-.26.11-.37.21-.62.54-1.09,1-1.42.46-.32,1.04-.48,1.73-.48s1.26.16,1.72.48.79.79,1,1.42c.03.12.07.24.1.37.03.13.06.29.08.48s.04.41.05.66c0,.26.02.57.02.93s0,.68-.02.93c0,.26-.03.48-.05.66-.02.19-.05.35-.08.48-.03.14-.07.26-.1.37-.21.62-.54,1.09-1,1.42-.46.32-1.03.48-1.72.48ZM209.37,64.84c0-.34,0-.63-.02-.88,0-.25-.03-.46-.04-.63-.02-.17-.04-.32-.07-.43-.03-.12-.06-.22-.08-.3-.31-.95-.99-1.43-2.04-1.43s-1.74.48-2.05,1.43c-.02.08-.05.18-.08.3s-.05.26-.07.43c-.02.17-.03.38-.04.63,0,.25-.02.54-.02.88s0,.63.02.88c0,.25.03.46.04.63.02.17.04.32.07.43.03.12.06.22.08.3.31.95,1,1.43,2.05,1.43s1.72-.48,2.04-1.43c.02-.08.05-.18.08-.3s.05-.26.07-.43.03-.38.04-.63c.01-.24.02-.54.02-.88Z"/>
    <path class="st2" d="M217.13,69.07c-.07,0-.12-.04-.15-.11l-1.77-3.66h-2.29c-.05,0-.07.02-.07.07v3.58c0,.08-.04.12-.13.12h-.47c-.08,0-.13-.04-.13-.12v-8.2c0-.08.04-.12.12-.12h2.84c.8,0,1.44.21,1.89.62.46.41.68.99.68,1.71,0,.59-.15,1.07-.45,1.46s-.73.64-1.27.78l1.84,3.74s.03.07.02.1c0,.02-.04.04-.08.04h-.58ZM215.07,64.62c.6,0,1.06-.14,1.39-.43.32-.29.48-.7.48-1.24s-.16-.94-.48-1.23-.78-.43-1.39-.43h-2.15c-.05,0-.07.02-.07.07v3.18c0,.05.02.07.07.07h2.15Z"/>
    <path class="st2" d="M50.4,74.61c0-.08.04-.12.13-.12h.48c.09,0,.16.04.19.12l2.74,6.05h.05l2.68-6.05c.03-.08.09-.12.18-.12h.49c.08,0,.13.04.13.12v8.2c0,.08-.04.12-.13.12h-.47c-.08,0-.13-.04-.13-.12v-6.61h-.04l-2.43,5.35c-.02.05-.05.08-.08.11-.03.02-.08.03-.14.03h-.25c-.1,0-.17-.05-.21-.14l-2.43-5.35h-.04v6.61c0,.08-.04.12-.13.12h-.47c-.08,0-.13-.04-.13-.12v-8.2h.01Z"/>
    <path class="st2" d="M62.14,74.61c.02-.08.07-.12.15-.12h.45c.07,0,.12.04.15.12l2.93,8.2c.02.08,0,.12-.09.12h-.48c-.09,0-.15-.04-.16-.12l-.75-2.07h-3.68l-.75,2.07c-.03.08-.09.12-.16.12h-.48c-.08,0-.11-.04-.09-.12l2.96-8.2ZM64.1,80.04l-1.58-4.41h-.04l-1.59,4.41s3.21,0,3.21,0Z"/>
    <path class="st2" d="M67.53,74.61c0-.08.04-.12.13-.12h.47c.08,0,.13.04.13.12v4.87l4.02-4.88c.07-.07.14-.11.21-.11h.58s.07.01.08.04,0,.06-.03.09l-2.67,3.19,2.88,4.98s.03.07.02.1c-.01.02-.04.04-.08.04h-.56c-.07,0-.14-.04-.19-.11l-2.55-4.43-1.73,2.06v2.36c0,.08-.04.12-.13.12h-.47c-.08,0-.13-.04-.13-.12v-8.2h.02Z"/>
    <path class="st2" d="M75.1,74.61c0-.08.04-.12.13-.12h.47c.08,0,.13.04.13.12v4.87l4.02-4.88c.07-.07.14-.11.21-.11h.58s.07.01.08.04,0,.06-.03.09l-2.67,3.19,2.88,4.98s.03.07.02.1c-.01.02-.04.04-.08.04h-.56c-.07,0-.14-.04-.19-.11l-2.55-4.43-1.73,2.06v2.36c0,.08-.04.12-.13.12h-.47c-.08,0-.13-.04-.13-.12v-8.2h.02Z"/>
    <path class="st2" d="M85.25,74.61c.02-.08.07-.12.15-.12h.45c.07,0,.12.04.15.12l2.93,8.2c.02.08,0,.12-.09.12h-.48c-.09,0-.15-.04-.16-.12l-.75-2.07h-3.68l-.75,2.07c-.03.08-.09.12-.16.12h-.48c-.08,0-.11-.04-.09-.12l2.96-8.2ZM87.21,80.04l-1.58-4.41h-.04l-1.59,4.41h3.21Z"/>
    <path class="st2" d="M90.65,74.61c0-.08.04-.12.13-.12h.47c.08,0,.13.04.13.12v3.63c0,.05.02.07.07.07h4.16c.05,0,.07-.02.07-.07v-3.63c0-.08.04-.12.13-.12h.47c.08,0,.13.04.13.12v8.2c0,.08-.04.12-.13.12h-.48c-.08,0-.13-.04-.13-.12v-3.75c0-.05-.02-.07-.07-.07h-4.16c-.05,0-.07.02-.07.07v3.75c0,.08-.04.12-.13.12h-.47c-.08,0-.13-.04-.13-.12v-8.2h0Z"/>
    <path class="st2" d="M102.06,81.17c-.03-.11-.06-.23-.09-.35-.03-.13-.05-.29-.07-.48s-.03-.42-.04-.68-.02-.58-.02-.95.01-.69.02-.95c.01-.26.03-.49.04-.68.02-.19.04-.35.07-.48.03-.13.06-.25.09-.35.22-.64.55-1.11.99-1.42.45-.31,1.01-.47,1.68-.47.58,0,1.09.13,1.53.39s.78.65,1.02,1.17c.03.07.02.13-.04.16l-.41.2c-.07.04-.12.02-.16-.05-.19-.36-.44-.66-.75-.88-.31-.22-.71-.33-1.19-.33-.52,0-.94.12-1.26.35-.32.24-.56.59-.73,1.05-.02.08-.05.18-.07.3s-.05.26-.06.43c-.02.17-.03.38-.04.63s-.01.55-.01.91,0,.66.01.91.02.46.04.63c.02.17.04.32.06.43.02.12.05.22.07.3.17.46.41.81.73,1.05.32.24.74.35,1.26.35.48,0,.88-.11,1.19-.33.31-.22.56-.51.75-.88.04-.07.09-.09.16-.05l.41.2c.06.03.07.09.04.16-.24.52-.58.91-1.02,1.17-.44.26-.95.39-1.53.39-.67,0-1.23-.16-1.68-.47-.44-.27-.77-.74-.99-1.38Z"/>
    <path class="st2" d="M109.14,74.61c0-.08.04-.12.13-.12h.47c.08,0,.13.04.13.12v8.2c0,.08-.04.12-.13.12h-.47c-.08,0-.13-.04-.13-.12v-8.2Z"/>
    <path class="st2" d="M114.28,82.93c-.08,0-.13-.04-.13-.12v-7.58c0-.05-.02-.07-.07-.07h-2.43c-.08,0-.12-.04-.12-.12v-.42c0-.08.04-.12.12-.12h5.74c.08,0,.12.04.12.12v.42c0,.08-.04.12-.12.12h-2.43c-.05,0-.07.02-.07.07v7.58c0,.08-.04.12-.13.12h-.48Z"/>
    <path class="st2" d="M121.41,82.93c-.08,0-.13-.04-.13-.12v-3.34l-2.53-4.84s-.01-.06.01-.09c.02-.03.05-.04.09-.04h.48c.08,0,.14.04.19.12l2.13,4.04h.04l2.09-4.04c.04-.08.1-.12.19-.12h.47c.05,0,.08.01.1.04s.02.06,0,.09l-2.53,4.84v3.34c0,.08-.04.12-.13.12h-.47Z"/>
    <path class="st2" d="M131.66,74.61c.02-.08.07-.12.15-.12h.45c.07,0,.12.04.15.12l2.93,8.2c.02.08,0,.12-.09.12h-.48c-.09,0-.15-.04-.16-.12l-.75-2.07h-3.68l-.75,2.07c-.03.08-.09.12-.16.12h-.48c-.08,0-.11-.04-.09-.12l2.96-8.2ZM133.62,80.04l-1.58-4.41h-.04l-1.59,4.41s3.21,0,3.21,0Z"/>
    <path class="st2" d="M137.06,74.61c0-.08.04-.12.13-.12h.47c.1,0,.17.04.21.12l4.2,6.94h.04v-6.94c0-.08.04-.12.13-.12h.47c.08,0,.13.04.13.12v8.2c0,.08-.04.12-.12.12h-.48c-.09,0-.16-.04-.21-.12l-4.17-6.96h-.05v6.96c0,.08-.04.12-.13.12h-.47c-.08,0-.13-.04-.13-.12v-8.2h-.02Z"/>
    <path class="st2" d="M145.12,74.61c0-.08.04-.12.12-.12h2.65c1.42,0,2.32.57,2.7,1.71.04.12.08.25.11.38s.05.29.07.48.04.41.04.68c0,.27,0,.59,0,.97s0,.71,0,.98c0,.26-.02.48-.04.67-.02.19-.05.35-.07.48-.03.13-.06.26-.11.39-.37,1.14-1.27,1.71-2.7,1.71h-2.65c-.08,0-.12-.04-.12-.12v-8.21ZM145.84,82.19c0,.05.02.07.07.07h1.88c.55,0,.99-.1,1.35-.3.35-.2.61-.53.76-.98.03-.1.06-.21.09-.32.02-.12.05-.26.06-.43.02-.17.03-.38.04-.62s0-.54,0-.9,0-.66,0-.9-.02-.45-.04-.62c-.02-.17-.04-.31-.06-.43s-.05-.22-.09-.32c-.15-.45-.4-.77-.76-.97-.35-.2-.8-.3-1.35-.3h-1.88c-.05,0-.07.02-.07.07v6.95Z"/>
    <path class="st2" d="M156.3,74.61c0-.08.04-.12.13-.12h.47c.08,0,.13.04.13.12v3.63c0,.05.02.07.07.07h4.16c.05,0,.07-.02.07-.07v-3.63c0-.08.04-.12.13-.12h.47c.08,0,.13.04.13.12v8.2c0,.08-.04.12-.13.12h-.47c-.08,0-.13-.04-.13-.12v-3.75c0-.05-.02-.07-.07-.07h-4.16c-.05,0-.07.02-.07.07v3.75c0,.08-.04.12-.13.12h-.47c-.08,0-.13-.04-.13-.12v-8.2Z"/>
    <path class="st2" d="M167.06,83.06c-.7,0-1.27-.16-1.73-.48-.46-.32-.79-.79-1-1.42-.04-.11-.08-.23-.11-.37s-.05-.3-.07-.48c-.02-.19-.04-.41-.05-.66,0-.26-.02-.57-.02-.93s0-.67.02-.93c0-.26.03-.48.05-.66.02-.19.05-.35.07-.48.03-.13.06-.26.11-.37.21-.62.54-1.09,1-1.42s1.04-.48,1.73-.48,1.26.16,1.72.48.79.79,1,1.42c.03.12.07.24.1.37.03.13.06.29.08.48s.04.41.05.66c0,.26.02.57.02.93s0,.68-.02.93c0,.26-.03.48-.05.66-.02.19-.05.35-.08.48-.03.14-.07.26-.1.37-.21.62-.54,1.09-1,1.42-.46.32-1.03.48-1.72.48ZM169.31,78.71c0-.34,0-.63-.02-.88,0-.25-.03-.46-.04-.63-.02-.17-.04-.32-.07-.43-.03-.12-.06-.22-.08-.3-.31-.95-.99-1.43-2.04-1.43s-1.73.48-2.05,1.43c-.02.08-.05.18-.08.3s-.05.26-.07.43-.03.38-.04.63-.02.54-.02.88,0,.63.02.88.03.46.04.63c.02.17.04.32.07.43.03.12.06.22.08.3.31.95,1,1.43,2.05,1.43s1.72-.48,2.04-1.43c.02-.08.05-.18.08-.3s.05-.26.07-.43.03-.38.04-.63c.01-.25.02-.54.02-.88Z"/>
    <path class="st2" d="M172.07,74.61c0-.08.04-.12.13-.12h.47c.08,0,.13.04.13.12v7.58c0,.05.02.07.07.07h4.17c.08,0,.12.04.12.12v.42c0,.08-.04.12-.12.12h-4.84c-.08,0-.13-.04-.13-.12v-8.19h0Z"/>
    <path class="st2" d="M179.79,82.93c-.08,0-.13-.04-.13-.12v-3.34l-2.53-4.84s0-.06,0-.09c.02-.03.05-.04.09-.04h.48c.08,0,.14.04.19.12l2.13,4.04h.04l2.09-4.04c.04-.08.1-.12.19-.12h.47c.05,0,.08.01.1.04s.02.06,0,.09l-2.53,4.84v3.34c0,.08-.04.12-.13.12h-.47Z"/>
    <path class="st2" d="M190.3,83.06c-.27,0-.55-.03-.82-.08s-.53-.13-.78-.22c-.24-.09-.47-.2-.67-.32s-.38-.24-.53-.37c-.07-.06-.07-.12,0-.17l.3-.37c.06-.07.12-.07.17-.01.28.22.63.41,1.05.6.42.18.88.27,1.37.27.68,0,1.21-.16,1.6-.47s.58-.73.58-1.25c0-.21-.03-.4-.1-.58s-.18-.34-.33-.48c-.15-.14-.36-.26-.62-.36s-.59-.17-.97-.22l-.38-.05c-.83-.11-1.44-.35-1.84-.73-.4-.38-.6-.88-.6-1.5,0-.74.24-1.32.72-1.74s1.13-.63,1.94-.63c.47,0,.92.06,1.34.19.42.13.78.3,1.07.52.07.04.08.1.02.17l-.25.38c-.05.06-.11.07-.17.02-.34-.21-.67-.36-1-.47-.33-.1-.68-.16-1.04-.16-.6,0-1.07.15-1.41.45-.33.3-.5.7-.5,1.2,0,.43.15.78.45,1.06.3.27.81.46,1.53.55l.38.05c.86.12,1.49.37,1.88.75.39.39.59.89.59,1.52,0,.36-.06.68-.19.98s-.32.56-.57.78-.56.39-.93.51-.79.18-1.28.18Z"/>
    <path class="st2" d="M195.21,74.61c0-.08.04-.12.13-.12h.47c.08,0,.13.04.13.12v8.2c0,.08-.04.12-.13.12h-.47c-.08,0-.13-.04-.13-.12v-8.2Z"/>
    <path class="st2" d="M200.35,82.93c-.08,0-.13-.04-.13-.12v-7.58c0-.05-.02-.07-.07-.07h-2.43c-.08,0-.12-.04-.12-.12v-.42c0-.08.04-.12.12-.12h5.74c.08,0,.12.04.12.12v.42c0,.08-.04.12-.12.12h-2.43c-.05,0-.07.02-.07.07v7.58c0,.08-.04.12-.13.12h-.48Z"/>
    <path class="st2" d="M205.23,74.61c0-.08.04-.12.13-.12h4.84c.08,0,.12.04.12.12v.42c0,.08-.04.12-.12.12h-4.17c-.05,0-.07.02-.07.07v3.01c0,.05.02.07.07.07h3.59c.08,0,.12.04.12.12v.42c0,.08-.04.12-.12.12h-3.59c-.05,0-.07.02-.07.07v3.13c0,.05.02.07.07.07h4.17c.08,0,.12.04.12.12v.42c0,.08-.04.12-.12.12h-4.84c-.08,0-.13-.04-.13-.12v-8.16Z"/>
    <path class="st2" d="M214.8,83.06c-.27,0-.55-.03-.82-.08s-.53-.13-.78-.22c-.24-.09-.47-.2-.67-.32s-.38-.24-.53-.37c-.07-.06-.07-.12,0-.17l.3-.37c.06-.07.12-.07.17-.01.28.22.63.41,1.05.6.42.18.88.27,1.37.27.68,0,1.21-.16,1.6-.47s.58-.73.58-1.25c0-.21-.03-.4-.1-.58s-.18-.34-.33-.48c-.15-.14-.36-.26-.62-.36s-.59-.17-.97-.22l-.38-.05c-.83-.11-1.44-.35-1.84-.73-.4-.38-.6-.88-.6-1.5,0-.74.24-1.32.72-1.74s1.13-.63,1.94-.63c.47,0,.92.06,1.34.19.42.13.78.3,1.07.52.07.04.08.1.02.17l-.25.38c-.05.06-.11.07-.17.02-.34-.21-.67-.36-1-.47-.33-.1-.68-.16-1.04-.16-.6,0-1.07.15-1.41.45-.33.3-.5.7-.5,1.2,0,.43.15.78.45,1.06.3.27.81.46,1.53.55l.38.05c.86.12,1.49.37,1.88.75.39.39.59.89.59,1.52,0,.36-.06.68-.19.98s-.32.56-.57.78-.56.39-.93.51c-.36.12-.79.18-1.28.18Z"/>
  </g>
  <g>
    <path class="st1" d="M23.06,18.37c-.62,0-1.13.52-1.13,1.13s.49,1.13,1.13,1.13,1.13-.52,1.13-1.13c0-.62-.52-1.13-1.13-1.13ZM20.28,18.37c-.62,0-1.12.52-1.12,1.13s.46,1.13,1.12,1.13,1.13-.51,1.13-1.13-.5-1.13-1.13-1.13Z"/>
    <path class="st1" d="M44.47,21.58c-3.01,0-4.51,2.01-4.51,4.21,0,1.23.33,2,.96,2.48-.08-.02-.43-.12-.96-.12h-2.11c-.17-3.33-1.65-5.06-3.84-6.05l4.23-2.56v-2.27l-6.87,4.31v1.68c2.76.64,4.15,2.2,4.24,4.89h-10.09v-5.97s-1.58-.6-3.64-.6c-3.18,0-4.58,2.08-4.58,4.35,0,2.47,1.27,4.03,4.63,4.03h26.46v-4.39c0-2.43-1.21-3.99-3.92-3.99ZM23.3,28.16h-1.11c-1.82,0-2.6-.85-2.6-2.43,0-1.35.76-2.34,2.06-2.34.99,0,1.65.31,1.65.31,0,0,0,4.46,0,4.46ZM46.15,28.16h-1.32c-1.8,0-2.6-.8-2.6-2.43,0-1.35.76-2.34,2.06-2.34,1.16,0,1.86.73,1.86,2.47,0,0,0,2.3,0,2.3Z"/>
    <path class="st1" d="M59.93,18.37c-.62,0-1.13.52-1.13,1.13s.48,1.13,1.13,1.13,1.13-.52,1.13-1.13c-.01-.62-.52-1.13-1.13-1.13ZM57.15,18.37c-.62,0-1.13.52-1.13,1.13s.47,1.13,1.13,1.13,1.13-.51,1.13-1.13c0-.64-.51-1.13-1.13-1.13Z"/>
    <path class="st1" d="M71.2,18.36c-.64,0-1.19.55-1.19,1.19s.53,1.2,1.19,1.2,1.2-.53,1.2-1.2c0-.66-.56-1.19-1.2-1.19Z"/>
    <path class="st1" d="M78.4,31.23c-.62,0-1.13.5-1.13,1.12s.48,1.13,1.13,1.13,1.13-.52,1.13-1.13-.52-1.12-1.13-1.12ZM75.62,31.23c-.62,0-1.13.5-1.13,1.12s.49,1.13,1.13,1.13,1.13-.52,1.13-1.13-.52-1.12-1.13-1.12Z"/>
    <path class="st1" d="M75.92,21.81v6.35h-3.57v-6.35h-2.29v6.35h-7.67v-5.97s-1.58-.6-3.64-.6c-3.18,0-4.58,2.08-4.58,4.35,0,2.47,1.27,4.03,4.63,4.03h19.42v-8.16s-2.3,0-2.3,0ZM60.17,28.16h-1.11c-1.82,0-2.6-.85-2.6-2.43,0-1.35.76-2.34,2.06-2.34.99,0,1.65.31,1.65.31,0,0,0,4.46,0,4.46Z"/>
    <path class="st1" d="M101.92,17.73v10.43h-3.17v-2.58c0-2.43-1.21-3.99-3.92-3.99-3.01,0-4.51,2.01-4.51,4.21,0,1.79-.67,2.36-1.72,2.36h-.83c-.21-3.87-2.2-5.83-5.78-6.77l-.55,1.91c2.74.69,3.99,2.29,4.09,4.85h-5.13v1.81h8.45c1.46,0,2.15-.54,2.47-1.34.61.8,1.39,1.34,3.88,1.34h9.02v-12.23h-2.3ZM96.52,28.16h-1.32c-1.8,0-2.6-.8-2.6-2.43,0-1.35.76-2.34,2.06-2.34,1.16,0,1.86.73,1.86,2.47v2.3Z"/>
    <path class="st1" d="M116.03,18.37c-.62,0-1.12.52-1.12,1.13s.48,1.13,1.12,1.13,1.13-.52,1.13-1.13c0-.62-.52-1.13-1.13-1.13ZM113.25,18.37c-.62,0-1.12.52-1.12,1.13s.46,1.13,1.12,1.13,1.13-.51,1.13-1.13-.5-1.13-1.13-1.13Z"/>
    <path class="st1" d="M125.49,31.23c-.63,0-1.13.5-1.13,1.12s.48,1.13,1.13,1.13,1.12-.52,1.12-1.13-.52-1.12-1.12-1.12ZM128.27,31.23c-.63,0-1.13.5-1.13,1.12s.48,1.13,1.13,1.13,1.12-.52,1.12-1.13-.52-1.12-1.12-1.12Z"/>
    <path class="st1" d="M156.77,17.73v10.43h-3.18v-2.58c0-2.43-1.21-3.99-3.92-3.99-3,0-4.51,2.01-4.51,4.21,0,1.79-.68,2.36-1.72,2.36h-1.65v-10.43h-2.29v10.43h-2.83c-.17-3.33-1.65-5.06-3.84-6.05l4.23-2.56v-2.27l-6.87,4.31v1.68c2.76.64,4.15,2.2,4.24,4.89h-6.41v-6.35h-2.29v6.35h-7.25v-5.97s-1.58-.6-3.64-.6c-3.18,0-4.58,2.08-4.58,4.35,0,2.47,1.27,4.03,4.64,4.03h28.78c1.45,0,2.15-.54,2.47-1.34.6.8,1.38,1.34,3.88,1.34h9.02v-12.24h-2.28ZM116.27,28.16h-1.11c-1.82,0-2.6-.85-2.6-2.43,0-1.35.76-2.34,2.06-2.34.99,0,1.65.31,1.65.31v4.46ZM151.35,28.16h-1.32c-1.81,0-2.6-.8-2.6-2.43,0-1.35.76-2.34,2.06-2.34,1.16,0,1.86.73,1.86,2.47v2.3h0Z"/>
    <path class="st1" d="M161.83,17.73h2.29v12.23h-2.29v-12.23Z"/>
    <path class="st1" d="M175.96,18.37c-.62,0-1.13.52-1.13,1.13s.48,1.13,1.13,1.13,1.13-.52,1.13-1.13c-.01-.62-.53-1.13-1.13-1.13ZM173.18,18.37c-.62,0-1.13.52-1.13,1.13s.47,1.13,1.13,1.13,1.13-.51,1.13-1.13-.51-1.13-1.13-1.13Z"/>
    <path class="st1" d="M187.73,19.74c-.97,0-1.25-.24-1.25-.64,0-.33.26-.59.85-.59.45,0,.85.09.94.1l.22-1.21c-.12-.02-.55-.1-1.02-.1-1.82,0-2.55.93-2.55,1.79,0,.31.17.62.44.76-.24-.06-.66-.1-1.05-.1v1.25h4.48v-1.25h-1.06Z"/>
    <path class="st1" d="M194.05,31.23c-.62,0-1.13.5-1.13,1.12s.48,1.13,1.13,1.13,1.13-.52,1.13-1.13c0-.62-.52-1.12-1.13-1.12ZM191.27,31.23c-.62,0-1.13.5-1.13,1.12s.48,1.13,1.13,1.13,1.13-.52,1.13-1.13c0-.62-.52-1.12-1.13-1.12Z"/>
    <path class="st1" d="M210.45,17.73v10.43h-2.78v-.05c0-5.07-2.47-7.13-6.8-7.13-1.39,0-2.97.28-4.22.68l.22,1.79c1.09-.37,2.52-.68,3.71-.68,3.43,0,4.9,1.59,4.9,5.19v.21h-1.74v-.4c0-1.96-.87-3.66-3.19-3.66-2.1,0-3.33,1.23-3.33,2.92,0,.73.35,1.14.42,1.23-.07-.01-.37-.08-.78-.08h-3.04v-6.35h-2.29v6.35h-3.58v-6.35h-2.29v6.35h-7.25v-5.97s-1.58-.6-3.65-.6c-3.17,0-4.58,2.08-4.58,4.35,0,2.47,1.27,4.03,4.63,4.03h37.91v-12.26h-2.27ZM176.2,28.16h-1.11c-1.83,0-2.6-.85-2.6-2.43,0-1.35.76-2.34,2.06-2.34.99,0,1.65.31,1.65.31v4.46h0ZM201.87,28.23h-1.14c-.89,0-1.65-.39-1.65-1.37,0-.73.51-1.18,1.3-1.18,1.02,0,1.5.71,1.5,2.05v.5h-.01Z"/>
    <path class="st1" d="M215.51,17.73h2.29v12.23h-2.29v-12.23Z"/>
    <path class="st1" d="M23.04,37.42c-.62,0-1.13.52-1.13,1.12s.49,1.13,1.13,1.13,1.13-.52,1.13-1.13-.52-1.12-1.13-1.12ZM20.26,37.42c-.62,0-1.12.52-1.12,1.12s.46,1.13,1.12,1.13,1.13-.5,1.13-1.13-.5-1.12-1.13-1.12Z"/>
    <path class="st1" d="M40.68,40.16l-2.24.31c.3,1.32.51,2.92.51,4.65,0,.54-.03,1.38-.1,2.08h-.47c-1.6,0-2.06-.28-2.06-1.65v-4.35h-2.2v3.92c0,1.68-.51,2.22-1.41,2.22-1.02,0-1.2-.68-1.2-2.24v-3.21h-2.29v3.16c0,1.7-.44,2.15-1.56,2.15h-2.16v-5.97s-1.58-.61-3.64-.61c-3.18,0-4.58,2.08-4.58,4.36,0,2.47,1.27,4.02,4.63,4.02h5.73c1.27,0,1.96-.42,2.31-1.21.28.83,1.2,1.35,2.33,1.35,1.36,0,2.27-.59,2.62-1.34.51.96,1.43,1.2,3.25,1.2h2.86c.16-1.23.24-2.78.24-4.04,0-1.72-.24-3.41-.57-4.8ZM23.28,47.21h-1.11c-1.82,0-2.6-.85-2.6-2.43,0-1.36.76-2.34,2.06-2.34.99,0,1.65.31,1.65.31,0,0,0,4.46,0,4.46Z"/>
    <path class="st1" d="M55.54,37.42c-.62,0-1.13.52-1.13,1.12s.47,1.13,1.13,1.13,1.13-.5,1.13-1.13c-.01-.63-.51-1.12-1.13-1.12ZM58.31,37.42c-.62,0-1.13.52-1.13,1.12s.48,1.13,1.13,1.13,1.13-.52,1.13-1.13c0-.62-.52-1.12-1.13-1.12Z"/>
    <path class="st1" d="M75.36,36.78v10.43h-3.17v-2.59c0-2.42-1.21-3.99-3.92-3.99-3.01,0-4.51,2.02-4.51,4.22,0,1.79-.67,2.36-1.72,2.36h-.6c-.61,0-1.34.08-1.34.08.66-.55,1-1.61,1-2.62,0-2.76-1.58-4.04-4.02-4.04-2.64,0-4.42,1.82-4.42,4.32,0,.99.28,1.8.82,2.34,0,0-.54-.08-1.08-.08h-1.75c-.21-3.87-2.2-5.83-5.78-6.77l-.55,1.91c2.74.69,3.99,2.29,4.09,4.86h-5.14v1.8h19.02c1.46,0,2.15-.53,2.47-1.34.61.8,1.39,1.34,3.88,1.34h9.02v-12.23h-2.3ZM56.87,47.21c-1.27,0-1.91-.82-1.91-2.45s.96-2.32,1.95-2.32c1.3,0,1.9.83,1.9,2.35,0,1.61-.84,2.42-1.94,2.42ZM69.95,47.21h-1.32c-1.8,0-2.6-.8-2.6-2.43,0-1.36.76-2.34,2.06-2.34,1.16,0,1.86.73,1.86,2.46v2.31Z"/>
    <path class="st1" d="M80.43,36.78h2.29v12.23h-2.29v-12.23Z"/>
    <path class="st1" d="M104.01,47.21v1.8h-10.5v.07c0,2.22-.76,4.34-4.29,4.34-.53,0-1.04-.07-1.45-.17l.17-1.83c.42.12.85.21,1.41.21,1.18,0,1.87-.56,1.87-2.43v-8.34h2.29v6.35h4.23c-.76-.46-1.34-1.43-1.34-2.59,0-2.15,1.47-3.99,4.53-3.99,1.18,0,2.15.33,2.15.33l-.4,1.82s-.8-.37-1.8-.37c-1.3,0-2.19.87-2.19,2.2,0,1.47,1.2,2.59,3.95,2.59h1.37Z"/>
    <path class="st1" d="M116.41,37.5c-.62,0-1.13.52-1.13,1.13s.51,1.13,1.13,1.13,1.13-.52,1.13-1.13-.52-1.13-1.13-1.13ZM117.85,35.23c-.62,0-1.13.52-1.13,1.13s.51,1.13,1.13,1.13,1.13-.53,1.13-1.13c0-.63-.51-1.13-1.13-1.13ZM119.28,37.5c-.61,0-1.13.52-1.13,1.13s.52,1.13,1.13,1.13,1.12-.52,1.12-1.13-.5-1.13-1.12-1.13Z"/>
    <path class="st1" d="M138.81,36.78v10.43h-3.18v-2.59c0-2.42-1.21-3.99-3.92-3.99-3.01,0-4.51,2.02-4.51,4.22,0,1.79-.67,2.36-1.72,2.36h-1.57c.05-.77.07-1.54.07-2.24,0-1.72-.23-3.41-.56-4.81l-2.24.31c.3,1.32.51,2.92.51,4.65,0,.54-.03,1.38-.1,2.08h-.47c-1.59,0-2.06-.28-2.06-1.65v-4.35h-2.2v3.92c0,1.68-.51,2.22-1.41,2.22-1.02,0-1.2-.68-1.2-2.24v-3.21h-2.29v3.16c0,1.7-.43,2.15-1.56,2.15h-2.15v-10.42h-2.29v12.23h4.42c1.27,0,1.96-.42,2.31-1.21.28.83,1.2,1.35,2.33,1.35,1.36,0,2.27-.59,2.62-1.34.51.96,1.43,1.2,3.25,1.2h4.86c1.45,0,2.15-.53,2.46-1.34.61.8,1.39,1.34,3.88,1.34h9.02v-12.23h-2.3ZM133.4,47.21h-1.32c-1.8,0-2.6-.8-2.6-2.43,0-1.36.76-2.34,2.06-2.34,1.16,0,1.86.73,1.86,2.46v2.31h0Z"/>
    <path class="st1" d="M143.87,36.78h2.29v12.23h-2.29v-12.23Z"/>
    <path class="st1" d="M148.61,53.15l.14-1.87s1.35.29,2.71.29c1.8,0,3-.68,3-2.31v-.26h-1.37c-3.37,0-4.63-1.56-4.63-4.02,0-2.27,1.41-4.35,4.58-4.35,2.06,0,3.64.61,3.64.61v7.81c0,2.39-1.56,4.34-5.43,4.34-1.3-.01-2.64-.24-2.64-.24ZM154.46,42.74s-.66-.31-1.65-.31c-1.3,0-2.06.99-2.06,2.34,0,1.58.78,2.43,2.6,2.43h1.11v-4.46h0Z"/>
    <path class="st1" d="M168.49,37.42c-.62,0-1.13.52-1.13,1.12s.49,1.13,1.13,1.13,1.13-.52,1.13-1.13c0-.62-.52-1.12-1.13-1.12ZM165.71,37.42c-.62,0-1.12.52-1.12,1.12s.46,1.13,1.12,1.13,1.13-.5,1.13-1.13c0-.63-.5-1.12-1.13-1.12Z"/>
    <path class="st1" d="M178.33,40.63c-3.01,0-4.51,2.02-4.51,4.22,0,1.23.33,1.99.96,2.47-.08-.02-.43-.11-.96-.11h-2.86v-5.97s-1.58-.61-3.64-.61c-3.18,0-4.58,2.08-4.58,4.36,0,2.47,1.27,4.02,4.63,4.02h14.89v-4.39c-.01-2.43-1.22-3.99-3.93-3.99ZM168.73,47.21h-1.11c-1.82,0-2.6-.85-2.6-2.43,0-1.36.76-2.34,2.06-2.34.99,0,1.65.31,1.65.31v4.46h0ZM180.01,47.21h-1.32c-1.8,0-2.6-.8-2.6-2.43,0-1.36.76-2.34,2.06-2.34,1.16,0,1.86.73,1.86,2.46v2.31h0Z"/>
    <path class="st1" d="M210.44,36.78v10.43h-3.17v-2.59c0-2.42-1.21-3.99-3.92-3.99-3.01,0-4.51,2.02-4.51,4.22,0,1.79-.67,2.36-1.72,2.36h-.9c-.17-3.33-1.65-5.07-3.84-6.06l4.24-2.55v-2.27l-6.88,4.3v1.68c2.76.64,4.15,2.2,4.24,4.9h-5.99v-6.35h-2.29v8.34c0,1.87-.7,2.43-1.88,2.43-.55,0-.99-.09-1.41-.21l-.17,1.83c.42.1.92.17,1.45.17,3.52,0,4.29-2.12,4.29-4.34v-.07h9.37c1.46,0,2.15-.53,2.47-1.34.61.8,1.39,1.34,3.88,1.34h9.02v-12.23h-2.28ZM205.03,47.21h-1.32c-1.8,0-2.6-.8-2.6-2.43,0-1.36.77-2.34,2.07-2.34,1.16,0,1.86.73,1.86,2.46v2.31h0Z"/>
    <path class="st1" d="M215.51,36.78h2.29v12.23h-2.29v-12.23Z"/>
  </g>
  <g>
    <rect class="st1" x="283.46" y="72.58" width="3.46" height="3.46"/>
    <rect class="st1" x="283.46" y="79.49" width="3.46" height="3.46"/>
    <path class="st1" d="M255.81,65.66v13.82h-3.46v-6.91h-17.28v10.37h44.93v-10.37h-17.28v6.91h-3.46v-10.36h27.65v-3.46h-31.1ZM248.9,79.49h-10.37v-3.45h10.37v3.45ZM266.18,76.03h10.37v3.45h-10.37v-3.45Z"/>
    <rect class="st1" x="290.37" y="31.1" width="3.46" height="3.46"/>
    <rect class="st1" x="297.29" y="31.1" width="3.46" height="3.46"/>
    <path class="st1" d="M290.38,38.01v17.29h6.91v3.45h-10.37v-27.65h-3.45v31.11h13.82v3.45h-6.91v17.28h10.37v-44.93h-10.37ZM297.29,79.49h-3.46v-10.37h3.46v10.37ZM297.29,51.84h-3.46v-10.37h3.46v10.37Z"/>
    <rect class="st1" x="248.9" y="24.19" width="3.46" height="3.46"/>
    <rect class="st1" x="248.9" y="17.28" width="3.46" height="3.46"/>
    <path class="st1" d="M255.81,17.28v10.37h17.28v-6.91h3.46v10.36h-27.65v3.46h31.1v-13.82h3.46v6.91h17.28v-10.37h-44.93ZM269.64,24.19h-10.37v-3.45h10.37v3.45ZM297.29,24.19h-10.37v-3.45h10.37v3.45Z"/>
    <rect class="st1" x="241.99" y="65.66" width="3.46" height="3.46"/>
    <rect class="st1" x="235.08" y="65.66" width="3.46" height="3.46"/>
    <path class="st1" d="M238.53,38.01v-3.45h6.91v-17.28h-10.37v44.93h10.37v-17.28h-6.91v-3.45h10.37v27.65h3.45v-31.12h-13.82ZM238.53,20.74h3.46v10.36h-3.46v-10.36ZM241.99,48.38v10.37h-3.46v-10.37h3.46Z"/>
  </g>
  <g>
    <path class="st2" d="M272.33,46.03c.34.72.54,1.52.62,2.27-.84-1.08-1.85-2.03-2.94-2.75.09.12.18.25.26.38.89,1.45.74,3.36.22,4.91-.32-1.46-.88-2.88-1.6-4.1-.17-.28-.34-.55-.53-.82l.26,6.53c0,.23-.27.65-.72.65s-.72-.41-.72-.65l.26-6.52c-.19.26-.37.53-.53.81-.72,1.22-1.28,2.64-1.6,4.1-.51-1.55-.67-3.47.22-4.91.08-.13.17-.26.26-.38-1.08.72-2.1,1.67-2.94,2.75.17-1.5.78-3.2,2.12-4.05.45-.28.93-.47,1.43-.57v-.05c-.29.02-.57.04-.86.09-1.25.19-2.45.55-3.6,1.09.84-1.28,2.17-2.24,3.42-2.41.2-.03.41-.04.62-.03-.75-.38-1.57-.7-2.41-.92,1.14-.31,2.38-.24,3.45.23.31-1.32.87-2.1.87-2.1,0,0,.56.78.87,2.1,1.07-.48,2.31-.54,3.45-.23-.84.22-1.66.54-2.41.92.21,0,.42,0,.62.03.63.08,1.28.36,1.87.79.6.42,1.14.98,1.56,1.62-1.15-.54-2.35-.9-3.6-1.09-.29-.04-.57-.07-.86-.09v.05c.5.1.98.29,1.43.57.68.43,1.17,1.06,1.51,1.78Z"/>
    <path class="st2" d="M280,50.54c-1.33-.15-2.73.13-3.96.88l-7.02,4.29,2.82,1.72.39-.64s-.02,0-.03,0c-.31-.19-.41-.61-.22-.92.19-.31.6-.41.92-.22.31.19.41.6.22.92l-.74,1.21.37.23.84.51c.28.18.62.19.9.07.01.15-.01.3-.07.44-.02.05-.04.1-.08.15-.28.47-.9.62-1.36.33l-1.21-.74-.39.64s.02,0,.03,0c.31.19.41.6.22.92-.19.31-.61.42-.92.22s-.41-.61-.22-.92l.74-1.21-3.32-2.03-3.32,2.03.74,1.21c.19.31.09.73-.22.92s-.72.09-.92-.22c-.19-.31-.09-.72.22-.92.01,0,.02,0,.03-.02l-.39-.64-1.21.74c-.47.29-1.08.14-1.37-.33-.03-.05-.05-.1-.08-.15-.05-.14-.08-.3-.07-.44.29.12.62.11.91-.07l.84-.51.38-.23-.74-1.21c-.19-.31-.09-.72.22-.92.31-.19.72-.09.92.22.19.31.09.73-.22.92-.01,0-.02,0-.03,0l.39.64,2.82-1.72-7.02-4.29c-1.23-.75-2.63-1.03-3.96-.88,1.32-.9,3.11-1.01,4.57-.11l7.53,4.6,7.53-4.6c1.43-.88,3.22-.78,4.54.12Z"/>
  </g>
  <g id="Clear_Space">
    <rect class="st0" x="300.74" y="0" width="17.28" height="17.28"/>
    <rect class="st0" x="300.74" y="83.06" width="17.28" height="17.28"/>
    <rect class="st0" y="0" width="17.28" height="17.28"/>
    <rect class="st0" y="83.06" width="17.28" height="17.28"/>
  </g>
</svg>